SplineFontDB: 1.0
FontName: Netdings
FullName: Netdings
FamilyName: Netdings
Weight: Book
Copyright: Copyright (c) 2003 Ximian, Inc. All rights reserved.
Version: 0.1
ItalicAngle: 0
UnderlinePosition: -273
UnderlineWidth: 100
Ascent: 1638
Descent: 410
Order2: 1
NeedsXUIDChange: 1
FSType: 0
PfmFamily: 81
TTFWeight: 400
TTFWidth: 5
Panose: 5 3 1 2 1 5 9 6 7 3
LineGap: 0
VLineGap: 0
TtfTable: prep 401
5eKpIE.rgrOG0?]"_D.+A7@]3@Qe.+4^_SZ?X>m)>s2M"4^;,Q>?O*m=Zoke4]bWH<`M:c<'=5\
4]>0?;G]MR:d%TJ4\e[69h[]H90GsA4\A4-8Okp77m0=/4[h_$6pj+-69R\&4^C?:<'`Z?5s7P#
4THlY!!!!3&I8G'2\/-k(',Wi73W./+UUX\#Xog>732S#*<JYL!(@e3(^Ll_'F5<W&-raO$j[1G
#RCV?":,&7!!l6-#QI[pYR"'0=Kql-N`iS!9)qUa6Fd's!WRk5.k<,#.k<,#.k<,#.k<,#.k<,#
.k<pe*D<W&;cp7l*Ec%>1/h;Z!$/<[!('g=YlXnlZ54)RL`ioG;2QTCYWu*2YmMV0\.AX?Gd.;N
6EgP3+X$kTBi?6D>ZsGp92J`q#QR1o6X3`u#QR1o((bFK.k<,#.k<,#.k<,#.k<,#.k<,#.k<,#
.k<,#.k<,#.k<,#Yr=U1BcsV[<*6@i?s,n&0E?'u1&s!.)/pF3ErZ1?
EndTtf
TtfTable: fpgm 1210
5V>Jn6UF((5<_4m4$#A]2`<NH/hJV&-7'o^+s.X9&J,H^$OR1G#6k>7!s/K'/4CdQ?m)[#@'Bb\
,=k?W/4CdQ,@M_!-=O+]-6l&P/M'=87UWGC@3DdD@'Bb\,=k?W/4CdQ,@Rf!?m)[#@B^k_YQQ9t
84Y<`73b90YWuV>Y\%:I"=>?a81cA],=WndYWuS=YU3e_5[gl"-6l&P/M$o6+?TWd/M&#5,9X58
6mEha!Er?&,9X4M6mGhWYjG:i,9X3b6mGhWYQQ:M=<erm%7DFD+X&Eg+<X)iBLEuI!FR$=YXWeL
MFCo@/M$q-$OT6G6Y-TV/-)p^$UZ.+$S<n0YUC`8YlQ7:!O*ssE3THm767[T!!j#c/0IBc"!pBE
A?\m-=@GUs+X'u?/0IBc!(1-^/M$q,#",U"6Y-TV/0JZ25[gksM]f8U^l")\&--0I.h#r5A78_F
YQJ<:/M)b]7>ctXYRrCi.3h6b.=1%l/M'>%YUh"e7Be9e6nKr_;HQ@U)^-A-/M$q,"XO^)+H#gl
YQ8,VmHcDU!O)_R&0i<To`22s@3b1+/M$q,"sjiR!:B,)/0M.t?i^f]49.Jq/0M.t@0$o^49.Jq
/-)mZ6a-b^$S<nQ+Uhm+A;dr_!+IN2+g?Jo=:A^bA;dr?!+HnQ!'i1f=g.s8/M&'L^en2BA0YWC
\.r"Q)mTHo0.U20!amT2$tLSnMmu"P@ULE(/M'=87:7?/?mA*J,Bd`;Y^g1*/M++/-EmV"YQQ8V
"=6J]73Jf:-=C:mBHXM]-=LJC,=FpO/0IBc!*!()5XZ_`YWuVb)^-A-/M'>q0J>j>7:BT.!FTV0
/M'Ol=KjG'E3L$$65q'k=Y20t;-4sF"!pBM;clF,+X'u-+X'u?/4HcW6a-PuA$>uABgaO(YV/F5
/M'=8+@V/q6nKrY,=Q!./M'O>;-:@/1]QC<1a!aD1B963=[YY0/?fmW=KhlS7>b2XB!<@b)e?/q

StartChar: .notdef
Encoding: 0 -1
Width: 2048
Flags: H
Back
128 0 m 1
 128 1238 l 1
 896 1238 l 1
 896 0 l 1
 128 0 l 1
276 148 m 1
 748 148 l 1
 748 1090 l 1
 276 1090 l 1
 276 148 l 1
EndSplineSet
EndChar
StartChar: spider
Encoding: 33 61473
Width: 2048
Flags: H
Back
1705 434 m 0
 1705 308 1705 308 1605 95 c 0
 1520 -86 1520 -86 1422 -216 c 1
 1583 275 1583 275 1583 373 c 0
 1583 403 1583 403 1575 418 c 0
 1557 450 1557 450 1426 487 c 1
 1447 444 1447 444 1447 407 c 0
 1447 175 1447 175 1236 -161 c 1
 1269 -27 1269 -27 1301 108 c 1
 1338 278 1338 278 1338 378 c 0
 1338 453 1338 453 1319 481 c 0
 1302 506 1302 506 1229 544 c 1
 1240 480 1240 480 1240 404 c 0
 1240 312 1240 312 1218 224 c 128
 1196 136 1196 136 1152 55 c 0
 1090 -56 1090 -56 1025 -56 c 0
 959 -56 959 -56 897 55 c 0
 852 136 852 136 830 224 c 128
 808 312 808 312 808 404 c 0
 808 480 808 480 818 544 c 1
 745 506 745 506 728 481 c 0
 709 453 709 453 709 378 c 0
 709 278 709 278 746 108 c 1
 779 -27 779 -27 811 -161 c 1
 600 174 600 174 600 407 c 0
 600 444 600 444 622 487 c 1
 490 450 490 450 473 418 c 0
 464 403 464 403 464 373 c 0
 464 272 464 272 626 -216 c 1
 528 -87 528 -87 442 95 c 0
 342 308 342 308 342 434 c 0
 342 473 342 473 356 491 c 0
 384 527 384 527 848 647 c 1
 853 657 l 1
 651 639 651 639 547 639 c 0
 480 639 480 639 465 648 c 0
 428 669 428 669 428 834 c 0
 428 1168 428 1168 571 1376 c 1
 523 1043 523 1043 523 915 c 0
 523 762 523 762 567 728 c 0
 584 715 584 715 636 715 c 0
 678 715 678 715 720 721 c 1
 659 781 659 781 659 878 c 0
 659 1218 659 1218 822 1435 c 1
 768 1137 768 1137 768 968 c 0
 768 778 768 778 802 756 c 0
 817 746 817 746 853 746 c 0
 898 746 898 746 969 758 c 1
 884 807 884 807 884 932 c 0
 884 1001 884 1001 918 1056 c 0
 958 1121 958 1121 1023 1121 c 0
 1088 1121 1088 1121 1128 1057 c 0
 1163 1001 1163 1001 1163 932 c 0
 1163 807 1163 807 1078 758 c 1
 1150 746 1150 746 1194 746 c 0
 1231 746 1231 746 1246 756 c 0
 1280 778 1280 778 1280 968 c 0
 1280 1135 1280 1135 1225 1435 c 1
 1388 1218 1388 1218 1388 878 c 0
 1388 781 1388 781 1327 721 c 1
 1369 715 1369 715 1411 715 c 0
 1464 715 1464 715 1480 728 c 0
 1524 762 1524 762 1524 915 c 0
 1524 1042 1524 1042 1477 1376 c 1
 1620 1167 1620 1167 1620 834 c 0
 1620 669 1620 669 1582 648 c 0
 1568 639 1568 639 1501 639 c 0
 1397 639 1397 639 1194 657 c 1
 1199 647 l 1
 1663 527 1663 527 1691 491 c 0
 1705 473 1705 473 1705 434 c 0
EndSplineSet
EndChar
StartChar: web
Encoding: 34 61474
Width: 2048
Flags: H
Back
2050 809 m 1
 1934 771 l 1
 1808 539 1808 539 1727 295 c 0
 1649 62 1649 62 1593 -239 c 1
 1674 -350 l 1
 1628 -384 l 1
 1568 -302 l 1
 1294 -251 1294 -251 1023 -251 c 0
 753 -251 753 -251 479 -302 c 1
 419 -384 l 1
 373 -350 l 1
 454 -239 l 1
 398 62 398 62 320 295 c 0
 239 539 239 539 113 771 c 1
 -3 809 l 1
 15 863 l 1
 127 827 l 1
 398 975 398 975 598 1122 c 0
 812 1280 812 1280 995 1475 c 1
 995 1583 l 1
 1052 1583 l 1
 1052 1475 l 1
 1235 1280 1235 1280 1449 1122 c 0
 1649 975 1649 975 1921 827 c 1
 2032 863 l 1
 2050 809 l 1
1850 804 m 1
 1608 935 1608 935 1412 1078 c 0
 1233 1208 1233 1208 1052 1394 c 1
 1052 1172 l 1
 1136 1078 1136 1078 1330 935 c 0
 1510 802 1510 802 1644 737 c 1
 1850 804 l 1
1571 713 m 1
 1457 771 1457 771 1292 891 c 0
 1142 1000 1142 1000 1052 1091 c 1
 1052 904 l 1
 1121 824 1121 824 1205 762 c 128
 1289 700 1289 700 1379 651 c 1
 1571 713 l 1
1857 746 m 1
 1646 678 l 1
 1584 566 1584 566 1512 350 c 0
 1443 143 1443 143 1422 -3 c 1
 1549 -178 l 1
 1599 89 1599 89 1673 317 c 0
 1740 521 1740 521 1857 746 c 1
1309 628 m 1
 1231 672 1231 672 1167 718 c 0
 1113 756 1113 756 1052 821 c 1
 1052 545 l 1
 1309 628 l 1
1570 653 m 1
 1390 594 l 1
 1300 439 1300 439 1258 222 c 1
 1377 59 l 1
 1397 184 1397 184 1458 372 c 0
 1513 540 1513 540 1570 653 c 1
995 1172 m 1
 995 1394 l 1
 814 1208 814 1208 636 1078 c 0
 439 935 439 935 198 804 c 1
 403 737 l 1
 537 802 537 802 717 935 c 0
 911 1078 911 1078 995 1172 c 1
1312 569 m 1
 1064 489 l 1
 1215 281 l 1
 1233 365 1233 365 1255 438 c 0
 1274 497 1274 497 1312 569 c 1
995 904 m 1
 995 1091 l 1
 905 1000 905 1000 755 891 c 0
 590 771 590 771 476 713 c 1
 668 651 l 1
 758 700 758 700 842 762 c 128
 926 824 926 824 995 904 c 1
995 545 m 1
 995 821 l 1
 934 756 934 756 880 718 c 0
 816 672 816 672 738 628 c 1
 995 545 l 1
1183 227 m 1
 1024 446 l 1
 864 227 l 1
 951 241 951 241 1023 241 c 0
 1095 241 1095 241 1183 227 c 1
983 489 m 1
 735 569 l 1
 773 497 773 497 792 438 c 0
 814 365 814 365 832 281 c 1
 983 489 l 1
1343 8 m 1
 1231 161 l 1
 1127 183 1127 183 1024 183 c 0
 920 183 920 183 816 161 c 1
 705 8 l 1
 837 28 837 28 1023 28 c 0
 1210 28 1210 28 1343 8 c 1
789 222 m 1
 770 320 770 320 738 416 c 0
 708 507 708 507 657 594 c 1
 477 653 l 1
 534 540 534 540 589 372 c 0
 650 184 650 184 670 59 c 1
 789 222 l 1
1521 -237 m 1
 1390 -57 l 1
 1255 -30 1255 -30 1024 -30 c 0
 792 -30 792 -30 657 -57 c 1
 527 -237 l 1
 790 -194 790 -194 1023 -194 c 0
 1257 -194 1257 -194 1521 -237 c 1
625 -3 m 1
 604 143 604 143 535 350 c 0
 463 566 463 566 401 678 c 1
 190 746 l 1
 307 521 307 521 374 317 c 0
 448 89 448 89 498 -178 c 1
 625 -3 l 1
EndSplineSet
EndChar
StartChar: nopiracy
Encoding: 35 61475
Width: 2048
Flags: H
Back
1843 612 m 0
 1843 273 1843 273 1603 33 c 128
 1363 -207 1363 -207 1024 -207 c 0
 685 -207 685 -207 445 33 c 128
 205 273 205 273 205 612 c 0
 205 951 205 951 445 1191 c 128
 685 1431 685 1431 1024 1431 c 0
 1363 1431 1363 1431 1603 1191 c 128
 1843 951 1843 951 1843 612 c 0
1712 612 m 0
 1712 897 1712 897 1510.5 1098.5 c 128
 1309 1300 1309 1300 1024 1300 c 0
 769 1300 769 1300 576 1135 c 1
 705 1006 l 1
 614 906 l 1
 483 1038 l 1
 336 851 336 851 336 612 c 0
 336 327 336 327 537.5 125.5 c 128
 739 -76 739 -76 1024 -76 c 0
 1262 -76 1262 -76 1449 72 c 1
 1331 189 l 1
 1421 289 l 1
 1546 165 l 1
 1712 358 1712 358 1712 612 c 0
1322 291 m 2
 1322 167 1322 167 1234.5 80 c 128
 1147 -7 1147 -7 1024 -7 c 0
 900 -7 900 -7 812 80 c 128
 724 167 724 167 724 291 c 2
 724 467 l 1
 674 469 674 469 639.5 504 c 128
 605 539 605 539 605 587 c 0
 605 634 605 634 639.5 669 c 128
 674 704 674 704 724 706 c 1
 724 1147 l 1
 1034 1147 1034 1147 1191 1036 c 0
 1322 944 1322 944 1322 802 c 2
 1322 291 l 2
1051 1060 m 1
 843 1108 l 1
 774 1108 l 1
 774 1035 l 1
 1051 1060 l 1
1202 963 m 1
 1121 1023 l 1
 774 985 l 1
 774 912 l 1
 1202 963 l 1
1259 857 m 1
 1233 913 l 1
 774 858 l 1
 774 798 l 1
 1259 857 l 1
1272 746 m 1
 1272 802 l 1
 774 746 l 1
 1272 746 l 1
1272 291 m 1
 1272 706 l 1
 1232 706 l 1
 1232 599 1232 599 1208 556.5 c 128
 1184 514 1184 514 1125 514 c 0
 1019 514 1019 514 1019 706 c 1
 774 706 l 1
 774 291 l 1
 1272 291 l 1
724 511 m 1
 724 662 l 1
 651 656 651 656 651 587 c 0
 651 517 651 517 724 511 c 1
1136 189 m 1
 1136 228 l 1
 910 228 l 1
 910 189 l 1
 1136 189 l 1
893 592 m 1
 859 556 l 1
 830 592 l 1
 893 592 l 1
987 338 m 1
 950 338 l 1
 950 616 l 1
 809 616 l 1
 809 650 l 1
 987 650 l 1
 987 338 l 1
EndSplineSet
EndChar
StartChar: cool
Encoding: 36 61476
Width: 2048
Flags: H
Back
1630 835 m 1
 1601 822 l 1
 1602 681 1602 681 1576 628 c 0
 1511 495 1511 495 1368 495 c 0
 1185 495 1185 495 1121 609 c 0
 1083 677 1083 677 1077 832 c 1
 1095 863 l 1
 1064 889 1064 889 1014 889 c 0
 964 889 964 889 933 863 c 1
 951 832 l 1
 945 677 945 677 907 609 c 0
 843 495 843 495 660 495 c 0
 517 495 517 495 452 628 c 0
 426 681 426 681 427 822 c 1
 398 835 l 1
 398 923 l 1
 570 980 570 980 676 980 c 0
 782 980 782 980 914 930 c 1
 968 955 968 955 1014 955 c 0
 1060 955 1060 955 1114 930 c 1
 1246 980 1246 980 1352 980 c 0
 1458 980 1458 980 1630 923 c 1
 1630 835 l 1
1282 907 m 1
 1245 909 1245 909 1219 901 c 0
 1189 891 1189 891 1182 888 c 0
 1166 879 1166 879 1155 860 c 0
 1143 838 1143 838 1143 759 c 0
 1143 700 1143 700 1168 646 c 1
 1185 741 1185 741 1209 800.5 c 128
 1233 860 1233 860 1282 907 c 1
625 907 m 1
 588 909 588 909 562 901 c 0
 532 891 532 891 525 888 c 0
 509 879 509 879 498 860 c 0
 486 838 486 838 486 759 c 0
 486 700 486 700 511 646 c 1
 528 741 528 741 552 800.5 c 128
 576 860 576 860 625 907 c 1
EndSplineSet
EndChar
StartChar: trophy
Encoding: 37 61477
Width: 2048
Flags: H
Back
1885 1197 m 0
 1885 1055 1885 1055 1758 987 c 0
 1717 965 1717 965 1522 911 c 0
 1396 876 1396 876 1396 815 c 0
 1396 732 1396 732 1483 732 c 0
 1542 732 1542 732 1542 800 c 1
 1582 800 1582 800 1582 735 c 0
 1582 689 1582 689 1534 665 c 0
 1495 645 1495 645 1445 645 c 0
 1392 645 1392 645 1358 669 c 1
 1336 503 1336 503 1116 436 c 1
 1116 400 l 1
 1140 400 l 1
 1140 375 l 1
 1187 375 l 1
 1201 368 1201 368 1201 353 c 0
 1201 336 1201 336 1187 321 c 1
 1142 321 l 1
 1142 298 l 1
 1116 298 l 1
 1116 260 l 2
 1116 185 1116 185 1129 140 c 1
 1164 140 1164 140 1189 134 c 0
 1228 124 1228 124 1228 98 c 1
 1308 99 1308 99 1308 9 c 0
 1308 -1 1308 -1 1246 -11 c 0
 1126 -31 1126 -31 1013 -31 c 0
 904 -31 904 -31 788 -12 c 0
 723 -1 723 -1 723 9 c 0
 723 99 723 99 803 98 c 1
 802 124 802 124 842 134 c 0
 867 140 867 140 903 140 c 1
 915 183 915 183 915 254 c 2
 915 298 l 1
 889 298 l 1
 889 321 l 1
 845 321 l 1
 830 337 830 337 830 353 c 0
 830 368 830 368 845 375 c 1
 891 375 l 1
 891 400 l 1
 915 400 l 1
 915 436 l 1
 695 502 695 502 674 669 c 1
 640 645 640 645 586 645 c 0
 535 645 535 645 497 665 c 0
 450 689 450 689 450 735 c 0
 450 800 450 800 489 800 c 1
 488 732 488 732 548 732 c 0
 636 732 636 732 636 815 c 0
 636 876 636 876 509 911 c 0
 314 965 314 965 273 987 c 0
 146 1055 146 1055 146 1197 c 0
 146 1291 146 1291 211 1345 c 0
 258 1384 258 1384 363 1414 c 1
 381 1430 381 1430 393 1461 c 1
 443 1461 l 1
 450 1396 450 1396 567 1397 c 1
 569 1421 l 1
 648 1496 648 1496 1015 1496 c 0
 1382 1496 1382 1496 1462 1421 c 1
 1464 1397 l 1
 1484 1397 l 2
 1581 1397 1581 1397 1588 1461 c 1
 1638 1461 l 1
 1649 1430 1649 1430 1668 1414 c 1
 1772 1384 1772 1384 1819 1345 c 0
 1885 1291 1885 1291 1885 1197 c 0
1745 1235 m 0
 1745 1346 1745 1346 1623 1346 c 0
 1491 1346 1491 1346 1502 1216 c 1
 1466 1197 l 1
 1420 1281 l 1
 1386 1139 1386 1139 1371 958 c 1
 1409 989 1409 989 1517 1029 c 0
 1631 1070 1631 1070 1672 1100 c 0
 1745 1152 1745 1152 1745 1235 c 0
1372 1423 m 1
 1364 1437 1364 1437 1205 1453 c 0
 1069 1466 1069 1466 1016 1466 c 0
 900 1466 900 1466 740 1442 c 0
 709 1438 709 1438 662 1426 c 0
 660 1425 660 1425 659 1423 c 0
 659 1412 659 1412 753 1400 c 0
 891 1383 891 1383 1015 1383 c 0
 1087 1383 1087 1383 1205 1392 c 0
 1365 1405 1365 1405 1372 1423 c 1
1403 1388 m 1
 1397 1387 1397 1387 1293 1363 c 0
 1272 1358 1272 1358 1272 1338 c 0
 1272 1262 1272 1262 1271 1109 c 128
 1270 956 1270 956 1270 880 c 0
 1270 587 1270 587 1047 518 c 1
 1220 524 1220 524 1279 693 c 0
 1313 792 1313 792 1313 1010 c 0
 1313 1137 1313 1137 1326 1207 c 0
 1346 1304 1346 1304 1403 1388 c 1
991 556 m 1
 852 628 852 628 852 964 c 0
 852 1033 852 1033 858.5 1153.5 c 128
 865 1274 865 1274 865 1343 c 1
 810 1351 l 1
 828 1281 828 1281 828 1217 c 0
 828 1188 828 1188 825.5 1131 c 128
 823 1074 823 1074 823 1045 c 0
 823 579 823 579 991 556 c 1
984 518 m 1
 891 546 891 546 841 668 c 0
 801 766 801 766 801 880 c 1
 800 1338 l 1
 800 1355 800 1355 778 1360 c 0
 707 1375 707 1375 629 1388 c 1
 686 1304 686 1304 704 1207 c 0
 718 1138 718 1138 718 1010 c 0
 718 792 718 792 752 693 c 0
 810 524 810 524 984 518 c 1
660 958 m 1
 644 1139 644 1139 611 1281 c 1
 565 1197 l 1
 529 1216 l 1
 530 1237 l 2
 535 1346 535 1346 409 1346 c 0
 286 1346 286 1346 286 1235 c 0
 286 1152 286 1152 358 1100 c 0
 400 1070 400 1070 513 1029 c 0
 621 989 621 989 660 958 c 1
319 1006 m 1
 200 1063 200 1063 200 1199 c 0
 200 1283 200 1283 271 1349 c 1
 222 1338 222 1338 193 1291 c 0
 168 1248 168 1248 168 1195 c 0
 168 1133 168 1133 214 1079 c 0
 256 1030 256 1030 319 1006 c 1
1263 51 m 1
 1241 51 l 2
 1203 51 1203 51 1127 48.5 c 128
 1051 46 1051 46 1013 46 c 0
 972 46 972 46 890.5 48.5 c 128
 809 51 809 51 769 51 c 1
 875 25 875 25 1013 25 c 0
 1156 25 1156 25 1263 51 c 1
1764 1305 m 1
 1777 1263 1777 1263 1777 1222 c 0
 1777 1135 1777 1135 1660 1053 c 1
 1713 1053 1713 1053 1763.5 1101.5 c 128
 1814 1150 1814 1150 1814 1204 c 0
 1814 1281 1814 1281 1764 1305 c 1
EndSplineSet
EndChar
StartChar: award
Encoding: 38 61478
Width: 2048
Flags: H
Back
1426 255 m 0
 1426 83 1426 83 1304 -39 c 128
 1182 -161 1182 -161 1010 -161 c 0
 837 -161 837 -161 715.5 -39 c 128
 594 83 594 83 594 255 c 0
 594 389 594 389 671 496 c 128
 748 603 748 603 870 647 c 1
 826 697 826 697 827 771 c 1
 727 795 727 795 672 884.5 c 128
 617 974 617 974 617 1109 c 2
 617 1491 l 1
 1403 1491 l 1
 1403 1109 l 2
 1403 816 1403 816 1186 773 c 1
 1186 770 l 1
 1181 696 1181 696 1141 650 c 1
 1267 608 1267 608 1345 501 c 0
 1426 391 1426 391 1426 255 c 0
1111 810 m 1
 1111 1466 l 1
 907 1466 l 1
 907 810 l 1
 1111 810 l 1
1146 767 m 1
 1116 764 1116 764 1082 764 c 2
 897 764 l 2
 882 764 882 764 868 765 c 1
 871 694 871 694 913 660 c 1
 961 671 961 671 1010 671 c 0
 1054 671 1054 671 1096 662 c 1
 1139 697 1139 697 1146 767 c 1
1375 250 m 1
 1287 306 l 1
 1347 392 l 1
 1244 409 l 1
 1267 512 l 1
 1163 488 l 1
 1147 591 l 1
 1061 530 l 1
 1005 620 l 1
 950 528 l 1
 864 591 l 1
 849 485 l 1
 744 512 l 1
 772 408 l 1
 664 392 l 1
 730 305 l 1
 636 250 l 1
 730 196 l 1
 664 109 l 1
 771 94 l 1
 744 -11 l 1
 848 16 l 1
 864 -92 l 1
 949 -27 l 1
 1005 -119 l 1
 1060 -29 l 1
 1147 -92 l 1
 1164 13 l 1
 1267 -11 l 1
 1243 91 l 1
 1347 109 l 1
 1286 194 l 1
 1375 250 l 1
EndSplineSet
EndChar
StartChar: links
Encoding: 39 61479
Width: 2048
Flags: H
Back
1454 1273 m 0
 1452 1149 1452 1149 1361 1083 c 2
 1078 875 l 1
 1071 887 1071 887 1053 911 c 1
 1044 921 1044 921 1027 936 c 1
 1320 1155 l 2
 1366 1189 1366 1189 1366 1267 c 0
 1366 1366 1366 1366 1254 1366 c 0
 1207 1366 1207 1366 1169 1341 c 2
 749 1060 l 2
 681 1014 681 1014 681 942 c 0
 681 918 681 918 689 894 c 0
 716 815 716 815 792 815 c 0
 856 815 856 815 934 864 c 1
 941 859 941 859 956 843 c 0
 965 832 965 832 983 805 c 1
 875 741 875 741 781 741 c 0
 658 741 658 741 609 864 c 0
 593 904 593 904 593 945 c 0
 593 1081 593 1081 719 1159 c 2
 1144 1424 l 2
 1186 1450 1186 1450 1258 1450 c 0
 1339 1450 1339 1450 1391 1412 c 0
 1455 1365 1455 1365 1454 1273 c 0
1328 451 m 2
 1353 410 1353 410 1353 357 c 0
 1353 234 1353 234 1232 189 c 0
 1186 172 1186 172 1138 172 c 0
 1041 172 1041 172 985 227 c 1
 1054 274 l 1
 1093 240 1093 240 1149 240 c 0
 1179 240 1179 240 1204 252 c 0
 1275 287 1275 287 1275 349 c 0
 1275 388 1275 388 1245 432 c 2
 961 853 l 1
 920 915 920 915 829 915 c 0
 812 915 812 915 796 911 c 0
 737 898 737 898 729 852 c 1
 719 859 719 859 703 893 c 1
 699 911 699 911 695 940 c 1
 705 957 705 957 766 994 c 1
 796 1006 796 1006 831 1006 c 0
 900 1006 900 1006 970 964 c 1
 1034 928 1034 928 1061 884 c 2
 1328 451 l 2
997 353 m 1
 930 310 l 1
 708 650 l 2
 666 715 666 715 646 784 c 1
 661 771 661 771 699 747 c 1
 716 739 716 739 750 734 c 1
 754 719 754 719 770 686 c 1
 997 353 l 1
1454 290 m 0
 1452 167 1452 167 1361 100 c 2
 978 -179 l 2
 899 -237 899 -237 792 -237 c 0
 664 -237 664 -237 609 -118 c 0
 590 -77 590 -77 590 -36 c 0
 590 86 590 86 721 171 c 1
 1144 441 l 2
 1170 458 1170 458 1215 465 c 1
 1246 417 l 2
 1257 399 1257 399 1261 383 c 1
 1210 385 1210 385 1169 358 c 2
 749 77 l 2
 677 29 677 29 677 -38 c 0
 677 -63 677 -63 689 -88 c 0
 723 -161 723 -161 795 -161 c 0
 864 -161 864 -161 937 -108 c 2
 1320 172 l 2
 1372 210 1372 210 1370 289 c 0
 1370 293 1370 293 1358 330 c 1
 1361 361 1361 361 1359 380 c 0
 1357 409 1357 409 1333 457 c 1
 1455 420 1455 420 1454 290 c 0
EndSplineSet
EndChar
StartChar: talkleft
Encoding: 40 61480
Width: 2048
Flags: H
Back
1995 86 m 1
 1920 -2 1920 -2 1815 -2 c 0
 1649 -2 1649 -2 1527 69 c 0
 1402 141 1402 141 1392 250 c 1
 1225 212 1225 212 1041 212 c 0
 663 212 663 212 395.5 355.5 c 128
 128 499 128 499 128 702 c 0
 128 905 128 905 395.5 1048 c 128
 663 1191 663 1191 1041 1191 c 0
 1420 1191 1420 1191 1687.5 1048 c 128
 1955 905 1955 905 1955 702 c 0
 1955 508 1955 508 1707 367 c 1
 1705 351 1705 351 1705 335 c 0
 1705 231 1705 231 1786 164 c 128
 1867 97 1867 97 1995 86 c 1
EndSplineSet
EndChar
StartChar: talkright
Encoding: 41 61481
Width: 2048
Flags: H
Back
1920 702 m 0
 1920 499 1920 499 1652.5 355.5 c 128
 1385 212 1385 212 1006 212 c 0
 823 212 823 212 656 250 c 1
 646 141 646 141 522.5 69.5 c 128
 399 -2 399 -2 233 -2 c 0
 128 -2 128 -2 53 86 c 1
 181 97 181 97 262 164 c 128
 343 231 343 231 343 335 c 0
 343 351 343 351 341 367 c 1
 93 508 93 508 93 702 c 0
 93 905 93 905 360.5 1048 c 128
 628 1191 628 1191 1006 1191 c 0
 1385 1191 1385 1191 1652.5 1048 c 128
 1920 905 1920 905 1920 702 c 0
EndSplineSet
EndChar
StartChar: new
Encoding: 42 61482
Width: 2048
Flags: H
Back
2032 725 m 1
 1791 578 l 1
 1936 352 l 1
 1728 338 l 1
 1812 75 l 1
 1514 202 l 1
 1381 38 l 1
 1207 171 l 1
 1023 18 l 1
 840 171 l 1
 667 38 l 1
 534 202 l 1
 236 75 l 1
 320 338 l 1
 112 352 l 1
 257 578 l 1
 16 725 l 1
 257 867 l 1
 108 1084 l 1
 320 1104 l 1
 236 1368 l 1
 534 1241 l 1
 667 1404 l 1
 840 1272 l 1
 1025 1424 l 1
 1207 1272 l 1
 1381 1404 l 1
 1514 1241 l 1
 1812 1368 l 1
 1728 1104 l 1
 1940 1084 l 1
 1791 867 l 1
 2032 725 l 1
EndSplineSet
EndChar
StartChar: updated
Encoding: 43 61483
Width: 2048
Flags: H
Back
2032 727 m 1
 1791 580 l 1
 1936 354 l 1
 1728 340 l 1
 1812 76 l 1
 1514 203 l 1
 1381 40 l 1
 1207 172 l 1
 1023 20 l 1
 840 172 l 1
 667 40 l 1
 534 203 l 1
 236 76 l 1
 320 340 l 1
 112 354 l 1
 257 580 l 1
 16 727 l 1
 257 869 l 1
 108 1086 l 1
 320 1106 l 1
 236 1369 l 1
 534 1242 l 1
 667 1406 l 1
 840 1273 l 1
 1025 1426 l 1
 1207 1273 l 1
 1381 1406 l 1
 1440 1334 l 1
 1795 1597 l 1
 1600 1271 l 1
 1812 1369 l 1
 1728 1106 l 1
 1940 1086 l 1
 1791 869 l 1
 2032 727 l 1
1652 1441 m 1
 1474 1305 1474 1305 1107 1016 c 1
 1024 1239 l 1
 466 312 l 1
 1019 782 l 1
 1115 523 l 1
 1652 1441 l 1
EndSplineSet
EndChar
StartChar: hot
Encoding: 44 61484
Width: 2048
Flags: H
Back
1876 875 m 1
 1873 814 1873 814 1802 799 c 1
 1793 861 1793 861 1733 861 c 0
 1693 861 1693 861 1602 815 c 0
 1504 767 1504 767 1504 733 c 0
 1504 717 1504 717 1509.5 686 c 128
 1515 655 1515 655 1515 639 c 0
 1515 581 1515 581 1472 551 c 1
 1459 572 1459 572 1378 736 c 0
 1322 849 1322 849 1265 908 c 1
 1282 915 1282 915 1299 915 c 0
 1327 915 1327 915 1370.5 889.5 c 128
 1414 864 1414 864 1434 864 c 0
 1489 864 1489 864 1587.5 906 c 128
 1686 948 1686 948 1730 948 c 0
 1837 948 1837 948 1876 875 c 1
1484 447 m 0
 1484 360 1484 360 1388 306 c 0
 1305 260 1305 260 1169 222 c 0
 1055 190 1055 190 941 159 c 1
 597 47 l 1
 355 -26 355 -26 259 -26 c 0
 213 -26 213 -26 196.5 -8 c 128
 180 10 180 10 180 57 c 0
 180 65 180 65 227 95 c 0
 290 135 290 135 373 213 c 0
 502 335 502 335 511 343 c 0
 624 440 624 440 708 545 c 1
 802 672 802 672 897 799 c 1
 1033 960 1033 960 1143 960 c 0
 1211 960 1211 960 1287 858 c 0
 1341 786 1341 786 1380 693 c 1
 1444 573 l 0
 1484 497 1484 497 1484 447 c 0
1114 901 m 1
 1112 874 1112 874 1076 813 c 0
 1051 769 1051 769 870 600 c 1
 652 402 652 402 632 380 c 1
 647 362 l 1
 902 592 l 1
 1095 757 1095 757 1176 757 c 0
 1187 757 1187 757 1197 754 c 1
 1147 791 1147 791 1114 901 c 1
1643 904 m 1
 1485 827 1485 827 1443 827 c 0
 1424 827 1424 827 1350 856 c 1
 1402 780 l 1
 1643 904 l 1
1862 867 m 1
 1849 885 1849 885 1835 885 c 0
 1808 885 1808 885 1808 843 c 0
 1808 832 1808 832 1811 824 c 1
 1846 829 1846 829 1862 867 c 1
EndSplineSet
EndChar
StartChar: ribbon
Encoding: 45 61485
Width: 2048
Flags: H
Back
1470 1 m 1
 1334 -254 l 1
 962 357 l 1
 632 -254 l 1
 492 27 l 1
 811 601 l 1
 736 715 736 715 684 876 c 0
 643 1002 643 1002 643 1051 c 0
 643 1193 643 1193 756 1325 c 0
 879 1470 879 1470 1044 1470 c 0
 1136 1470 1136 1470 1212 1418 c 0
 1320 1344 1320 1344 1320 1195 c 0
 1320 971 1320 971 1109 606 c 1
 1470 1 l 1
1109 1209 m 0
 1109 1300 1109 1300 1014 1330 c 1
 959 1293 959 1293 919 1257 c 0
 823 1170 823 1170 821 1100 c 0
 819 1039 819 1039 959 882 c 1
 1109 1137 1109 1137 1109 1209 c 0
EndSplineSet
EndChar
StartChar: checkerboard
Encoding: 46 61486
Width: 2048
Flags: HW
Fore
2048 614 m 1
 1024 614 l 1
 1024 1638 l 1
 2048 1638 l 1
 2048 614 l 1
1024 -410 m 1
 0 -410 l 1
 0 614 l 1
 1024 614 l 1
 1024 -410 l 1
EndSplineSet
Back
2048 614 m 5
 1024 614 l 5
 1024 1638 l 5
 2048 1638 l 5
 2048 614 l 5
1024 -410 m 5
 0 -410 l 5
 0 614 l 5
 1024 614 l 5
 1024 -410 l 5
EndSplineSet
EndChar
StartChar: slash
Encoding: 47 47
Width: 2048
Flags: H
Fore
1030 1640 m 25
 2048 1640 l 25
 1035 -410 l 25
 0 -412 l 25
 1030 1640 l 25
EndSplineSet
Back
2048 1638 m 1
 1024 -410 l 1
 0 -410 l 1
 1024 1638 l 1
 2048 1638 l 1
EndSplineSet
EndChar
StartChar: UIminimize
Encoding: 48 61488
Width: 2048
Flags: H
Fore
510 65 m 29
 1535 65 l 25
 1535 -190 l 25
 510 -190 l 25
 510 65 l 29
EndSplineSet
Back
1536 -192 m 1
 512 -192 l 1
 512 64 l 1
 1536 64 l 1
 1536 -192 l 1
EndSplineSet
EndChar
StartChar: UImaximize
Encoding: 49 61489
Width: 2048
Flags: HW
Fore
1792 -192 m 1
 256 -192 l 1
 256 1216 l 1
 1792 1216 l 1
 1792 -192 l 1
1664 -64 m 1
 1664 960 l 1
 384 960 l 1
 384 -64 l 1
 1664 -64 l 1
EndSplineSet
Back
1792 -192 m 5
 256 -192 l 5
 256 1216 l 5
 1792 1216 l 5
 1792 -192 l 5
1664 -64 m 5
 1664 960 l 5
 384 960 l 5
 384 -64 l 5
 1664 -64 l 5
EndSplineSet
EndChar
StartChar: UItile
Encoding: 50 61490
Width: 2048
Flags: HW
Fore
1792 320 m 5
 1408 320 l 5
 1408 -192 l 5
 256 -192 l 5
 256 704 l 5
 640 704 l 5
 640 1216 l 5
 1792 1216 l 5
 1792 320 l 5
1664 448 m 5
 1664 960 l 5
 768 960 l 5
 768 704 l 5
 1408 704 l 5
 1408 448 l 5
 1664 448 l 5
1280 -64 m 5
 1280 448 l 5
 384 448 l 5
 384 -64 l 5
 1280 -64 l 5
EndSplineSet
Back
1792 320 m 5
 1408 320 l 5
 1408 -192 l 5
 256 -192 l 5
 256 704 l 5
 640 704 l 5
 640 1216 l 5
 1792 1216 l 5
 1792 320 l 5
1664 448 m 5
 1664 960 l 5
 768 960 l 5
 768 704 l 5
 1408 704 l 5
 1408 448 l 5
 1664 448 l 5
1280 -64 m 5
 1280 448 l 5
 384 448 l 5
 384 -64 l 5
 1280 -64 l 5
EndSplineSet
EndChar
StartChar: UIback
Encoding: 51 61491
Width: 1843
Flags: HW
Fore
1152 0 m 1
 512 640 l 1
 1152 1280 l 1
 1152 0 l 1
EndSplineSet
Back
1152 0 m 5
 512 640 l 5
 1152 1280 l 5
 1152 0 l 5
EndSplineSet
EndChar
StartChar: UIforward
Encoding: 52 61492
Width: 1918
Flags: HW
Fore
1393 640 m 1
 753 0 l 1
 753 1280 l 1
 1393 640 l 1
EndSplineSet
Back
1408 640 m 5
 768 0 l 5
 768 1280 l 5
 1408 640 l 5
EndSplineSet
EndChar
StartChar: UIup
Encoding: 53 61493
Width: 1923
Flags: HW
Fore
1600 320 m 1
 320 320 l 1
 960 960 l 1
 1600 320 l 1
EndSplineSet
Back
1600 320 m 5
 320 320 l 5
 960 960 l 5
 1600 320 l 5
EndSplineSet
EndChar
StartChar: UIdown
Encoding: 54 61494
Width: 1943
Flags: HW
Fore
1600 832 m 1
 960 192 l 1
 320 832 l 1
 1600 832 l 1
EndSplineSet
Back
1600 832 m 5
 960 192 l 5
 320 832 l 5
 1600 832 l 5
EndSplineSet
EndChar
StartChar: UIreverse
Encoding: 55 61495
Width: 2048
Flags: HW
Fore
1602 -64 m 1
 962 576 l 1
 1602 1216 l 1
 1602 -64 l 1
912 -64 m 1
 272 576 l 1
 912 1216 l 1
 912 -64 l 1
EndSplineSet
Back
1602 -64 m 5
 962 576 l 5
 1602 1216 l 5
 1602 -64 l 5
912 -64 m 5
 272 576 l 5
 912 1216 l 5
 912 -64 l 5
EndSplineSet
EndChar
StartChar: UIfastforward
Encoding: 56 61496
Width: 2048
Flags: HW
Fore
1772 576 m 5
 1132 -64 l 5
 1132 1216 l 5
 1772 576 l 5
1082 576 m 5
 442 -64 l 5
 442 1216 l 5
 1082 576 l 5
EndSplineSet
Back
1772 576 m 5
 1132 -64 l 5
 1132 1216 l 5
 1772 576 l 5
1082 576 m 5
 442 -64 l 5
 442 1216 l 5
 1082 576 l 5
EndSplineSet
EndChar
StartChar: UIbegin
Encoding: 57 61497
Width: 2048
Flags: HW
Fore
1772 -64 m 5
 1132 576 l 5
 1772 1216 l 5
 1772 -64 l 5
1082 -64 m 5
 442 576 l 5
 1082 1216 l 5
 1082 -64 l 5
416 -64 m 5
 288 -64 l 5
 288 1216 l 5
 416 1216 l 5
 416 -64 l 5
EndSplineSet
Back
1772 -64 m 5
 1132 576 l 5
 1772 1216 l 5
 1772 -64 l 5
1082 -64 m 5
 442 576 l 5
 1082 1216 l 5
 1082 -64 l 5
416 -64 m 5
 288 -64 l 5
 288 1216 l 5
 416 1216 l 5
 416 -64 l 5
EndSplineSet
EndChar
StartChar: UIend
Encoding: 58 61498
Width: 2048
Flags: HW
Fore
1772 -64 m 5
 1644 -64 l 5
 1644 1216 l 5
 1772 1216 l 5
 1772 -64 l 5
1618 576 m 5
 978 -64 l 5
 978 1216 l 5
 1618 576 l 5
928 576 m 5
 288 -64 l 5
 288 1216 l 5
 928 576 l 5
EndSplineSet
Back
1772 -64 m 5
 1644 -64 l 5
 1644 1216 l 5
 1772 1216 l 5
 1772 -64 l 5
1618 576 m 5
 978 -64 l 5
 978 1216 l 5
 1618 576 l 5
928 576 m 5
 288 -64 l 5
 288 1216 l 5
 928 576 l 5
EndSplineSet
EndChar
StartChar: UIpause
Encoding: 59 61499
Width: 1953
Flags: HW
Fore
1383 -64 m 1
 1127 -64 l 1
 1127 1216 l 1
 1383 1216 l 1
 1383 -64 l 1
871 -64 m 1
 615 -64 l 1
 615 1216 l 1
 871 1216 l 1
 871 -64 l 1
EndSplineSet
Back
1383 -64 m 5
 1127 -64 l 5
 1127 1216 l 5
 1383 1216 l 5
 1383 -64 l 5
871 -64 m 5
 615 -64 l 5
 615 1216 l 5
 871 1216 l 5
 871 -64 l 5
EndSplineSet
EndChar
StartChar: UIstop
Encoding: 60 61500
Width: 2048
Flags: HW
Fore
1600 38 m 5
 448 38 l 5
 448 1190 l 5
 1600 1190 l 5
 1600 38 l 5
EndSplineSet
Back
1600 38 m 5
 448 38 l 5
 448 1190 l 5
 1600 1190 l 5
 1600 38 l 5
EndSplineSet
EndChar
StartChar: UIrecord
Encoding: 61 61501
Width: 2048
Flags: H
Fore
1025 1185 m 4
 1595 1185 1595 1185 1595 615 c 4
 1595 45 1595 45 1025 45 c 4
 455 45 455 45 455 615 c 4
 455 1185 455 1185 1025 1185 c 4
EndSplineSet
Back
1600 614 m 0
 1600 376 1600 376 1431 207 c 128
 1262 38 1262 38 1024 38 c 0
 786 38 786 38 617 207 c 128
 448 376 448 376 448 614 c 0
 448 852 448 852 617 1021 c 128
 786 1190 786 1190 1024 1190 c 0
 1262 1190 1262 1190 1431 1021 c 128
 1600 852 1600 852 1600 614 c 0
EndSplineSet
EndChar
StartChar: fontsize
Encoding: 62 61502
Width: 2048
Flags: H
Back
1837 0 m 1
 1635 0 l 1
 1529 279 l 1
 1083 279 l 1
 977 0 l 1
 776 0 l 1
 1201 1074 l 1
 1412 1074 l 1
 1837 0 l 1
860 285 m 1
 783 90 l 1
 743 195 l 1
 431 195 l 1
 357 0 l 1
 201 0 l 1
 499 752 l 1
 675 752 l 1
 860 285 l 1
1469 433 m 1
 1306 881 l 1
 1145 433 l 1
 1469 433 l 1
695 318 m 1
 587 617 l 1
 480 318 l 1
 695 318 l 1
EndSplineSet
EndChar
StartChar: vote
Encoding: 63 61503
Width: 2048
Flags: H
Back
1905 969 m 1
 1832 939 1832 939 1764 908 c 0
 1601 834 1601 834 1491 767 c 0
 1388 703 1388 703 1265 563 c 1
 1229 569 l 1
 1266 613 1266 613 1305 651 c 0
 1396 742 1396 742 1475 789 c 0
 1628 881 1628 881 1860 977 c 1
 1789 1014 1789 1014 1728 1050 c 0
 1580 1137 1580 1137 1503 1205 c 0
 1408 1290 1408 1290 1273 1472 c 1
 1207 1437 1207 1437 1146 1403 c 1
 1002 1319 1002 1319 911 1247 c 0
 785 1148 785 1148 666 1000 c 1
 711 976 711 976 752 949 c 0
 852 886 852 886 920 825 c 0
 998 754 998 754 1095 595 c 1
 1039 603 l 1
 1017 644 1017 644 993 680 c 0
 937 767 937 767 882 816 c 0
 801 888 801 888 621 993 c 1
 658 1039 658 1039 698 1083 c 0
 793 1187 793 1187 884 1259 c 0
 1030 1374 1030 1374 1274 1500 c 1
 1316 1443 1316 1443 1356 1394 c 0
 1452 1275 1452 1275 1521 1213 c 0
 1644 1104 1644 1104 1905 969 c 1
1728 978 m 1
 1446 1024 1446 1024 1263 1025 c 1
 1266 829 1266 829 1191 662 c 1
 1098 789 l 1
 1121 824 1121 824 1138 860 c 0
 1179 946 1179 946 1185 1022 c 1
 1052 1013 1052 1013 852 976 c 1
 768 1027 l 1
 891 1049 891 1049 1186 1079 c 1
 1192 1264 1192 1264 1257 1378 c 1
 1303 1321 l 1
 1260 1244 1260 1244 1261 1080 c 1
 1405 1078 1405 1078 1615 1053 c 1
 1728 978 l 1
1810 51 m 1
 1017 -274 l 1
 171 51 l 1
 171 634 l 1
 885 777 l 1
 913 773 l 1
 944 737 944 737 1002 651 c 1
 661 711 l 1
 560 688 l 1
 1278 551 l 1
 1410 579 l 1
 1311 597 l 1
 1339 641 1339 641 1411 695 c 1
 1810 634 l 1
 1810 51 l 1
EndSplineSet
EndChar
StartChar: tools
Encoding: 64 61504
Width: 2048
Flags: H
Back
1879 1108 m 1
 1889 1073 1889 1073 1889 1038 c 0
 1889 935 1889 935 1817 863 c 128
 1745 791 1745 791 1642 791 c 0
 1604 791 1604 791 1567 802 c 1
 1326 561 l 1
 1873 38 l 1
 1655 -180 l 1
 1131 367 l 1
 902 137 l 1
 913 100 913 100 913 63 c 0
 913 -41 913 -41 841.5 -113 c 128
 770 -185 770 -185 666 -185 c 0
 631 -185 631 -185 596 -175 c 1
 786 15 l 1
 599 202 l 1
 409 12 l 1
 399 47 399 47 399 82 c 0
 399 185 399 185 471 257 c 128
 543 329 543 329 647 329 c 0
 682 329 682 329 717 320 c 1
 952 554 l 1
 612 909 l 1
 784 1081 l 1
 1138 741 l 1
 1384 987 l 1
 1375 1021 1375 1021 1375 1056 c 0
 1375 1161 1375 1161 1447 1233 c 128
 1519 1305 1519 1305 1622 1305 c 0
 1658 1305 1658 1305 1693 1295 c 1
 1503 1105 l 1
 1689 918 l 1
 1879 1108 l 1
606 1258 m 1
 435 1087 l 1
 402 1120 l 1
 573 1291 l 1
 606 1258 l 1
1168 1230 m 1
 1105 1255 1105 1255 1038 1255 c 0
 937 1255 937 1255 872 1191 c 2
 498 817 l 1
 537 778 l 1
 395 635 l 1
 156 874 l 1
 298 1016 l 1
 342 973 l 1
 714 1345 l 2
 791 1421 791 1421 879 1421 c 0
 1027 1421 1027 1421 1168 1230 c 1
EndSplineSet
EndChar
StartChar: underconstruction
Encoding: 65 61505
Width: 2048
Flags: H
Back
1987 598 m 1
 1879 598 l 1
 1879 415 l 1
 1804 415 l 1
 1804 598 l 1
 1475 598 l 1
 1475 415 l 1
 1401 415 l 1
 1401 598 l 1
 1292 598 l 1
 1292 666 l 1
 1401 666 l 1
 1401 842 l 1
 1292 842 l 1
 1292 910 l 1
 1401 910 l 1
 1401 1072 l 1
 1475 1072 l 1
 1475 910 l 1
 1804 910 l 1
 1804 1072 l 1
 1879 1072 l 1
 1879 910 l 1
 1987 910 l 1
 1987 842 l 1
 1879 842 l 1
 1879 666 l 1
 1987 666 l 1
 1987 598 l 1
1487 1167 m 1
 1018 1167 l 1
 1018 963 l 1
 973 963 973 963 933.5 917 c 128
 894 871 894 871 894 815 c 0
 894 757 894 757 921 718 c 128
 948 679 948 679 992 679 c 0
 1036 679 1036 679 1063.5 718 c 128
 1091 757 1091 757 1091 815 c 1
 1136 815 l 1
 1136 741 1136 741 1094 688.5 c 128
 1052 636 1052 636 992 636 c 0
 933 636 933 636 891 688.5 c 128
 849 741 849 741 849 815 c 0
 849 875 849 875 887.5 927.5 c 128
 926 980 926 980 977 998 c 1
 977 1167 l 1
 160 1167 l 1
 160 1471 l 1
 1487 1471 l 1
 1487 1167 l 1
2048 -410 m 1
 0 -410 l 1
 0 542 l 1
 263 542 l 1
 263 -160 l 1
 609 -160 l 1
 609 542 l 1
 1384 542 l 1
 1384 401 l 1
 1492 401 l 1
 1492 542 l 1
 1786 542 l 1
 1786 401 l 1
 1895 401 l 1
 1895 542 l 1
 2048 542 l 1
 2048 -410 l 1
589 -142 m 1
 286 -142 l 1
 286 1150 l 1
 589 1150 l 1
 589 -142 l 1
1444 1208 m 1
 1444 1430 l 1
 1192 1319 l 1
 1444 1208 l 1
1346 1430 m 1
 935 1430 l 1
 1140 1343 l 1
 1346 1430 l 1
1804 666 m 1
 1804 842 l 1
 1475 842 l 1
 1475 666 l 1
 1804 666 l 1
1346 1208 m 1
 1140 1295 l 1
 935 1208 l 1
 1346 1208 l 1
1089 1319 m 1
 837 1430 l 1
 837 1208 l 1
 1089 1319 l 1
801 1208 m 1
 801 1430 l 1
 549 1319 l 1
 801 1208 l 1
703 1430 m 1
 292 1430 l 1
 498 1343 l 1
 703 1430 l 1
703 1208 m 1
 498 1295 l 1
 292 1208 l 1
 703 1208 l 1
446 1319 m 1
 194 1430 l 1
 194 1208 l 1
 446 1319 l 1
549 1116 m 1
 326 1116 l 1
 437 864 l 1
 549 1116 l 1
549 606 m 1
 549 1018 l 1
 462 812 l 1
 549 606 l 1
413 812 m 1
 326 1018 l 1
 326 606 l 1
 413 812 l 1
549 542 m 1
 437 761 l 1
 326 542 l 1
 549 542 l 1
549 508 m 1
 326 508 l 1
 437 256 l 1
 549 508 l 1
549 -2 m 1
 549 410 l 1
 462 204 l 1
 549 -2 l 1
413 204 m 1
 326 410 l 1
 326 -2 l 1
 413 204 l 1
549 -99 m 1
 437 153 l 1
 326 -99 l 1
 549 -99 l 1
EndSplineSet
EndChar
StartChar: town
Encoding: 66 61506
Width: 2048
Flags: H
Back
2048 -410 m 1
 1848 -410 l 1
 1848 -260 1848 -260 1545 -189 c 0
 1397 -154 1397 -154 983 -117 c 0
 680 -91 680 -91 680 -47 c 0
 680 39 680 39 1101 77 c 1
 879 77 l 1
 409 40 409 40 409 -57 c 0
 409 -142 409 -142 611 -182 c 1
 985 -248 l 1
 1187 -300 1187 -300 1187 -410 c 1
 0 -410 l 1
 0 542 l 1
 144 542 l 1
 144 685 l 1
 108 655 l 1
 34 761 l 1
 278 950 l 1
 278 997 l 1
 246 971 l 1
 179 1066 l 1
 637 1420 l 1
 775 1313 l 1
 775 1420 l 1
 901 1420 l 1
 901 1215 l 1
 1023 1120 l 1
 1161 1227 l 1
 1220 1181 l 1
 1507 1404 l 1
 1661 1285 l 1
 1661 1404 l 1
 1800 1404 l 1
 1800 1176 l 1
 2013 1011 l 1
 1939 905 l 1
 1903 934 l 1
 1903 542 l 1
 2048 542 l 1
 2048 -410 l 1
1975 1009 m 1
 1778 1164 l 1
 1778 1384 l 1
 1681 1384 l 1
 1681 1238 l 1
 1507 1375 l 1
 1239 1167 l 1
 1351 1080 l 1
 1351 1227 l 1
 1523 1227 l 1
 1523 946 l 1
 1653 847 l 1
 1793 847 l 1
 1793 629 l 1
 1708 629 l 1
 1695 611 l 1
 1651 647 l 1
 1651 483 l 1
 1876 483 l 1
 1876 995 l 1
 1933 948 l 1
 1975 1009 l 1
1739 739 m 1
 1495 930 l 1
 1495 1202 l 1
 1376 1202 l 1
 1376 1022 l 1
 1161 1191 l 1
 581 739 l 1
 633 664 l 1
 703 722 l 1
 703 90 l 1
 879 90 l 1
 879 539 l 1
 1099 539 l 1
 1099 90 l 1
 1617 90 l 1
 1617 722 l 1
 1687 664 l 1
 1739 739 l 1
1005 1107 m 1
 880 1203 l 1
 880 1402 l 1
 794 1402 l 1
 794 1270 l 1
 637 1393 l 1
 214 1064 l 1
 252 1009 l 1
 302 1052 l 1
 302 969 l 1
 542 1154 l 1
 696 1035 l 1
 696 1154 l 1
 835 1154 l 1
 835 975 l 1
 1005 1107 l 1
813 958 m 1
 813 1134 l 1
 716 1134 l 1
 716 988 l 1
 542 1125 l 1
 72 759 l 1
 115 698 l 1
 171 745 l 1
 171 232 l 1
 314 232 l 1
 314 597 l 1
 492 597 l 1
 492 232 l 1
 669 232 l 1
 669 379 l 1
 595 379 l 1
 595 597 l 1
 669 597 l 1
 669 647 l 1
 625 611 l 1
 533 742 l 1
 813 958 l 1
1515 270 m 1
 1227 270 l 1
 1227 539 l 1
 1515 539 l 1
 1515 270 l 1
EndSplineSet
EndChar
StartChar: city
Encoding: 67 61507
Width: 2048
Flags: H
Back
2048 -410 m 1
 0 -410 l 1
 0 542 l 1
 139 542 l 1
 139 842 l 1
 428 842 l 1
 428 692 l 1
 473 692 l 1
 473 1205 l 1
 651 1205 l 1
 651 778 l 1
 692 778 l 1
 692 1488 l 1
 1102 1488 l 1
 1102 856 l 1
 1219 856 l 1
 1219 1092 l 1
 1345 1092 l 1
 1345 1298 l 1
 1568 1298 l 1
 1568 668 l 1
 1650 668 l 1
 1650 856 l 1
 1904 856 l 1
 1904 542 l 1
 2048 542 l 1
 2048 -410 l 1
1487 1154 m 1
 1487 1274 l 1
 1439 1274 l 1
 1439 1154 l 1
 1487 1154 l 1
1419 1154 m 1
 1419 1274 l 1
 1371 1274 l 1
 1371 1154 l 1
 1419 1154 l 1
1798 711 m 1
 1798 831 l 1
 1750 831 l 1
 1750 711 l 1
 1798 711 l 1
1730 711 m 1
 1730 831 l 1
 1682 831 l 1
 1682 711 l 1
 1730 711 l 1
1419 1008 m 1
 1419 1128 l 1
 1371 1128 l 1
 1371 1008 l 1
 1419 1008 l 1
1730 565 m 1
 1730 685 l 1
 1682 685 l 1
 1682 565 l 1
 1730 565 l 1
971 1320 m 1
 971 1440 l 1
 923 1440 l 1
 923 1320 l 1
 971 1320 l 1
882 1320 m 1
 882 1440 l 1
 834 1440 l 1
 834 1320 l 1
 882 1320 l 1
791 1320 m 1
 791 1440 l 1
 743 1440 l 1
 743 1320 l 1
 791 1320 l 1
882 1156 m 1
 882 1276 l 1
 834 1276 l 1
 834 1156 l 1
 882 1156 l 1
1620 350 m 1
 1620 470 l 1
 1572 470 l 1
 1572 350 l 1
 1620 350 l 1
791 1156 m 1
 791 1276 l 1
 743 1276 l 1
 743 1156 l 1
 791 1156 l 1
1551 350 m 1
 1551 470 l 1
 1503 470 l 1
 1503 350 l 1
 1551 350 l 1
791 995 m 1
 791 1115 l 1
 743 1115 l 1
 743 995 l 1
 791 995 l 1
1551 204 m 1
 1551 324 l 1
 1503 324 l 1
 1503 204 l 1
 1551 204 l 1
631 1060 m 1
 631 1179 l 1
 583 1179 l 1
 583 1060 l 1
 631 1060 l 1
540 1060 m 1
 540 1179 l 1
 492 1179 l 1
 492 1060 l 1
 540 1060 l 1
930 621 m 1
 930 741 l 1
 882 741 l 1
 882 621 l 1
 930 621 l 1
839 621 m 1
 839 741 l 1
 791 741 l 1
 791 621 l 1
 839 621 l 1
540 895 m 1
 540 1015 l 1
 492 1015 l 1
 492 895 l 1
 540 895 l 1
1124 181 m 1
 1124 301 l 1
 1076 301 l 1
 1076 181 l 1
 1124 181 l 1
839 457 m 1
 839 577 l 1
 791 577 l 1
 791 457 l 1
 839 457 l 1
1055 181 m 1
 1055 301 l 1
 1007 301 l 1
 1007 181 l 1
 1055 181 l 1
1055 36 m 1
 1055 156 l 1
 1007 156 l 1
 1007 36 l 1
 1055 36 l 1
308 686 m 1
 308 806 l 1
 260 806 l 1
 260 686 l 1
 308 686 l 1
475 479 m 1
 475 599 l 1
 427 599 l 1
 427 479 l 1
 475 479 l 1
225 686 m 1
 225 806 l 1
 177 806 l 1
 177 686 l 1
 225 686 l 1
407 479 m 1
 407 599 l 1
 359 599 l 1
 359 479 l 1
 407 479 l 1
407 333 m 1
 407 453 l 1
 359 453 l 1
 359 333 l 1
 407 333 l 1
EndSplineSet
EndChar
StartChar: derelictsite
Encoding: 68 61508
Width: 2048
Flags: H
Back
2048 -410 m 1
 1848 -410 l 1
 1848 -260 1848 -260 1505 -169 c 0
 1360 -130 1360 -130 869 -56 c 0
 526 -4 526 -4 526 49 c 0
 526 135 526 135 947 189 c 1
 676 189 l 1
 255 152 255 152 255 39 c 0
 255 -62 255 -62 497 -127 c 1
 945 -231 l 1
 1187 -300 1187 -300 1187 -410 c 1
 0 -410 l 1
 0 543 l 1
 417 543 l 1
 417 786 l 1
 362 741 l 1
 249 902 l 1
 1024 1501 l 1
 1259 1320 l 1
 1259 1501 l 1
 1471 1501 l 1
 1471 1154 l 1
 1796 902 l 1
 1683 741 l 1
 1628 786 l 1
 1628 543 l 1
 2048 543 l 1
 2048 -410 l 1
1738 899 m 1
 1437 1135 l 1
 1437 1470 l 1
 1290 1470 l 1
 1290 1248 l 1
 1024 1457 l 1
 307 899 l 1
 372 806 l 1
 458 878 l 1
 458 199 l 1
 676 199 l 1
 676 259 l 1
 947 478 l 1
 947 199 l 1
 1587 199 l 1
 1587 878 l 1
 1673 806 l 1
 1738 899 l 1
1461 467 m 1
 1199 681 l 1
 1283 753 l 1
 1461 753 l 1
 1461 467 l 1
1559 371 m 1
 1429 205 l 1
 1019 538 l 1
 1184 673 l 1
 1559 371 l 1
1517 962 m 1
 604 222 l 1
 475 387 l 1
 1380 1117 l 1
 1517 962 l 1
994 825 m 1
 827 693 l 1
 517 945 l 1
 653 1101 l 1
 994 825 l 1
1142 421 m 1
 1105 421 l 1
 1105 452 l 1
 1142 421 l 1
816 682 m 1
 676 570 l 1
 676 753 l 1
 730 753 l 1
 816 682 l 1
1429 984 m 0
 1429 1040 1429 1040 1374 1040 c 0
 1319 1040 1319 1040 1319 984 c 0
 1319 929 1319 929 1374 929 c 0
 1429 929 1429 929 1429 984 c 0
1481 348 m 0
 1481 403 1481 403 1426 403 c 0
 1371 403 1371 403 1371 348 c 0
 1371 293 1371 293 1426 293 c 0
 1481 293 1481 293 1481 348 c 0
715 968 m 0
 715 1023 715 1023 660 1023 c 0
 604 1023 604 1023 604 968 c 0
 604 913 604 913 660 913 c 0
 715 913 715 913 715 968 c 0
663 364 m 0
 663 420 663 420 608 420 c 0
 552 420 552 420 552 364 c 0
 552 309 552 309 608 309 c 0
 663 309 663 309 663 364 c 0
EndSplineSet
EndChar
StartChar: desert
Encoding: 69 61509
Width: 2048
Flags: H
Back
829 1150 m 0
 829 1025 829 1025 737.5 936.5 c 128
 646 848 646 848 517 848 c 0
 388 848 388 848 296.5 936.5 c 128
 205 1025 205 1025 205 1150 c 0
 205 1275 205 1275 296.5 1363 c 128
 388 1451 388 1451 517 1451 c 0
 646 1451 646 1451 737.5 1363 c 128
 829 1275 829 1275 829 1150 c 0
2048 -410 m 1
 0 -410 l 1
 0 542 l 1
 33 543 33 543 66 548 c 0
 145 560 145 560 214 589 c 0
 289 621 289 621 366 700 c 1
 591 649 l 1
 657 620 657 620 734 542 c 1
 786 543 786 543 833 548 c 0
 945 560 945 560 1014 589 c 0
 1090 621 1090 621 1166 700 c 1
 1391 649 l 1
 1458 620 1458 620 1534 542 c 1
 1534 797 l 1
 1337 797 l 2
 1304 797 1304 797 1268 832 c 128
 1232 867 1232 867 1232 907 c 2
 1232 1226 l 2
 1232 1308 1232 1308 1295 1308 c 0
 1360 1308 1360 1308 1360 1226 c 2
 1360 971 l 2
 1360 907 1360 907 1441 907 c 2
 1534 907 l 1
 1534 1410 l 2
 1534 1493 1534 1493 1598 1493 c 0
 1661 1493 1661 1493 1661 1410 c 2
 1661 783 l 1
 1704 783 l 2
 1766 783 1766 783 1766 847 c 2
 1766 999 l 2
 1766 1082 1766 1082 1830 1082 c 0
 1893 1082 1893 1082 1893 999 c 2
 1893 783 l 2
 1893 743 1893 743 1857 708 c 128
 1821 673 1821 673 1788 673 c 2
 1661 673 l 1
 1661 542 l 1
 2048 542 l 1
 2048 -410 l 1
1223 513 m 0
 1225 524 1225 524 1225 535 c 0
 1225 596 1225 596 1179 652 c 1
 1191 613 1191 613 1191 573 c 0
 1191 537 1191 537 1179 510 c 0
 1144 433 1144 433 1021 402 c 1
 1075 407 1075 407 1116 420 c 0
 1213 450 1213 450 1223 513 c 0
423 513 m 0
 425 524 425 524 425 535 c 0
 425 596 425 596 379 652 c 1
 391 613 391 613 391 573 c 0
 391 537 391 537 379 510 c 0
 343 433 343 433 220 402 c 1
 275 407 275 407 315 420 c 0
 412 450 412 450 423 513 c 0
EndSplineSet
EndChar
StartChar: factory
Encoding: 70 61510
Width: 2048
Flags: H
Back
2048 -410 m 1
 0 -410 l 1
 0 543 l 1
 176 543 l 1
 176 1232 l 1
 567 988 l 1
 567 1232 l 1
 956 988 l 1
 956 1232 l 1
 1335 988 l 1
 1506 1441 l 1
 1859 1441 l 1
 1859 543 l 1
 2048 543 l 1
 2048 -410 l 1
1818 199 m 1
 1818 1407 l 1
 1546 1407 l 1
 1359 906 l 1
 1001 1146 l 1
 1001 906 l 1
 612 1146 l 1
 612 906 l 1
 218 1146 l 1
 218 199 l 1
 1818 199 l 1
1640 421 m 1
 1284 421 l 1
 1284 753 l 1
 1640 753 l 1
 1640 421 l 1
1194 421 m 1
 838 421 l 1
 838 753 l 1
 1194 753 l 1
 1194 421 l 1
749 421 m 1
 393 421 l 1
 393 753 l 1
 749 753 l 1
 749 421 l 1
EndSplineSet
EndChar
StartChar: publicbuilding
Encoding: 71 61511
Width: 2048
Flags: H
Back
1763 1053 m 1
 285 1053 l 1
 1024 1298 l 1
 1763 1053 l 1
2048 -410 m 1
 0 -410 l 1
 0 542 l 1
 400 542 l 1
 407 890 l 1
 378 890 l 1
 378 1026 l 1
 1670 1026 l 1
 1670 890 l 1
 1641 890 l 1
 1648 542 l 1
 2048 542 l 1
 2048 -410 l 1
1605 1080 m 1
 1024 1271 l 1
 443 1080 l 1
 1605 1080 l 1
1629 132 m 1
 1614 890 l 1
 1541 890 l 1
 1526 132 l 1
 1629 132 l 1
1643 917 m 1
 1643 999 l 1
 405 999 l 1
 405 917 l 1
 1643 917 l 1
1260 132 m 1
 1245 890 l 1
 1172 890 l 1
 1157 132 l 1
 1260 132 l 1
891 132 m 1
 876 890 l 1
 803 890 l 1
 788 132 l 1
 891 132 l 1
1898 -75 m 1
 1898 -15 l 1
 1832 -15 l 1
 1832 45 l 1
 1766 45 l 1
 1766 105 l 1
 282 105 l 1
 282 45 l 1
 216 45 l 1
 216 -15 l 1
 150 -15 l 1
 150 -75 l 1
 1898 -75 l 1
522 132 m 1
 507 890 l 1
 434 890 l 1
 419 132 l 1
 522 132 l 1
EndSplineSet
EndChar
StartChar: home
Encoding: 72 8632
Width: 2048
Flags: H
Back
2048 -410 m 1
 1848 -410 l 1
 1848 -260 1848 -260 1505 -169 c 0
 1360 -130 1360 -130 869 -56 c 0
 526 -4 526 -4 526 49 c 0
 526 135 526 135 947 189 c 1
 676 189 l 1
 255 152 255 152 255 39 c 0
 255 -62 255 -62 497 -127 c 1
 945 -231 l 1
 1187 -300 1187 -300 1187 -410 c 1
 0 -410 l 1
 0 543 l 1
 417 543 l 1
 417 786 l 1
 362 741 l 1
 249 902 l 1
 1024 1501 l 1
 1259 1320 l 1
 1259 1501 l 1
 1471 1501 l 1
 1471 1154 l 1
 1796 902 l 1
 1683 741 l 1
 1628 786 l 1
 1628 543 l 1
 2048 543 l 1
 2048 -410 l 1
1738 899 m 1
 1437 1135 l 1
 1437 1470 l 1
 1290 1470 l 1
 1290 1248 l 1
 1024 1457 l 1
 307 899 l 1
 372 806 l 1
 458 878 l 1
 458 199 l 1
 676 199 l 1
 676 753 l 1
 947 753 l 1
 947 199 l 1
 1587 199 l 1
 1587 878 l 1
 1673 806 l 1
 1738 899 l 1
1461 421 m 1
 1105 421 l 1
 1105 753 l 1
 1461 753 l 1
 1461 421 l 1
EndSplineSet
EndChar
StartChar: beach
Encoding: 73 61513
Width: 2048
Flags: H
Back
1542 893 m 1
 1409 837 l 1
 1057 903 l 1
 645 1109 l 1
 537 1346 l 1
 1189 1367 l 1
 1228 1350 l 1
 1542 893 l 1
952 948 m 1
 645 421 l 1
 606 439 l 1
 910 969 l 1
 952 948 l 1
2048 -410 m 1
 1413 -368 1413 -368 1413 -193 c 0
 1413 -140 1413 -140 1540 -96 c 1
 1659 -58 1659 -58 1777 -19 c 1
 1905 33 1905 33 1905 104 c 0
 1905 159 1905 159 1777 192 c 0
 1669 221 1669 221 1532 222 c 0
 1095 227 1095 227 1095 135 c 0
 1095 110 1095 110 1170 82 c 128
 1245 54 1245 54 1245 30 c 0
 1245 -6 1245 -6 1052 -6 c 0
 1002 -6 1002 -6 880 -2 c 0
 768 1 768 1 718 0 c 0
 144 -8 144 -8 144 -130 c 0
 144 -171 144 -171 248 -215 c 128
 352 -259 352 -259 352 -305 c 0
 352 -359 352 -359 200 -389 c 0
 105 -407 105 -407 0 -410 c 1
 0 542 l 1
 346 596 346 596 544 596 c 0
 626 596 626 596 678 592 c 1
 589 435 l 1
 648 407 l 1
 750 582 l 1
 811 573 811 573 882 573 c 0
 970 573 970 573 1173 596 c 0
 1371 618 1371 618 1490 617 c 0
 1689 615 1689 615 2048 542 c 1
 2048 -410 l 1
1769 100 m 0
 1769 44 1769 44 1620 -6 c 1
 1482 -46 1482 -46 1344 -87 c 1
 1194 -136 1194 -136 1193 -190 c 0
 1189 -330 1189 -330 1745 -410 c 1
 1385 -410 l 1
 1294 -384 1294 -384 1229 -357 c 0
 1073 -293 1073 -293 1071 -232 c 0
 1071 -228 1071 -228 1072 -218.5 c 128
 1073 -209 1073 -209 1073 -203 c 0
 1073 -126 1073 -126 872 -123 c 0
 769 -122 769 -122 682 -134 c 0
 582 -148 582 -148 582 -172 c 0
 582 -207 582 -207 716.5 -240.5 c 128
 851 -274 851 -274 851 -308 c 0
 851 -402 851 -402 620 -410 c 1
 320 -410 l 1
 627 -378 627 -378 627 -308 c 0
 627 -271 627 -271 477 -231 c 128
 327 -191 327 -191 327 -158 c 0
 327 -113 327 -113 465 -96 c 0
 559 -85 559 -85 811 -82 c 0
 983 -79 983 -79 1163 -59 c 0
 1402 -32 1402 -32 1402 9 c 0
 1402 47 1402 47 1330.5 74 c 128
 1259 101 1259 101 1259 111 c 0
 1259 171 1259 171 1542 166 c 0
 1769 163 1769 163 1769 100 c 0
986 180 m 1
 754 213 l 1
 811 293 l 1
 631 236 l 1
 406 290 l 1
 562 207 l 1
 399 144 l 1
 648 163 l 1
 754 47 l 1
 751 163 l 1
 986 180 l 1
EndSplineSet
EndChar
StartChar: island
Encoding: 74 61514
Width: 2048
Flags: H
Back
2048 -410 m 1
 0 -410 l 1
 0 542 l 1
 422 542 l 1
 670 611 670 611 1023 611 c 0
 1088 611 1088 611 1150 609 c 1
 1121 923 1121 923 1043 1165 c 1
 974 1151 974 1151 915 1097 c 0
 819 1007 819 1007 790 828 c 1
 759 936 759 936 759 1028 c 0
 759 1144 759 1144 814 1190 c 0
 855 1224 855 1224 948 1248 c 1
 911 1251 911 1251 865 1252 c 0
 791 1253 791 1253 653 1224 c 1
 771 1379 771 1379 865 1379 c 0
 917 1379 917 1379 1003 1335 c 1
 994 1369 994 1369 976 1414 c 0
 967 1438 967 1438 934 1486 c 1
 1010 1506 1010 1506 1052 1504 c 0
 1094 1502 1094 1502 1167 1482 c 1
 1147 1466 1147 1466 1114 1421 c 1
 1108 1406 1108 1406 1107 1376 c 1
 1192 1459 1192 1459 1276 1452 c 0
 1380 1443 1380 1443 1469 1243 c 1
 1348 1351 1348 1351 1276 1345 c 0
 1228 1341 1228 1341 1162 1276 c 1
 1456 1283 1456 1283 1459 1062 c 0
 1461 974 1461 974 1373 830 c 1
 1369 907 1369 907 1356 965 c 0
 1327 1098 1327 1098 1252 1148 c 0
 1215 1173 1215 1173 1125 1180 c 1
 1148 1120 1148 1120 1169 1052 c 1
 1107 1041 l 1
 1109 1025 l 1
 1174 1038 l 1
 1192 981 1192 981 1207 924 c 1
 1143 915 l 1
 1142 898 l 1
 1211 904 l 1
 1226 847 1226 847 1239 790 c 1
 1173 781 l 1
 1172 764 l 1
 1241 769 l 1
 1250 725 1250 725 1265 647 c 1
 1189 643 l 1
 1188 626 l 1
 1268 627 l 1
 1272 602 l 1
 1319 598 1319 598 1364 593 c 1
 1413 636 l 1
 1391 589 l 1
 1534 570 1534 570 1626 542 c 1
 2048 542 l 1
 2048 -410 l 1
1352 581 m 1
 1313 586 1313 586 1273 589 c 1
 1276 566 l 1
 1279 546 1279 546 1281 518 c 1
 1352 581 l 1
1855 359 m 0
 1855 430 1855 430 1724 489 c 0
 1597 547 1597 547 1385 577 c 1
 1356 516 l 1
 1434 542 l 1
 1366 475 l 1
 1321 445 1321 445 1225 449 c 0
 1156 451 1156 451 1109 482 c 1
 1071 581 l 1
 1158 516 l 1
 1154 567 1154 567 1151 598 c 1
 1088 601 1088 601 1023 601 c 0
 678 601 678 601 434 530 c 128
 190 459 190 459 190 359 c 0
 190 259 190 259 434 188.5 c 128
 678 118 678 118 1023 118 c 0
 1367 118 1367 118 1611 188.5 c 128
 1855 259 1855 259 1855 359 c 0
EndSplineSet
EndChar
StartChar: motorway
Encoding: 75 61515
Width: 2048
Flags: H
Back
1901 618 m 1
 1791 618 l 1
 1791 394 l 1
 1733 394 l 1
 1733 618 l 1
 1292 618 l 1
 1292 394 l 1
 1233 394 l 1
 1233 618 l 1
 1110 618 l 1
 1110 1032 l 1
 1233 1032 l 1
 1233 1084 l 1
 1292 1084 l 1
 1292 1032 l 1
 1733 1032 l 1
 1733 1084 l 1
 1791 1084 l 1
 1791 1032 l 1
 1901 1032 l 1
 1901 618 l 1
2048 -410 m 1
 0 -410 l 1
 0 542 l 1
 1214 542 l 1
 1214 380 l 1
 1311 380 l 1
 1311 542 l 1
 1712 542 l 1
 1712 380 l 1
 1809 380 l 1
 1809 542 l 1
 2048 542 l 1
 2048 -410 l 1
1881 639 m 1
 1881 1008 l 1
 1134 1008 l 1
 1134 639 l 1
 1881 639 l 1
1950 -365 m 1
 1031 515 l 1
 1002 515 l 1
 80 -365 l 1
 1950 -365 l 1
1860 657 m 1
 1157 657 l 1
 1157 844 l 1
 1860 844 l 1
 1860 657 l 1
1028 407 m 1
 1005 407 l 1
 1017 456 l 1
 1028 407 l 1
1058 297 m 1
 981 297 l 1
 999 372 l 1
 1037 372 l 1
 1058 297 l 1
1116 93 m 1
 921 93 l 1
 965 243 l 1
 1070 243 l 1
 1116 93 l 1
1222 -320 m 1
 815 -320 l 1
 896 -20 l 1
 1141 -20 l 1
 1222 -320 l 1
1729 677 m 1
 1533 818 l 1
 1491 818 l 1
 1305 677 l 1
 1729 677 l 1
1557 697 m 1
 1476 697 l 1
 1512 794 l 1
 1557 697 l 1
EndSplineSet
EndChar
StartChar: search
Encoding: 76 61516
Width: 2048
Flags: H
Back
1360 1028 m 0
 1360 867 1360 867 1277 767 c 0
 1188 659 1188 659 1030 659 c 0
 865 659 865 659 760 802 c 0
 664 932 664 932 664 1102 c 0
 664 1450 664 1450 985 1450 c 0
 1143 1450 1143 1450 1255 1316 c 0
 1360 1190 1360 1190 1360 1028 c 0
1086 488 m 1
 1052 501 l 1
 1037 615 l 1
 1021 615 l 1
 1032 507 l 1
 1020 507 l 2
 990 507 990 507 948 487 c 0
 902 466 902 466 893 443 c 1
 858 610 l 1
 732 616 732 616 633 730 c 0
 531 848 531 848 531 1002 c 0
 531 1150 531 1150 584 1230 c 0
 614 1277 614 1277 747 1389 c 1
 636 1270 636 1270 636 1105 c 0
 636 929 636 929 730 794 c 0
 836 643 836 643 1005 643 c 0
 1030 643 1030 643 1065 643 c 1
 1086 488 l 1
1178 -157 m 1
 1178 -191 1178 -191 1149 -217 c 128
 1120 -243 1120 -243 1083 -243 c 0
 1044 -243 1044 -243 1013 -214 c 0
 986 -189 986 -189 983 -163 c 1
 901 409 l 1
 896 441 896 441 942 465 c 0
 985 488 985 488 1038 488 c 0
 1074 488 1074 488 1092 455 c 1
 1167 -85 l 1
 1178 -157 l 1
1328 1031 m 0
 1328 1178 1328 1178 1231 1292 c 0
 1129 1413 1129 1413 985 1413 c 0
 695 1413 695 1413 695 1098 c 0
 695 943 695 943 783 825 c 0
 879 695 879 695 1028 695 c 0
 1172 695 1172 695 1253 793 c 0
 1328 884 1328 884 1328 1031 c 0
1306 1020 m 0
 1306 808 1306 808 1115 722 c 1
 1235 858 1235 858 1235 1010 c 0
 1235 1158 1235 1158 1142 1255.5 c 128
 1049 1353 1049 1353 902 1358 c 1
 946 1377 946 1377 998 1377 c 0
 1128 1377 1128 1377 1220 1262 c 0
 1306 1154 1306 1154 1306 1020 c 0
1140 1052 m 0
 1140 968 1140 968 1058 895 c 1
 1068 974 1068 974 1068 1007 c 0
 1068 1064 1068 1064 1029 1125 c 0
 1014 1148 1014 1148 950 1226 c 1
 1025 1223 1025 1223 1081 1175 c 0
 1140 1124 1140 1124 1140 1052 c 0
832 867 m 1
 791 881 791 881 765 952 c 0
 743 1010 743 1010 743 1064 c 0
 743 1130 743 1130 777 1169 c 1
 813 1037 813 1037 832 867 c 1
EndSplineSet
EndChar
StartChar: mountain
Encoding: 77 61517
Width: 2048
Flags: H
Back
2048 -410 m 1
 0 -410 l 1
 0 542 l 1
 95 542 95 542 151 588 c 0
 177 609 177 609 216 671 c 0
 245 716 245 716 274 716 c 0
 303 716 303 716 357 700 c 128
 411 684 411 684 468 684 c 0
 530 684 530 684 642 832 c 1
 740 970 740 970 837 1107 c 1
 948 1256 948 1256 1004 1256 c 0
 1030 1256 1030 1256 1081.5 1221 c 128
 1133 1186 1133 1186 1163 1184 c 0
 1204 1180 1204 1180 1289 1196 c 0
 1379 1212 1379 1212 1389 1212 c 0
 1459 1212 1459 1212 1596 1039 c 1
 1717 878 1717 878 1838 716 c 1
 1977 542 1977 542 2048 542 c 1
 2048 -410 l 1
1268 1178 m 1
 1179 1161 1179 1161 1128 1178 c 0
 1106 1185 1106 1185 1071 1211 c 0
 1040 1234 1040 1234 1029 1234 c 0
 994 1234 994 1234 994 1204 c 0
 994 1176 994 1176 1016 1156 c 0
 1034 1140 1034 1140 1078 1140 c 0
 1150 1140 1150 1140 1268 1178 c 1
1757 796 m 1
 1714 851 1714 851 1620 976 c 1
 1544 1083 1544 1083 1453 1160 c 1
 1452 1144 1452 1144 1443 1132 c 0
 1422 1102 1422 1102 1369 1096 c 0
 1354 1095 1354 1095 1340 1095 c 0
 1310 1095 1310 1095 1269 1106.5 c 128
 1228 1118 1228 1118 1198 1118 c 0
 1163 1118 1163 1118 1114 1108.5 c 128
 1065 1099 1065 1099 1040 1099 c 0
 1020 1099 1020 1099 999 1102 c 0
 954 1110 954 1110 954 1159 c 0
 954 1186 954 1186 968 1219 c 1
 947 1204 947 1204 924 1180 c 0
 869 1123 869 1123 810 1031 c 0
 745 930 745 930 619 763 c 1
 731 880 731 880 820 879 c 0
 876 878 876 878 908 818 c 1
 929 762 929 762 949 706 c 1
 973 646 973 646 1009 645 c 0
 1073 643 1073 643 1086 706 c 0
 1108 824 l 1
 1137 888 1137 888 1240 888 c 0
 1280 888 1280 888 1363.5 836 c 128
 1447 784 1447 784 1483 785 c 0
 1504 786 1504 786 1504 810 c 0
 1504 822 1504 822 1496 856 c 128
 1488 890 1488 890 1488 904 c 0
 1488 939 1488 939 1522 939 c 0
 1559 939 1559 939 1623.5 826.5 c 128
 1688 714 1688 714 1730 714 c 0
 1764 714 1764 714 1764 756 c 0
 1764 774 1764 774 1757 796 c 1
470 666 m 1
 410 666 410 666 365 681 c 0
 310 699 310 699 275 699 c 1
 270 650 270 650 326 643 c 0
 375 637 375 637 470 666 c 1
EndSplineSet
EndChar
StartChar: sight
Encoding: 78 61518
Width: 2048
Flags: H
Back
1881 662 m 1
 1804 523 1804 523 1692 425 c 0
 1423 187 1423 187 1024 187 c 0
 625 187 625 187 355 425 c 0
 243 523 243 523 165 662 c 1
 243 801 243 801 355 900 c 0
 625 1138 625 1138 1024 1138 c 0
 1423 1138 1423 1138 1692 900 c 0
 1804 801 1804 801 1881 662 c 1
1718 662 m 1
 1669 748 1669 748 1599 816 c 0
 1431 978 1431 978 1185 1019 c 1
 1292 973 1292 973 1357 878 c 0
 1423 780 1423 780 1423 662 c 0
 1423 545 1423 545 1358.5 449 c 128
 1294 353 1294 353 1189 306 c 1
 1551 368 1551 368 1718 662 c 1
1340 662 m 0
 1340 790 1340 790 1247 881 c 128
 1154 972 1154 972 1023 972 c 0
 954 972 954 972 892 944 c 1
 859 1019 l 1
 496 957 496 957 328 662 c 1
 377 576 377 576 446 509 c 0
 613 348 613 348 856 306 c 1
 751 353 751 353 687 449 c 128
 623 545 623 545 623 662 c 0
 623 733 623 733 648 800 c 1
 728 775 l 1
 706 720 706 720 706 662 c 0
 706 533 706 533 799 442.5 c 128
 892 352 892 352 1023 352 c 0
 1154 352 1154 352 1247 442.5 c 128
 1340 533 1340 533 1340 662 c 0
1263 662 m 0
 1263 565 1263 565 1192.5 496 c 128
 1122 427 1122 427 1023 427 c 0
 923 427 923 427 853 496 c 128
 783 565 783 565 783 662 c 0
 783 705 783 705 798 745 c 1
 1043 634 l 1
 928 877 l 1
 973 897 973 897 1023 897 c 0
 1122 897 1122 897 1192.5 828 c 128
 1263 759 1263 759 1263 662 c 0
EndSplineSet
EndChar
StartChar: hearing
Encoding: 79 61519
Width: 2048
Flags: H
Back
1321 891 m 0
 1321 795 1321 795 1243 631 c 1
 1184 655 l 1
 1255 800 1255 800 1255 893 c 0
 1255 1022 1255 1022 1188 1112 c 0
 1112 1214 1112 1214 981 1214 c 0
 887 1214 887 1214 823.5 1145 c 128
 760 1076 760 1076 758 977 c 1
 1073 793 1073 793 1075 609 c 0
 1076 531 1076 531 1033 455 c 1
 949 319 l 1
 933 283 933 283 896 213 c 1
 861 157 861 157 802 157 c 0
 719 157 719 157 719 259 c 0
 719 286 719 286 738 330 c 128
 757 374 757 374 757 400 c 0
 757 423 757 423 740 463.5 c 128
 723 504 723 504 724 539 c 0
 728 631 728 631 816 627 c 0
 898 623 898 623 893 521 c 0
 890 465 890 465 823 424 c 1
 824 374 824 374 802 328 c 0
 784 290 784 290 782 266 c 0
 777 215 777 215 807 215 c 0
 842 215 842 215 859 255 c 1
 868 285 868 285 894 343 c 1
 974 467 l 1
 1014 537 1014 537 1011 608 c 0
 1007 748 1007 748 767 899 c 1
 797 782 797 782 917 686 c 1
 880 642 l 1
 692 765 692 765 692 967 c 0
 692 1103 692 1103 773.5 1189 c 128
 855 1275 855 1275 981 1275 c 0
 1153 1275 1153 1275 1242 1160 c 0
 1321 1059 1321 1059 1321 891 c 0
1473 915 m 0
 1475 734 1475 734 1369 571 c 1
 1260 426 1260 426 1151 280 c 1
 1116 228 1116 228 1083 136 c 0
 1038 15 1038 15 1025 -14 c 0
 952 -167 952 -167 766 -170 c 0
 573 -173 573 -173 573 99 c 0
 573 186 573 186 592 274 c 1
 653 274 l 1
 640 151 640 151 640 119 c 0
 640 -111 640 -111 772 -111 c 0
 891 -110 891 -110 953 -18 c 0
 977 17 977 17 1036 177 c 0
 1070 270 1070 270 1105 324 c 1
 1205 459 1205 459 1304 594 c 1
 1409 750 1409 750 1407 907 c 0
 1405 1127 1405 1127 1315 1236 c 0
 1213 1359 1213 1359 986 1361 c 0
 766 1362 766 1362 671 1186 c 0
 605 1064 605 1064 605 873 c 0
 605 803 605 803 614 744 c 1
 548 744 l 1
 538 808 538 808 538 884 c 0
 538 1092 538 1092 615 1226 c 0
 727 1421 727 1421 983 1421 c 0
 1247 1421 1247 1421 1365 1286 c 0
 1471 1164 1471 1164 1473 915 c 0
EndSplineSet
EndChar
StartChar: park
Encoding: 80 61520
Width: 2048
Flags: H
Back
2048 -410 m 1
 1485 -410 l 1
 1849 -195 1849 -195 1849 48 c 0
 1849 197 1849 197 1481 262 c 0
 1325 289 1325 289 797 325 c 0
 429 350 429 350 429 403 c 0
 429 489 429 489 849 542 c 1
 1251 542 l 1
 1251 702 l 1
 794 702 l 1
 1195 995 l 1
 943 995 l 1
 1251 1291 l 1
 1092 1291 l 1
 1345 1495 l 1
 1597 1291 l 1
 1438 1291 l 1
 1746 995 l 1
 1494 995 l 1
 1896 702 l 1
 1438 702 l 1
 1438 542 l 1
 2048 542 l 1
 2048 -410 l 1
1185 48 m 0
 1185 -116 1185 -116 719 -279 c 0
 524 -347 524 -347 252 -410 c 1
 0 -410 l 1
 0 542 l 1
 578 542 l 1
 158 506 158 506 158 393 c 0
 158 292 158 292 424 254 c 1
 672 227 672 227 919 199 c 1
 1185 157 1185 157 1185 48 c 0
EndSplineSet
EndChar
StartChar: camping
Encoding: 81 61521
Width: 2048
Flags: H
Back
2048 -410 m 1
 0 -410 l 1
 0 542 l 1
 387 542 l 1
 627 1042 l 1
 854 542 l 1
 1251 542 l 1
 1251 702 l 1
 794 702 l 1
 1195 995 l 1
 943 995 l 1
 1251 1291 l 1
 1092 1291 l 1
 1345 1495 l 1
 1597 1291 l 1
 1438 1291 l 1
 1746 995 l 1
 1494 995 l 1
 1896 702 l 1
 1438 702 l 1
 1438 542 l 1
 2048 542 l 1
 2048 -410 l 1
1071 0 m 1
 627 1001 l 1
 157 0 l 1
 455 0 l 1
 455 292 l 2
 455 356 455 356 493 410 c 0
 540 479 540 479 627 479 c 0
 713 479 713 479 761 410 c 0
 798 356 798 356 798 292 c 2
 798 0 l 1
 1071 0 l 1
EndSplineSet
EndChar
StartChar: railroad
Encoding: 82 61522
Width: 2048
Flags: H
Back
2048 -410 m 1
 0 -410 l 1
 0 542 l 1
 85 542 85 542 268.5 651.5 c 128
 452 761 452 761 535 761 c 0
 635 761 635 761 720 698 c 1
 786 640 786 640 852 581 c 1
 930 519 930 519 1015 519 c 0
 1114 519 1114 519 1271 593.5 c 128
 1428 668 1428 668 1551 668 c 0
 1621 668 1621 668 1776 605 c 128
 1931 542 1931 542 2048 542 c 1
 2048 -410 l 1
1950 -365 m 1
 1029 515 l 1
 1000 515 l 1
 80 -365 l 1
 1950 -365 l 1
1093 443 m 1
 1063 443 l 1
 1054 458 l 1
 1080 458 l 1
 1093 443 l 1
1146 381 m 1
 1104 381 l 1
 1083 414 l 1
 1126 414 l 1
 1146 393 l 1
 1146 381 l 1
1230 291 m 1
 1161 291 l 1
 1132 336 l 1
 1203 336 l 1
 1230 309 l 1
 1230 291 l 1
1383 128 m 1
 1268 128 l 1
 1214 212 l 1
 1332 212 l 1
 1383 165 l 1
 1383 128 l 1
1040 443 m 1
 987 443 l 1
 994 458 l 1
 1033 458 l 1
 1040 443 l 1
1068 381 m 1
 959 381 l 1
 975 414 l 1
 1053 414 l 1
 1068 381 l 1
1669 -206 m 1
 1480 -206 l 1
 1350 0 l 1
 1542 0 l 1
 1669 -124 l 1
 1669 -206 l 1
974 458 m 1
 965 443 l 1
 935 443 l 1
 947 458 l 1
 974 458 l 1
1499 -344 m 1
 1415 -344 l 1
 1021 492 l 1
 1029 492 l 1
 1499 -264 l 1
 1499 -344 l 1
1109 291 m 1
 919 291 l 1
 938 336 l 1
 1090 336 l 1
 1109 291 l 1
945 414 m 1
 924 381 l 1
 882 381 l 1
 882 393 l 1
 902 414 l 1
 945 414 l 1
1182 128 m 1
 846 128 l 1
 884 212 l 1
 1144 212 l 1
 1182 128 l 1
895 336 m 1
 866 291 l 1
 797 291 l 1
 797 309 l 1
 825 336 l 1
 895 336 l 1
1334 -206 m 1
 694 -206 l 1
 790 0 l 1
 1238 0 l 1
 1334 -206 l 1
814 212 m 1
 760 128 l 1
 645 128 l 1
 645 165 l 1
 696 212 l 1
 814 212 l 1
1007 492 m 1
 612 -344 l 1
 529 -344 l 1
 529 -264 l 1
 998 492 l 1
 1007 492 l 1
678 0 m 1
 547 -206 l 1
 359 -206 l 1
 359 -124 l 1
 486 0 l 1
 678 0 l 1
1117 404 m 0
 1114 408 1114 408 1108 408 c 0
 1099 408 1099 408 1101 404 c 0
 1104 401 1104 401 1111 401 c 0
 1119 401 1119 401 1117 404 c 0
1138 393 m 1
 1135 396 l 1
 1099 396 l 1
 1101 393 l 1
 1138 393 l 1
1188 324 m 0
 1185 329 1185 329 1175 329 c 0
 1163 329 1163 329 1165 324 c 0
 1168 319 1168 319 1179 319 c 0
 1191 319 1191 319 1188 324 c 0
1219 309 m 1
 1215 313 l 1
 1152 313 l 1
 1155 309 l 1
 1219 309 l 1
1311 192 m 0
 1306 200 1306 200 1288 200 c 0
 1267 200 1267 200 1271 192 c 0
 1275 183 1275 183 1294 183 c 0
 1316 183 1316 183 1311 192 c 0
1367 165 m 1
 1361 171 l 1
 1248 171 l 1
 1253 165 l 1
 1367 165 l 1
1547 -53 m 0
 1537 -34 1537 -34 1497 -34 c 0
 1451 -34 1451 -34 1460 -53 c 0
 1469 -72 1469 -72 1511 -72 c 0
 1558 -72 1558 -72 1547 -53 c 0
1640 -124 m 1
 1625 -109 l 1
 1433 -109 l 1
 1444 -124 l 1
 1640 -124 l 1
1057 393 m 1
 1054 396 l 1
 974 396 l 1
 971 393 l 1
 1057 393 l 1
1440 -265 m 1
 1028 487 l 1
 1415 -288 l 1
 1415 -265 l 1
 1440 -265 l 1
1094 309 m 1
 1092 313 l 1
 936 313 l 1
 934 309 l 1
 1094 309 l 1
923 404 m 1
 924 408 924 408 916 408 c 0
 909 408 909 408 906 404 c 0
 904 401 904 401 913 401 c 0
 920 401 920 401 923 404 c 1
929 396 m 1
 893 396 l 1
 890 393 l 1
 927 393 l 1
 929 396 l 1
1156 165 m 1
 1153 171 l 1
 874 171 l 1
 872 165 l 1
 1156 165 l 1
858 324 m 0
 860 329 860 329 848 329 c 0
 838 329 838 329 835 324 c 0
 832 319 832 319 845 319 c 0
 856 319 856 319 858 324 c 0
875 313 m 1
 813 313 l 1
 809 309 l 1
 872 309 l 1
 875 313 l 1
753 192 m 0
 757 200 757 200 736 200 c 0
 717 200 717 200 713 192 c 0
 708 183 708 183 729 183 c 0
 749 183 749 183 753 192 c 0
1276 -124 m 1
 1269 -109 l 1
 759 -109 l 1
 752 -124 l 1
 1276 -124 l 1
999 487 m 1
 588 -264 l 1
 612 -264 l 1
 612 -288 l 1
 999 487 l 1
779 171 m 1
 667 171 l 1
 660 165 l 1
 775 165 l 1
 779 171 l 1
563 -53 m 0
 572 -34 572 -34 526 -34 c 0
 487 -34 487 -34 476 -53 c 0
 465 -72 465 -72 512 -72 c 0
 554 -72 554 -72 563 -53 c 0
595 -109 m 1
 402 -109 l 1
 388 -124 l 1
 584 -124 l 1
 595 -109 l 1
EndSplineSet
EndChar
StartChar: stadium
Encoding: 83 61523
Width: 2048
Flags: H
Back
2048 1154 m 1
 1871 1154 l 1
 1871 1081 l 1
 1922 1039 1922 1039 1922 989 c 0
 1922 929 1922 929 1849 880 c 1
 1849 761 l 1
 1872 775 l 1
 1940 775 l 1
 1895 723 1895 723 1849 688 c 1
 1849 590 l 1
 1872 604 l 1
 1940 604 l 1
 1895 552 1895 552 1849 517 c 1
 1849 415 l 1
 1872 429 l 1
 1940 429 l 1
 1778 240 1778 240 1472 223 c 1
 1472 303 l 1
 1538 309 1538 309 1594 320 c 1
 1594 412 l 1
 1536 402 1536 402 1472 398 c 1
 1472 478 l 1
 1538 484 1538 484 1594 495 c 1
 1594 583 l 1
 1536 573 1536 573 1472 569 c 1
 1472 649 l 1
 1538 655 1538 655 1594 666 c 1
 1594 780 l 1
 1337 716 1337 716 1015 716 c 0
 722 716 722 716 439 780 c 1
 439 669 l 1
 506 655 506 655 572 649 c 1
 572 569 l 1
 501 573 501 573 439 585 c 1
 439 497 l 1
 498 485 498 485 572 478 c 1
 572 398 l 1
 501 402 501 402 439 414 c 1
 439 323 l 1
 506 309 506 309 572 303 c 1
 572 223 l 1
 266 240 266 240 104 429 c 1
 173 429 l 1
 184 422 l 1
 184 526 l 1
 143 559 143 559 104 604 c 1
 173 604 l 1
 184 597 l 1
 184 697 l 1
 143 730 143 730 104 775 c 1
 173 775 l 1
 184 768 l 1
 184 874 l 1
 108 924 108 924 108 989 c 0
 108 1034 108 1034 141 1072 c 1
 141 1251 l 1
 305 1169 l 1
 384 1197 384 1197 493 1217 c 1
 493 1390 l 1
 686 1294 l 1
 509 1294 l 1
 509 1220 l 1
 740 1261 740 1261 1011 1261 c 1
 1011 1433 l 1
 1205 1336 l 1
 1028 1336 l 1
 1028 1261 l 1
 1293 1260 1293 1260 1514 1215 c 1
 1514 1371 l 1
 1708 1274 l 1
 1531 1274 l 1
 1531 1212 l 1
 1755 1165 1755 1165 1855 1093 c 1
 1855 1251 l 1
 2048 1154 l 1
2048 -410 m 1
 1598 -410 l 1
 1283 70 l 1
 1349 78 1349 78 1401 105 c 0
 1459 137 1459 137 1460 175 c 1
 1595 175 1595 175 1764 254 c 0
 1948 340 1948 340 2002 450 c 1
 1895 450 l 1
 1895 542 l 1
 2048 542 l 1
 2048 -410 l 1
1423 164 m 2
 1423 146 1423 146 1405 140 c 1
 1354 88 1354 88 1295 88 c 0
 1264 88 1264 88 1223 108 c 0
 1175 132 1175 132 1176 159 c 1
 862 159 l 1
 842 97 842 97 727 97 c 0
 662 97 662 97 631 141 c 1
 615 148 615 148 615 164 c 2
 615 642 l 2
 615 657 615 657 642 657 c 1
 764 642 l 1
 888 629 888 629 1019 629 c 0
 1149 629 1149 629 1274 642 c 1
 1397 657 l 1
 1423 657 1423 657 1423 632 c 2
 1423 164 l 2
1529 -410 m 1
 507 -410 l 1
 849 124 l 1
 1192 124 l 1
 1529 -410 l 1
754 74 m 1
 446 -410 l 1
 0 -410 l 1
 0 542 l 1
 150 542 l 1
 150 450 l 1
 48 450 l 1
 80 348 80 348 257 260 c 0
 426 177 426 177 572 177 c 1
 596 74 596 74 754 74 c 1
1792 731 m 1
 1792 847 l 1
 1735 819 1735 819 1655 796 c 1
 1655 680 l 1
 1725 699 1725 699 1792 731 c 1
1588 1157 m 1
 1455 1186 1455 1186 1264 1202 c 1
 1173 908 l 1
 1324 903 1324 903 1426 885 c 1
 1588 1157 l 1
1792 560 m 1
 1792 651 l 1
 1732 618 1732 618 1655 597 c 1
 1655 509 l 1
 1725 528 1725 528 1792 560 c 1
1792 385 m 1
 1792 480 l 1
 1732 447 1732 447 1655 426 c 1
 1655 334 l 1
 1725 353 1725 353 1792 385 c 1
1215 1205 m 1
 1088 1214 1088 1214 1017 1214 c 0
 945 1214 945 1214 839 1207 c 1
 884 908 l 1
 1011 912 1011 912 1144 909 c 1
 1215 1205 l 1
1833 1014 m 0
 1833 1098 1833 1098 1633 1146 c 1
 1448 881 l 1
 1513 863 l 1
 1328 826 1328 826 1017 826 c 0
 765 826 765 826 576 860 c 1
 607 872 l 1
 414 1149 l 1
 200 1100 200 1100 200 1014 c 0
 200 893 200 893 556 835 c 0
 786 797 786 797 1017 797 c 0
 1241 797 1241 797 1477 836 c 0
 1833 896 1833 896 1833 1014 c 0
855 907 m 1
 781 1203 l 1
 593 1188 593 1188 459 1160 c 1
 628 878 l 1
 712 900 712 900 855 907 c 1
1399 631 m 1
 1397 632 l 1
 1276 617 l 1
 1155 604 1155 604 1019 604 c 0
 851 604 851 604 640 632 c 1
 640 164 l 1
 650 158 l 1
 673 122 673 122 727 122 c 0
 775 122 775 122 837 152 c 1
 837 392 l 2
 837 405 837 405 851 405 c 0
 880 405 880 405 936.5 401.5 c 128
 993 398 993 398 1022 398 c 0
 1050 398 1050 398 1104.5 401.5 c 128
 1159 405 1159 405 1187 405 c 0
 1201 405 1201 405 1201 392 c 2
 1201 152 l 1
 1210 149 l 1
 1248 113 1248 113 1295 113 c 0
 1343 113 1343 113 1398 164 c 1
 1399 631 l 1
270 1156 m 1
 157 1156 l 1
 157 1089 l 1
 198 1126 198 1126 270 1156 c 1
378 684 m 1
 378 795 l 1
 297 817 297 817 241 843 c 1
 241 737 l 1
 306 705 306 705 378 684 c 1
378 512 m 1
 378 600 l 1
 302 621 302 621 241 658 c 1
 241 566 l 1
 311 531 311 531 378 512 c 1
378 338 m 1
 378 429 l 1
 302 450 302 450 241 487 c 1
 241 391 l 1
 306 359 306 359 378 338 c 1
1673 948 m 1
 1623 964 l 1
 1661 1002 l 1
 1673 948 l 1
1404 1081 m 1
 1400 1044 l 1
 1340 1048 l 1
 1349 1090 l 1
 1404 1081 l 1
1058 1060 m 1
 985 1060 l 1
 985 1103 l 1
 1058 1103 l 1
 1058 1060 l 1
715 1048 m 1
 655 1044 l 1
 651 1081 l 1
 706 1090 l 1
 715 1048 l 1
1150 443 m 1
 889 443 l 1
 889 491 889 491 932 520 c 0
 969 544 969 544 1021 544 c 0
 1071 544 1071 544 1108 519 c 0
 1150 490 1150 490 1150 443 c 1
439 956 m 1
 388 948 l 1
 419 994 l 1
 439 956 l 1
EndSplineSet
EndChar
StartChar: ship
Encoding: 84 61524
Width: 2048
Flags: H
Back
1571 1104 m 1
 1433 1104 l 1
 1378 1144 l 1
 1524 1144 l 1
 1524 1291 l 1
 1571 1235 l 1
 1571 1104 l 1
1647 942 m 1
 1458 1084 l 1
 1590 1084 l 1
 1590 1240 l 1
 1521 1325 l 1
 1351 1340 l 1
 1368 1379 l 1
 1383 1401 1383 1401 1417 1401 c 0
 1466 1401 1466 1401 1505 1380 c 128
 1544 1359 1544 1359 1591 1308 c 1
 1647 1044 l 1
 1647 942 l 1
1279 1345 m 1
 1178 1353 1178 1353 1105.5 1357 c 128
 1033 1361 1033 1361 924 1359 c 1
 996 1544 l 1
 1016 1574 1016 1574 1074 1573 c 0
 1173 1570 1173 1570 1254 1500 c 1
 1279 1345 l 1
1740 683 m 1
 1622 721 1622 721 1534 760 c 0
 1470 789 1470 789 1368 844 c 1
 1368 1129 l 1
 1690 884 l 1
 1690 800 l 1
 1740 762 l 1
 1740 683 l 1
1504 1309 m 1
 1504 1164 l 1
 1346 1164 l 1
 1346 857 l 1
 1094 1013 1094 1013 992 1077 c 0
 788 1205 788 1205 521 1239 c 1
 521 1324 l 1
 806 1344 806 1344 992 1343 c 0
 1186 1341 1186 1341 1504 1309 c 1
1850 635 m 1
 1849 579 1849 579 1843 544 c 0
 1836 500 1836 500 1825 469 c 1
 1666 394 1666 394 1468 341 c 0
 1294 294 1294 294 1122 294 c 0
 864 294 864 294 816 290 c 0
 644 274 644 274 521 151 c 1
 480 746 l 1
 463 984 463 984 379 1231 c 1
 564 1239 564 1239 794 1150 c 0
 926 1099 926 1099 1126 972 c 0
 1365 819 1365 819 1450 776 c 0
 1637 682 1637 682 1850 635 c 1
459 689 m 1
 435 761 435 761 361 877 c 0
 276 1011 276 1011 265 1091 c 0
 264 1101 264 1101 264 1111 c 0
 264 1196 264 1196 346 1229 c 1
 406 1075 406 1075 432 906 c 0
 447 809 447 809 459 689 c 1
2048 -410 m 1
 0 -410 l 1
 0 542 l 1
 471 542 l 1
 485 265 l 1
 422 320 422 320 369 327 c 0
 326 332 326 332 281 311 c 1
 241 290 241 290 202 270 c 0
 178 258 178 258 161 260 c 0
 114 262 114 262 53 283 c 1
 53 252 l 1
 100 233 100 233 164 229 c 0
 189 228 189 228 258 267 c 0
 323 303 323 303 368 297 c 0
 447 287 447 287 493 204 c 1
 501 88 l 1
 647 249 647 249 817 264 c 0
 847 266 847 266 1004 225 c 0
 1169 182 1169 182 1270 184 c 0
 1360 187 1360 187 1521 219 c 1
 1521 248 l 1
 1364 213 1364 213 1265 213 c 0
 1154 213 1154 213 963 267 c 1
 1154 266 l 1
 1321 270 1321 270 1463 312 c 0
 1664 373 1664 373 1839 457 c 1
 1843 471 1843 471 1851 500 c 0
 1855 516 1855 516 1860 542 c 1
 2048 542 l 1
 2048 -410 l 1
1457 1192 m 1
 1457 1270 l 1
 1173 1270 l 1
 1173 1192 l 1
 1457 1192 l 1
1655 828 m 0
 1655 867 1655 867 1633 867 c 0
 1612 867 1612 867 1612 828 c 0
 1612 789 1612 789 1633 789 c 0
 1655 789 1655 789 1655 828 c 0
1562 887 m 0
 1562 929 1562 929 1539 929 c 0
 1516 929 1516 929 1516 887 c 0
 1516 844 1516 844 1539 844 c 0
 1562 844 1562 844 1562 887 c 0
1459 956 m 0
 1459 1003 1459 1003 1434 1003 c 0
 1409 1003 1409 1003 1409 956 c 0
 1409 909 1409 909 1434 909 c 0
 1459 909 1459 909 1459 956 c 0
1144 1192 m 1
 1144 1270 l 1
 854 1270 l 1
 854 1192 l 1
 1144 1192 l 1
832 1192 m 1
 832 1270 l 1
 559 1270 l 1
 559 1246 l 1
 593 1240 593 1240 656 1227 c 0
 693 1218 693 1218 773 1192 c 1
 832 1192 l 1
EndSplineSet
EndChar
StartChar: soundon
Encoding: 85 61525
Width: 2048
Flags: H
Back
2033 677 m 0
 2033 380 2033 380 1853 128 c 1
 1941 316 1941 316 1941 551 c 0
 1941 770 1941 770 1870 958 c 0
 1783 1186 1783 1186 1619 1271 c 1
 1819 1207 1819 1207 1928 1047 c 0
 2033 891 2033 891 2033 677 c 0
1850 644 m 0
 1850 406 1850 406 1706 205 c 1
 1776 355 1776 355 1776 543 c 0
 1776 718 1776 718 1719 868 c 0
 1650 1051 1650 1051 1518 1119 c 1
 1678 1068 1678 1068 1765 939 c 0
 1850 815 1850 815 1850 644 c 0
1685 610 m 0
 1685 419 1685 419 1569 258 c 1
 1626 379 1626 379 1626 529 c 0
 1626 669 1626 669 1580 789 c 0
 1525 935 1525 935 1420 990 c 1
 1547 949 1547 949 1616 847.5 c 128
 1685 746 1685 746 1685 610 c 0
1505 417 m 0
 1505 306 1505 306 1484 222 c 0
 1452 90 1452 90 1379 90 c 0
 1360 90 1360 90 1296 133 c 0
 1218 186 1218 186 998 221 c 0
 816 251 816 251 679 251 c 0
 641 251 641 251 641 190 c 0
 641 169 641 169 657 130.5 c 128
 673 92 673 92 673 70 c 0
 673 48 673 48 699 21 c 128
 725 -6 725 -6 725 -22 c 0
 725 -26 725 -26 722.5 -34 c 128
 720 -42 720 -42 720 -46 c 0
 720 -60 720 -60 743.5 -86 c 128
 767 -112 767 -112 767 -131 c 0
 767 -140 767 -140 759.5 -154 c 128
 752 -168 752 -168 752 -176 c 0
 752 -188 752 -188 764 -203.5 c 128
 776 -219 776 -219 776 -225 c 0
 776 -243 776 -243 728 -243 c 0
 623 -243 623 -243 580 -181 c 0
 553 -143 553 -143 529 -22 c 0
 482 204 482 204 369 204 c 0
 365 204 365 204 357 202.5 c 128
 349 201 349 201 345 201 c 0
 217 201 217 201 217 435 c 0
 217 569 217 569 348 628 c 1
 416 653 416 653 551 707 c 1
 693 767 693 767 862 891 c 0
 1020 1006 1020 1006 1085 1088 c 1
 1111 1226 1111 1226 1194 1226 c 0
 1292 1226 1292 1226 1383 1010 c 0
 1444 864 1444 864 1476 703 c 0
 1505 558 1505 558 1505 417 c 0
275 212 m 1
 167 219 167 219 122 240 c 0
 51 275 51 275 51 367 c 0
 51 458 51 458 108 502 c 0
 110 504 110 504 242 573 c 1
 195 520 195 520 195 411 c 0
 195 279 195 279 275 212 c 1
1249 484 m 0
 1249 590 1249 590 1213 683 c 0
 1173 787 1173 787 1103 829 c 1
 1141 473 1141 473 1220 295 c 1
 1249 383 1249 383 1249 484 c 0
1248 193 m 1
 1160 327 1160 327 1108 532 c 0
 1060 721 1060 721 1060 897 c 1
 1073 1011 l 1
 1006 924 1006 924 889 848 c 1
 783 785 783 785 678 721 c 0
 554 644 554 644 554 542 c 0
 554 453 554 453 586 388 c 0
 626 308 626 308 704 295 c 0
 709 294 709 294 814 290 c 0
 1063 280 1063 280 1248 193 c 1
200 254 m 1
 161 363 161 363 161 425 c 0
 161 468 161 468 172 498 c 1
 149 492 l 1
 137 446 137 446 137 394 c 0
 137 351 137 351 172 254 c 1
 200 254 l 1
145 260 m 1
 109 346 109 346 109 383 c 0
 109 420 109 420 117 475 c 1
 89 456 l 1
 82 416 82 416 82 381 c 0
 82 335 82 335 120 269 c 1
 145 260 l 1
EndSplineSet
EndChar
StartChar: soundoff
Encoding: 86 61526
Width: 2048
Flags: H
Back
1765 426 m 0
 1765 315 1765 315 1744 231 c 0
 1712 99 1712 99 1639 99 c 0
 1620 99 1620 99 1556 142 c 0
 1478 195 1478 195 1258 230 c 0
 1076 260 1076 260 939 260 c 0
 902 260 902 260 902 199 c 0
 902 178 902 178 918 139.5 c 128
 934 101 934 101 934 79 c 0
 934 57 934 57 959.5 30 c 128
 985 3 985 3 985 -13 c 0
 985 -17 985 -17 982.5 -25 c 128
 980 -33 980 -33 980 -37 c 0
 980 -51 980 -51 1003.5 -77 c 128
 1027 -103 1027 -103 1027 -122 c 0
 1027 -131 1027 -131 1019.5 -145 c 128
 1012 -159 1012 -159 1012 -167 c 0
 1012 -179 1012 -179 1024.5 -194.5 c 128
 1037 -210 1037 -210 1037 -216 c 0
 1037 -234 1037 -234 989 -234 c 0
 883 -234 883 -234 840 -172 c 0
 814 -134 814 -134 789 -13 c 0
 743 213 743 213 630 213 c 0
 625 213 625 213 617 211.5 c 128
 609 210 609 210 605 210 c 0
 477 210 477 210 477 444 c 0
 477 578 477 578 608 637 c 1
 676 662 676 662 811 716 c 1
 953 776 953 776 1122 900 c 0
 1281 1015 1281 1015 1345 1097 c 1
 1372 1235 1372 1235 1454 1235 c 0
 1552 1235 1552 1235 1643 1019 c 0
 1705 873 1705 873 1736 712 c 0
 1765 567 1765 567 1765 426 c 0
535 221 m 1
 427 228 427 228 382 249 c 0
 311 284 311 284 311 376 c 0
 311 467 311 467 369 511 c 0
 371 513 371 513 503 582 c 1
 455 529 455 529 455 420 c 0
 455 288 455 288 535 221 c 1
1510 493 m 0
 1510 599 1510 599 1474 692 c 0
 1433 796 1433 796 1363 838 c 1
 1402 482 1402 482 1481 304 c 1
 1510 392 1510 392 1510 493 c 0
1509 202 m 1
 1420 336 1420 336 1368 541 c 0
 1320 730 1320 730 1320 906 c 1
 1334 1020 l 1
 1266 933 1266 933 1149 857 c 1
 1044 794 1044 794 938 730 c 0
 814 653 814 653 814 551 c 0
 814 462 814 462 846 397 c 0
 886 317 886 317 964 304 c 0
 970 303 970 303 1075 299 c 0
 1323 289 1323 289 1509 202 c 1
460 263 m 1
 421 372 421 372 421 434 c 0
 421 477 421 477 432 507 c 1
 410 501 l 1
 397 455 397 455 397 403 c 0
 397 360 397 360 432 263 c 1
 460 263 l 1
405 269 m 1
 369 355 369 355 369 392 c 0
 369 429 369 429 377 484 c 1
 349 465 l 1
 342 425 342 425 342 390 c 0
 342 344 342 344 381 278 c 1
 405 269 l 1
EndSplineSet
EndChar
StartChar: soundleft
Encoding: 87 61527
Width: 1088
Flags: HW
Fore
900 341 m 1
 602 341 l 1
 132 -93 l 1
 132 1362 l 1
 603 927 l 1
 900 927 l 1
 900 341 l 1
EndSplineSet
Back
900 341 m 5
 602 341 l 5
 132 -93 l 5
 132 1362 l 5
 603 927 l 5
 900 927 l 5
 900 341 l 5
EndSplineSet
EndChar
StartChar: soundright
Encoding: 88 61528
Width: 1073
Flags: HW
Fore
900 -93 m 1
 430 341 l 1
 132 341 l 1
 132 927 l 1
 430 927 l 1
 900 1362 l 1
 900 -93 l 1
EndSplineSet
Back
900 -93 m 5
 430 341 l 5
 132 341 l 5
 132 927 l 5
 430 927 l 5
 900 1362 l 5
 900 -93 l 5
EndSplineSet
EndChar
StartChar: favorite
Encoding: 89 61529
Width: 2048
Flags: H
Back
1794 886 m 0
 1794 566 1794 566 1393 233 c 0
 1114 2 1114 2 701 -195 c 1
 716 -116 716 -116 716 -44 c 0
 716 142 716 142 598 294 c 1
 488 416 488 416 377 537 c 1
 259 685 259 685 259 861 c 0
 259 1034 259 1034 375.5 1145.5 c 128
 492 1257 492 1257 666 1257 c 0
 785 1257 785 1257 887 1195 c 0
 998 1127 998 1127 1028 1018 c 1
 1150 1257 1150 1257 1388 1257 c 0
 1548 1257 1548 1257 1668 1153 c 0
 1794 1044 1794 1044 1794 886 c 0
EndSplineSet
EndChar
StartChar: occasion
Encoding: 90 61530
Width: 2048
Flags: H
Back
1713 1246 m 1
 1682 1223 1682 1223 1654 1178 c 1
 1632 1139 1632 1139 1609 1100 c 1
 1509 944 1509 944 1400 944 c 0
 1300 944 1300 944 1297 1036 c 1
 1409 1138 1409 1138 1494 1147 c 1
 1394 1082 1394 1082 1348 1024 c 1
 1351 984 1351 984 1398 984 c 0
 1504 984 1504 984 1633 1221 c 1
 1604 1228 1604 1228 1572 1228 c 0
 1350 1228 1350 1228 1295 1067 c 1
 1291 1078 1291 1078 1291 1092 c 0
 1291 1177 1291 1177 1379 1226 c 0
 1452 1267 1452 1267 1544 1267 c 0
 1607 1267 1607 1267 1713 1246 c 1
1611 762 m 0
 1611 715 1611 715 1586 671 c 0
 1560 623 1560 623 1526 623 c 0
 1487 623 1487 623 1451 678 c 0
 1419 729 1419 729 1419 771 c 0
 1419 832 1419 832 1469 832 c 0
 1512 832 1512 832 1512 789 c 0
 1512 767 1512 767 1497 746 c 1
 1491 793 1491 793 1470 793 c 0
 1456 793 1456 793 1456 775 c 0
 1456 748 1456 748 1476 709 c 0
 1498 665 1498 665 1522 665 c 0
 1542 665 1542 665 1558 700 c 0
 1572 732 1572 732 1572 761 c 0
 1572 802 1572 802 1548 834.5 c 128
 1524 867 1524 867 1492 867 c 0
 1471 867 1471 867 1456 862 c 1
 1485 902 1485 902 1510 902 c 0
 1544 902 1544 902 1577.5 856.5 c 128
 1611 811 1611 811 1611 762 c 0
1181 1137 m 0
 1181 1117 1181 1117 1160 1086 c 1
 1160 1167 1160 1167 1061 1167 c 0
 1019 1167 1019 1167 985 1142 c 128
 951 1117 951 1117 951 1084 c 0
 951 1051 951 1051 1038 1051 c 0
 1091 1051 1091 1051 1091 1071 c 0
 1091 1088 1091 1088 1064 1088 c 0
 1053 1088 1053 1088 1037 1084 c 1
 1059 1116 1059 1116 1086 1116 c 0
 1130 1116 1130 1116 1130 1075 c 0
 1130 1012 1130 1012 1041 1012 c 0
 1000 1012 1000 1012 960 1028 c 0
 908 1048 908 1048 908 1083 c 0
 908 1130 908 1130 957 1168 c 128
 1006 1206 1006 1206 1061 1206 c 0
 1098 1206 1098 1206 1134 1191 c 0
 1181 1171 1181 1171 1181 1137 c 0
1510 590 m 1
 1495 573 l 1
 1418 589 1418 589 1342 604 c 1
 1262 623 1262 623 1219 699 c 0
 1201 731 1201 731 1201 764 c 0
 1201 836 1201 836 1270 882 c 0
 1331 922 1331 922 1406 922 c 0
 1422 922 1422 922 1431 921 c 1
 1381 890 1381 890 1381 803 c 0
 1381 707 1381 707 1510 590 c 1
1250 982 m 0
 1250 910 1250 910 1218 862 c 0
 1180 805 1180 805 1112 805 c 0
 1099 805 1099 805 1087 807 c 0
 1003 821 1003 821 956 891 c 1
 915 957 915 957 874 1024 c 1
 886 1043 l 1
 1000 985 1000 985 1071 985 c 0
 1120 985 1120 985 1165 1010 c 0
 1215 1038 1215 1038 1224 1083 c 1
 1250 1031 1250 1031 1250 982 c 0
1558 201 m 1
 1528 225 1528 225 1477 240 c 0
 1389 264 l 1
 1180 330 1180 330 1180 458 c 0
 1180 527 1180 527 1247 548 c 1
 1375 466 1375 466 1405 387 c 1
 1367 418 1367 418 1330 448 c 0
 1282 486 1282 486 1248 497 c 1
 1221 488 1221 488 1221 454 c 0
 1221 346 1221 346 1499 274 c 2
 1512 271 l 1
 1512 334 1512 334 1479 405.5 c 128
 1446 477 1446 477 1398.5 515 c 128
 1351 553 1351 553 1277 559 c 1
 1298 573 1298 573 1329 573 c 0
 1403 573 1403 573 1462 506 c 0
 1513 449 1513 449 1534 370 c 0
 1550 310 1550 310 1558 201 c 1
1158 678 m 0
 1158 643 1158 643 1107 623 c 0
 1067 608 1067 608 1026 608 c 0
 937 608 937 608 937 671 c 0
 937 713 937 713 981 713 c 0
 1008 713 1008 713 1029 680 c 1
 1013 684 1013 684 1002 684 c 0
 976 684 976 684 976 666 c 0
 976 646 976 646 1030 646 c 0
 1115 646 1115 646 1115 680 c 0
 1115 714 1115 714 1077.5 739 c 128
 1040 764 1040 764 1005 764 c 0
 908 764 908 764 906 682 c 1
 887 710 887 710 887 728 c 0
 887 761 887 761 923 781.5 c 128
 959 802 959 802 1006 802 c 0
 1058 802 1058 802 1106 766 c 0
 1158 727 1158 727 1158 678 c 0
1192 619 m 1
 1173 596 1173 596 1129 517 c 0
 1095 458 1095 458 1060 434 c 0
 1013 401 1013 401 955 401 c 0
 887 401 887 401 850 458 c 0
 817 507 817 507 817 578 c 0
 817 627 817 627 843 679 c 1
 852 634 852 634 902 606 c 0
 946 581 946 581 996 581 c 0
 1069 581 1069 581 1181 639 c 1
 1192 619 l 1
880 849 m 0
 880 839 880 839 878 831 c 1
 817 970 817 970 638 970 c 0
 569 970 569 970 528 955 c 1
 668 739 668 739 775 739 c 0
 830 739 830 739 829 784 c 1
 812 806 812 806 672 893 c 1
 759 892 759 892 879 800 c 1
 879 796 l 2
 879 752 879 752 847.5 725.5 c 128
 816 699 816 699 771 699 c 0
 669 699 669 699 563 837 c 1
 511 911 l 1
 479 953 479 953 446 973 c 1
 572 1010 572 1010 636 1010 c 0
 740 1010 740 1010 806 970 c 0
 880 925 880 925 880 849 c 0
848 387 m 1
 751 284 751 284 597 180 c 0
 437 73 437 73 310 30 c 1
 301 66 l 1
 416 103 416 103 576 211 c 0
 731 316 731 316 816 411 c 1
 848 387 l 1
928 314 m 1
 666 10 666 10 546 -206 c 1
 511 -192 l 1
 629 18 629 18 895 334 c 1
 928 314 l 1
906 368 m 1
 767 202 767 202 338 -153 c 1
 318 -120 l 1
 517 39 517 39 677 186 c 0
 817 315 817 315 874 390 c 1
 906 368 l 1
EndSplineSet
EndChar
StartChar: thoughtleft
Encoding: 91 61531
Width: 2048
Flags: H
Back
2014 1 m 0
 2014 -40 2014 -40 1956 -64 c 0
 1912 -82 1912 -82 1864 -82 c 0
 1815 -82 1815 -82 1771 -64 c 0
 1713 -40 1713 -40 1713 1 c 0
 1713 43 1713 43 1771 67 c 0
 1815 85 1815 85 1864 85 c 0
 1912 85 1912 85 1956 67 c 0
 2014 43 2014 43 2014 1 c 0
2003 840 m 0
 2003 751 2003 751 1957 701 c 1
 1991 673 1991 673 1991 632 c 0
 1991 534 1991 534 1864 491 c 1
 1873 470 1873 470 1873 450 c 0
 1873 409 1873 409 1844 383 c 128
 1815 357 1815 357 1776 361 c 1
 1866 310 1866 310 1866 222 c 0
 1866 145 1866 145 1796 96 c 0
 1733 51 1733 51 1653 51 c 0
 1573 51 1573 51 1510 95 c 0
 1440 144 1440 144 1440 221 c 1
 1411 188 1411 188 1362 188 c 0
 1281 188 1281 188 1276 226 c 1
 1255 159 1255 159 1182 159 c 0
 1110 159 1110 159 1059 218 c 1
 1048 161 1048 161 970 161 c 0
 892 161 892 161 868 220 c 1
 839 169 839 169 721 169 c 0
 659 169 659 169 630 261 c 1
 600 223 600 223 512 223 c 0
 423 223 423 223 412 341 c 1
 367 290 367 290 310 290 c 0
 275 290 275 290 248 326 c 0
 224 359 224 359 224 396 c 0
 224 422 224 422 235 446 c 1
 215 442 215 442 191 442 c 0
 120 442 120 442 120 478 c 0
 120 529 120 529 147 593 c 1
 100 591 100 591 70 620 c 128
 40 649 40 649 40 697 c 0
 40 783 40 783 142 802 c 1
 107 852 107 852 107 931 c 0
 107 968 107 968 137 995 c 128
 167 1022 167 1022 205 1022 c 0
 238 1022 238 1022 257 998 c 1
 255 1005 255 1005 255 1017 c 0
 255 1058 255 1058 280.5 1093 c 128
 306 1128 306 1128 346 1128 c 0
 391 1128 391 1128 437 1098 c 1
 436 1102 436 1102 436 1109 c 0
 436 1139 436 1139 456.5 1160 c 128
 477 1181 477 1181 506 1181 c 0
 538 1181 538 1181 581 1130 c 1
 583 1175 583 1175 614.5 1202 c 128
 646 1229 646 1229 691 1229 c 0
 799 1229 799 1229 807 1173 c 1
 847 1240 847 1240 933 1240 c 0
 1019 1240 1019 1240 1011 1186 c 1
 1115 1240 1115 1240 1180 1240 c 0
 1244 1240 1244 1240 1247 1173 c 1
 1330 1221 1330 1221 1397 1221 c 0
 1464 1221 1464 1221 1469 1132 c 1
 1509 1162 1509 1162 1630 1162 c 0
 1702 1162 1702 1162 1702 1112 c 0
 1702 1084 1702 1084 1684 1055 c 1
 1728 1071 1728 1071 1765 1071 c 0
 1815 1071 1815 1071 1847.5 1039.5 c 128
 1880 1008 1880 1008 1880 958 c 0
 1880 931 1880 931 1861 923 c 1
 1912 925 1912 925 1952 908 c 0
 2003 886 2003 886 2003 840 c 0
EndSplineSet
EndChar
StartChar: backslash
Encoding: 92 92
Width: 2048
Flags: HW
Fore
2048 -410 m 5
 1024 -410 l 5
 0 1638 l 5
 1024 1638 l 5
 2048 -410 l 5
EndSplineSet
Back
2048 -410 m 5
 1024 -410 l 5
 0 1638 l 5
 1024 1638 l 5
 2048 -410 l 5
EndSplineSet
EndChar
StartChar: thoughtright
Encoding: 93 61533
Width: 2048
Flags: H
Back
2008 697 m 0
 2008 649 2008 649 1978 620 c 128
 1948 591 1948 591 1901 593 c 1
 1928 529 1928 529 1928 478 c 0
 1928 442 1928 442 1857 442 c 0
 1833 442 1833 442 1813 446 c 1
 1824 422 1824 422 1824 396 c 0
 1824 359 1824 359 1800 326 c 0
 1773 290 1773 290 1737 290 c 0
 1681 290 1681 290 1636 341 c 1
 1625 223 1625 223 1536 223 c 0
 1448 223 1448 223 1418 261 c 1
 1389 169 1389 169 1327 169 c 0
 1209 169 1209 169 1180 220 c 1
 1156 161 1156 161 1078 161 c 0
 1000 161 1000 161 989 218 c 1
 938 159 938 159 866 159 c 0
 793 159 793 159 772 226 c 1
 767 188 767 188 686 188 c 0
 637 188 637 188 608 221 c 1
 608 144 608 144 538 95 c 0
 475 51 475 51 395 51 c 0
 315 51 315 51 252 96 c 0
 182 145 182 145 182 222 c 0
 182 310 182 310 272 361 c 1
 233 357 233 357 204 383 c 128
 175 409 175 409 175 450 c 0
 175 470 175 470 184 491 c 1
 57 534 57 534 57 632 c 0
 57 673 57 673 91 701 c 1
 45 751 45 751 45 840 c 0
 45 886 45 886 96 908 c 0
 136 925 136 925 187 923 c 1
 168 931 168 931 168 958 c 0
 168 1008 168 1008 200.5 1039.5 c 128
 233 1071 233 1071 283 1071 c 0
 320 1071 320 1071 364 1055 c 1
 346 1084 346 1084 346 1112 c 0
 346 1162 346 1162 418 1162 c 0
 538 1162 538 1162 579 1132 c 1
 584 1221 584 1221 651 1221 c 0
 718 1221 718 1221 801 1173 c 1
 804 1240 804 1240 868 1240 c 0
 933 1240 933 1240 1037 1186 c 1
 1029 1240 1029 1240 1115 1240 c 0
 1201 1240 1201 1240 1241 1173 c 1
 1249 1229 1249 1229 1357 1229 c 0
 1402 1229 1402 1229 1433.5 1202 c 128
 1465 1175 1465 1175 1467 1130 c 1
 1510 1181 1510 1181 1542 1181 c 0
 1571 1181 1571 1181 1591.5 1160 c 128
 1612 1139 1612 1139 1612 1109 c 0
 1612 1102 1612 1102 1611 1098 c 1
 1657 1128 1657 1128 1702 1128 c 0
 1742 1128 1742 1128 1767.5 1093 c 128
 1793 1058 1793 1058 1793 1017 c 0
 1793 1005 1793 1005 1791 998 c 1
 1810 1022 1810 1022 1843 1022 c 0
 1881 1022 1881 1022 1911 995 c 128
 1941 968 1941 968 1941 931 c 0
 1941 852 1941 852 1906 802 c 1
 2008 783 2008 783 2008 697 c 0
335 1 m 0
 335 -40 335 -40 277 -64 c 0
 233 -82 233 -82 184 -82 c 0
 136 -82 136 -82 92 -64 c 0
 34 -40 34 -40 34 1 c 0
 34 43 34 43 92 67 c 0
 136 85 136 85 184 85 c 0
 233 85 233 85 277 67 c 0
 335 43 335 43 335 1 c 0
EndSplineSet
EndChar
StartChar: chat
Encoding: 94 61534
Width: 2048
Flags: H
Back
2024 1048 m 0
 2024 838 2024 838 1812 704 c 1
 1807 669 1807 669 1807 639 c 0
 1807 550 1807 550 1861 489 c 0
 1867 482 1867 482 1974 393 c 1
 1797 389 1797 389 1699 456 c 0
 1625 506 1625 506 1580 614 c 1
 1509 600 1509 600 1436 600 c 0
 1355 600 1355 600 1265 625 c 1
 1230 756 1230 756 1116 862 c 0
 994 976 994 976 857 986 c 1
 848 1025 848 1025 848 1048 c 0
 848 1230 848 1230 1020 1351 c 0
 1189 1468 1189 1468 1436 1468 c 0
 1683 1468 1683 1468 1852 1351 c 0
 2024 1230 2024 1230 2024 1048 c 0
1225 563 m 0
 1225 378 1225 378 1052.5 247 c 128
 880 116 880 116 636 116 c 0
 518 116 518 116 411 150 c 1
 378 -53 378 -53 181 -53 c 0
 114 -53 114 -53 22 1 c 1
 105 10 105 10 157 71.5 c 128
 209 133 209 133 209 228 c 0
 209 242 209 242 208 257 c 1
 48 386 48 386 48 563 c 0
 48 747 48 747 220 872 c 0
 389 995 389 995 635 995 c 0
 880 995 880 995 1052.5 871 c 128
 1225 747 1225 747 1225 563 c 0
EndSplineSet
EndChar
StartChar: conference
Encoding: 95 61535
Width: 2048
Flags: H
Back
2024 1114 m 0
 2024 904 2024 904 1812 770 c 1
 1807 735 1807 735 1807 705 c 0
 1807 616 1807 616 1861 555 c 0
 1867 548 1867 548 1974 459 c 1
 1797 455 1797 455 1699 522 c 0
 1625 572 1625 572 1580 680 c 1
 1509 666 1509 666 1436 666 c 0
 1355 666 1355 666 1265 692 c 1
 1230 822 1230 822 1116 929 c 0
 994 1042 994 1042 857 1052 c 1
 848 1091 848 1091 848 1114 c 0
 848 1297 848 1297 1020 1417 c 0
 1189 1534 1189 1534 1436 1534 c 0
 1683 1534 1683 1534 1852 1417 c 0
 2024 1297 2024 1297 2024 1114 c 0
1856 233 m 0
 1856 107 1856 107 1710 9.5 c 128
 1564 -88 1564 -88 1338 -118 c 1
 1288 -261 1288 -261 1178 -318 c 0
 1085 -367 1085 -367 919 -367 c 1
 1093 -295 1093 -295 1093 -127 c 1
 872 -115 872 -115 707.5 -36 c 128
 543 43 543 43 496 156 c 1
 498 156 498 156 558.5 149 c 128
 619 142 619 142 672 142 c 0
 866 142 866 142 1013 231 c 0
 1235 367 1235 367 1265 592 c 1
 1488 592 1488 592 1649 517 c 0
 1856 421 1856 421 1856 233 c 0
1225 629 m 0
 1225 444 1225 444 1052.5 313 c 128
 880 182 880 182 636 182 c 0
 518 182 518 182 411 216 c 1
 378 13 378 13 181 13 c 0
 114 13 114 13 22 67 c 1
 105 76 105 76 157 137.5 c 128
 209 199 209 199 209 294 c 0
 209 309 209 309 208 323 c 1
 48 452 48 452 48 629 c 0
 48 813 48 813 220 938 c 0
 389 1061 389 1061 635 1061 c 0
 880 1061 880 1061 1052.5 937 c 128
 1225 813 1225 813 1225 629 c 0
EndSplineSet
EndChar
StartChar: loop
Encoding: 96 61536
Width: 2048
Flags: H
Back
1761 772 m 1
 1639 772 l 1
 1639 991 l 2
 1639 1048 1639 1048 1618 1070.5 c 128
 1597 1093 1597 1093 1540 1093 c 2
 1156 1093 l 1
 1156 955 l 1
 971 1140 l 1
 1156 1351 l 1
 1156 1216 l 1
 1580 1216 l 2
 1658 1216 1658 1216 1709.5 1164 c 128
 1761 1112 1761 1112 1761 1033 c 2
 1761 772 l 1
1903 570 m 1
 1768 570 l 1
 1768 213 l 2
 1768 134 1768 134 1716.5 82.5 c 128
 1665 31 1665 31 1586 31 c 2
 1095 31 l 1
 1095 153 l 1
 1543 153 l 2
 1600 153 1600 153 1623 174 c 128
 1646 195 1646 195 1646 253 c 2
 1646 570 l 1
 1507 570 l 1
 1692 755 l 1
 1903 570 l 1
949 1079 m 1
 501 1079 l 2
 443 1079 443 1079 419.5 1058 c 128
 396 1037 396 1037 396 979 c 2
 396 773 l 1
 537 773 l 1
 331 587 l 1
 139 773 l 1
 274 773 l 1
 274 1019 l 2
 274 1098 274 1098 326.5 1149.5 c 128
 379 1201 379 1201 458 1201 c 2
 949 1201 l 1
 949 1079 l 1
1065 87 m 1
 880 -105 l 1
 880 30 l 1
 456 30 l 2
 377 30 377 30 325.5 82 c 128
 274 134 274 134 274 213 c 2
 274 571 l 1
 396 571 l 1
 396 255 l 2
 396 198 396 198 417.5 175.5 c 128
 439 153 439 153 496 153 c 2
 880 153 l 1
 880 291 l 1
 1065 87 l 1
EndSplineSet
EndChar
StartChar: UIcheck
Encoding: 97 61537
Width: 2048
Flags: HW
Fore
1408 640 m 1
 832 64 l 1
 512 384 l 1
 512 768 l 1
 832 449 l 1
 1408 1024 l 1
 1408 640 l 1
EndSplineSet
Back
1408 640 m 5
 832 64 l 5
 512 384 l 5
 512 768 l 5
 832 449 l 5
 1408 1024 l 5
 1408 640 l 5
EndSplineSet
EndChar
StartChar: bicycle
Encoding: 98 61538
Width: 2048
Flags: H
Back
1778 311 m 0
 1778 182 1778 182 1687 91 c 128
 1596 0 1596 0 1468 0 c 0
 1339 0 1339 0 1248 91 c 128
 1157 182 1157 182 1157 311 c 0
 1157 404 1157 404 1207.5 480 c 128
 1258 556 1258 556 1340 593 c 1
 1316 655 l 1
 976 248 l 1
 886 257 l 1
 867 147 867 147 780.5 73.5 c 128
 694 0 694 0 580 0 c 0
 452 0 452 0 361 91 c 128
 270 182 270 182 270 311 c 0
 270 439 270 439 361 530 c 128
 452 621 452 621 581 621 c 0
 644 621 644 621 701 597 c 1
 776 763 l 1
 749 839 l 1
 754 841 l 1
 735 897 l 1
 702 897 702 897 681 903 c 0
 646 912 646 912 646 935 c 0
 646 978 646 978 676 978 c 0
 692 978 692 978 721 970.5 c 128
 750 963 750 963 762 963 c 0
 776 963 776 963 799 966 c 128
 822 969 822 969 828 969 c 0
 845 969 845 969 845 947 c 0
 845 940 845 940 812 922 c 128
 779 904 779 904 757 899 c 1
 776 848 l 1
 780 851 l 1
 800 796 l 1
 1266 796 l 1
 1227 903 l 1
 1227 938 l 1
 1407 938 l 1
 1407 903 l 1
 1261 903 l 1
 1369 605 l 1
 1417 621 1417 621 1468 621 c 0
 1597 621 1597 621 1687.5 530.5 c 128
 1778 440 1778 440 1778 311 c 0
1744 311 m 0
 1744 425 1744 425 1663 506 c 128
 1582 587 1582 587 1468 587 c 0
 1425 587 1425 587 1380 572 c 1
 1429 435 1429 435 1459 358 c 1
 1482 301 l 1
 1482 289 1482 289 1469 289 c 0
 1454 289 1454 289 1433 345 c 2
 1352 561 l 1
 1192 487 1192 487 1192 311 c 0
 1192 197 1192 197 1273 116 c 128
 1354 35 1354 35 1468 35 c 0
 1582 35 1582 35 1663 116 c 128
 1744 197 1744 197 1744 311 c 0
1305 690 m 1
 1278 763 l 1
 813 763 l 1
 981 303 l 1
 1305 690 l 1
951 286 m 1
 792 719 l 1
 731 582 l 1
 891 493 891 493 891 311 c 2
 891 291 l 1
 951 286 l 1
856 295 m 1
 856 311 l 2
 856 471 856 471 716 551 c 1
 612 318 l 1
 856 295 l 1
852 260 m 1
 560 287 l 1
 687 565 l 1
 634 587 634 587 581 587 c 0
 467 587 467 587 386 506 c 128
 305 425 305 425 305 311 c 0
 305 197 305 197 385.5 116 c 128
 466 35 466 35 580 35 c 0
 681 35 681 35 757.5 99 c 128
 834 163 834 163 852 260 c 1
EndSplineSet
EndChar
StartChar: boxopen
Encoding: 99 61539
Width: 2048
Flags: HW
Fore
2048 -410 m 5
 0 -410 l 5
 0 1638 l 5
 2048 1638 l 5
 2048 -410 l 5
1920 -282 m 5
 1920 1510 l 5
 128 1510 l 5
 128 -282 l 5
 1920 -282 l 5
EndSplineSet
Back
2048 -410 m 5
 0 -410 l 5
 0 1638 l 5
 2048 1638 l 5
 2048 -410 l 5
1920 -282 m 5
 1920 1510 l 5
 128 1510 l 5
 128 -282 l 5
 1920 -282 l 5
EndSplineSet
EndChar
StartChar: sheild
Encoding: 100 61540
Width: 2048
Flags: H
Back
1729 874 m 0
 1729 474 1729 474 1531 200 c 0
 1341 -63 1341 -63 1024 -138 c 1
 707 -63 707 -63 517 200 c 0
 319 474 319 474 319 874 c 0
 319 1020 319 1020 381 1153 c 0
 429 1257 429 1257 495 1319 c 1
 642 1228 642 1228 786 1228 c 0
 930 1228 930 1228 1024 1317 c 1
 1118 1228 1118 1228 1262 1228 c 0
 1406 1228 1406 1228 1553 1319 c 1
 1619 1257 1619 1257 1667 1153 c 0
 1729 1020 1729 1020 1729 874 c 0
EndSplineSet
EndChar
StartChar: package
Encoding: 101 61541
Width: 2048
Flags: H
Back
1215 1348 m 0
 1215 1291 1215 1291 1005 1194 c 1
 1005 1251 1005 1251 1038 1322 c 0
 1077 1406 1077 1406 1127 1406 c 0
 1150 1406 1150 1406 1181 1389 c 0
 1215 1369 1215 1369 1215 1348 c 0
1599 1125 m 1
 1157 1125 l 1
 1227 1142 1227 1142 1291 1195 c 0
 1306 1207 1306 1207 1361 1270 c 128
 1416 1333 1416 1333 1427 1350 c 1
 1363 1374 l 1
 1303 1234 1303 1234 1259 1202 c 0
 1148 1120 1148 1120 1016 1125 c 2
 1015 1125 l 2
 1078 1141 1078 1141 1167 1207 c 0
 1269 1281 1269 1281 1269 1332 c 0
 1269 1383 1269 1383 1225 1414 c 0
 1186 1441 1186 1441 1133 1441 c 0
 1060 1441 1060 1441 1017 1367 c 0
 983 1307 983 1307 979 1226 c 1
 960 1303 960 1303 918 1360 c 0
 865 1433 865 1433 799 1433 c 0
 695 1433 695 1433 695 1348 c 0
 695 1299 695 1299 812 1228 c 0
 972 1132 l 1
 864 1162 864 1162 653 1231 c 1
 584 1257 584 1257 532 1345 c 1
 484 1271 l 1
 581 1197 581 1197 720 1168 c 1
 848 1146 848 1146 975 1125 c 1
 409 1125 l 1
 484 1185 l 1
 563 1185 l 1
 523 1211 523 1211 442 1260 c 1
 516 1398 l 1
 564 1345 564 1345 611 1292 c 1
 665 1240 665 1240 736 1228 c 1
 665 1276 665 1276 665 1348 c 0
 665 1403 665 1403 706 1434 c 0
 742 1463 742 1463 799 1463 c 0
 916 1463 916 1463 973 1291 c 1
 1014 1471 1014 1471 1133 1471 c 0
 1199 1471 1199 1471 1247 1435 c 0
 1299 1396 1299 1396 1299 1332 c 0
 1299 1251 1299 1251 1152 1181 c 1
 1240 1191 1240 1191 1282 1262 c 0
 1287 1271 1287 1271 1342 1411 c 1
 1464 1358 l 1
 1311 1183 l 1
 1524 1183 l 1
 1599 1125 l 1
951 1195 m 1
 897 1218 897 1218 839 1267 c 0
 768 1326 768 1326 768 1368 c 0
 768 1409 768 1409 815 1409 c 0
 864 1409 864 1409 906 1325 c 0
 936 1266 936 1266 951 1195 c 1
1696 0 m 1
 1050 0 l 1
 1050 1029 l 1
 1040 1055 1040 1055 1029 1088 c 1
 1644 1088 l 1
 1696 1045 l 1
 1696 0 l 1
989 0 m 1
 284 0 l 1
 284 1029 l 1
 360 1088 l 1
 982 1088 l 1
 989 1039 l 1
 989 0 l 1
EndSplineSet
EndChar
StartChar: fire
Encoding: 102 61542
Width: 2048
Flags: H
Back
1721 1339 m 1
 1505 1233 l 1
 1703 1370 l 1
 1721 1339 l 1
1590 1464 m 1
 1455 1299 l 1
 1559 1482 l 1
 1590 1464 l 1
1738 1151 m 1
 1497 1168 l 1
 1738 1187 l 1
 1738 1151 l 1
1388 1495 m 1
 1371 1301 l 1
 1352 1495 l 1
 1388 1495 l 1
1459 1147 m 1
 1356 1147 l 1
 1370 1252 l 1
 1438 1252 l 1
 1459 1147 l 1
1661 755 m 1
 1545 652 l 1
 1545 683 l 1
 1629 755 l 1
 1582 755 l 1
 1582 1039 l 1
 1545 1039 l 1
 1545 1054 l 1
 1661 1054 l 1
 1661 755 l 1
1305 1173 m 1
 1219 1149 l 1
 1219 1173 l 1
 1305 1173 l 1
1305 1187 m 1
 1219 1187 l 1
 1219 1236 l 1
 829 1236 l 1
 829 1187 l 1
 742 1187 l 1
 742 1332 l 1
 829 1332 l 1
 829 1287 l 1
 1219 1287 l 1
 1219 1332 l 1
 1305 1332 l 1
 1305 1187 l 1
1202 1187 m 1
 845 1187 l 1
 845 1222 l 1
 1202 1222 l 1
 1202 1187 l 1
1202 1149 m 1
 845 1149 l 1
 845 1173 l 1
 1202 1173 l 1
 1202 1149 l 1
696 1495 m 1
 677 1301 l 1
 660 1495 l 1
 696 1495 l 1
829 1149 m 1
 742 1173 l 1
 829 1173 l 1
 829 1149 l 1
592 1299 m 1
 458 1464 l 1
 489 1482 l 1
 592 1299 l 1
691 1147 m 1
 588 1147 l 1
 609 1252 l 1
 677 1252 l 1
 691 1147 l 1
543 1233 m 1
 326 1339 l 1
 344 1370 l 1
 543 1233 l 1
550 1168 m 1
 310 1151 l 1
 310 1187 l 1
 550 1168 l 1
1561 202 m 1
 1532 202 l 1
 1532 158 l 1
 1484 158 l 1
 1484 0 l 1
 1304 0 l 1
 1304 104 l 1
 1250 105 1250 105 1242 158 c 1
 804 158 l 1
 797 105 797 105 743 104 c 1
 743 0 l 1
 563 0 l 1
 563 158 l 1
 515 158 l 1
 515 202 l 1
 486 202 l 1
 486 264 l 1
 515 264 l 1
 514 1066 l 1
 514 1090 514 1090 538 1112 c 0
 559 1133 559 1133 578 1133 c 2
 1468 1133 l 2
 1488 1133 1488 1133 1510 1111.5 c 128
 1532 1090 1532 1090 1532 1066 c 2
 1532 264 l 1
 1561 264 l 1
 1561 202 l 1
502 652 m 1
 386 755 l 1
 386 1054 l 1
 502 1054 l 1
 502 1039 l 1
 466 1039 l 1
 466 755 l 1
 419 755 l 1
 502 683 l 1
 502 652 l 1
1498 755 m 1
 1498 1054 l 1
 1056 1054 l 1
 1056 755 l 1
 1498 755 l 1
1503 285 m 1
 1503 399 l 1
 1343 399 l 1
 1343 285 l 1
 1503 285 l 1
991 755 m 1
 991 1054 l 1
 549 1054 l 1
 549 755 l 1
 991 755 l 1
1355 165 m 0
 1355 216 1355 216 1305 216 c 0
 1254 216 1254 216 1254 165 c 0
 1254 115 1254 115 1305 115 c 0
 1355 115 1355 115 1355 165 c 0
1304 361 m 1
 1304 399 l 1
 743 399 l 1
 743 361 l 1
 1304 361 l 1
1304 285 m 1
 1304 323 l 1
 743 323 l 1
 743 285 l 1
 1304 285 l 1
1550 210 m 1
 1550 251 l 1
 497 251 l 1
 497 210 l 1
 696 210 l 1
 715 230 715 230 742 230 c 0
 769 230 769 230 788 210 c 1
 1259 210 l 1
 1277 230 1277 230 1305 230 c 0
 1332 230 1332 230 1351 210 c 1
 1550 210 l 1
704 285 m 1
 704 399 l 1
 544 399 l 1
 544 285 l 1
 704 285 l 1
793 165 m 0
 793 216 793 216 742 216 c 0
 692 216 692 216 692 165 c 0
 692 115 692 115 742 115 c 0
 793 115 793 115 793 165 c 0
EndSplineSet
EndChar
StartChar: boxsolid
Encoding: 103 61543
Width: 2048
Flags: HW
Fore
2048 -410 m 5
 0 -410 l 5
 0 1638 l 5
 2048 1638 l 5
 2048 -410 l 5
EndSplineSet
Back
2048 -410 m 5
 0 -410 l 5
 0 1638 l 5
 2048 1638 l 5
 2048 -410 l 5
EndSplineSet
EndChar
StartChar: medical
Encoding: 104 61544
Width: 2048
Flags: H
Back
998 1244 m 1
 862 1244 l 1
 889 1369 l 1
 977 1369 l 1
 998 1244 l 1
1850 123 m 1
 1803 123 l 1
 1803 209 l 2
 1803 308 1803 308 1736 378.5 c 128
 1669 449 1669 449 1575 449 c 0
 1481 449 1481 449 1414.5 378.5 c 128
 1348 308 1348 308 1348 209 c 1
 1347 123 l 1
 726 123 l 1
 726 1221 l 1
 1850 1221 l 1
 1850 123 l 1
1766 198 m 0
 1766 116 1766 116 1710.5 58 c 128
 1655 0 1655 0 1578 0 c 0
 1500 0 1500 0 1445 58 c 128
 1390 116 1390 116 1390 198 c 0
 1390 280 1390 280 1445 338 c 128
 1500 396 1500 396 1578 396 c 0
 1655 396 1655 396 1710.5 338 c 128
 1766 280 1766 280 1766 198 c 0
691 329 m 1
 627 449 627 449 503 449 c 0
 409 449 409 449 342.5 378.5 c 128
 276 308 276 308 276 209 c 2
 276 123 l 1
 176 123 l 1
 176 651 l 2
 176 733 176 733 281 733 c 2
 320 733 l 1
 421 978 l 2
 442 1028 442 1028 496 1028 c 2
 691 1028 l 1
 691 329 l 1
691 198 m 0
 691 116 691 116 636 58 c 128
 581 0 581 0 503 0 c 0
 425 0 425 0 370 58 c 128
 315 116 315 116 315 198 c 0
 315 280 315 280 370 338 c 128
 425 396 425 396 503 396 c 0
 581 396 581 396 636 338 c 128
 691 280 691 280 691 198 c 0
1644 655 m 1
 1644 942 l 1
 1442 942 l 1
 1442 1144 l 1
 1155 1144 l 1
 1155 942 l 1
 952 942 l 1
 952 655 l 1
 1155 655 l 1
 1155 452 l 1
 1442 452 l 1
 1442 655 l 1
 1644 655 l 1
658 733 m 1
 658 975 l 1
 453 975 l 1
 361 733 l 1
 658 733 l 1
EndSplineSet
EndChar
StartChar: information
Encoding: 105 61545
Width: 2048
Flags: H
Fore
1025 1195 m 4
 1185 1195 1185 1195 1185 1035 c 4
 1185 875 1185 875 1025 875 c 4
 865 875 865 875 865 1035 c 4
 865 1195 865 1195 1025 1195 c 4
890 785 m 1
 1160 785 l 1
 1160 0 l 1
 890 0 l 1
 890 785 l 1
1023 -57 m 0
 1693 -57 1693 -57 1693 613 c 0
 1693 1283 1693 1283 1023 1283 c 0
 353 1283 353 1283 353 613 c 0
 353 -57 353 -57 1023 -57 c 0
1024.5 1429 m 0
 1842 1429 1842 1429 1842 611.5 c 0
 1842 -206 1842 -206 1024.5 -206 c 0
 207 -206 207 -206 207 611.5 c 0
 207 1429 207 1429 1024.5 1429 c 0
EndSplineSet
Back
1843 612 m 0
 1843 273 1843 273 1603 33.5 c 128
 1363 -206 1363 -206 1024 -206 c 0
 685 -206 685 -206 445 33.5 c 128
 205 273 205 273 205 612 c 0
 205 951 205 951 445 1191 c 128
 685 1431 685 1431 1024 1431 c 0
 1363 1431 1363 1431 1603 1191 c 128
 1843 951 1843 951 1843 612 c 0
1709 612 m 0
 1709 896 1709 896 1508.5 1097 c 128
 1308 1298 1308 1298 1024 1298 c 0
 740 1298 740 1298 539 1097 c 128
 338 896 338 896 338 612 c 0
 338 328 338 328 539 127.5 c 128
 740 -73 740 -73 1024 -73 c 0
 1308 -73 1308 -73 1508.5 127.5 c 128
 1709 328 1709 328 1709 612 c 0
1192 1034 m 0
 1192 969 1192 969 1142.5 923 c 128
 1093 877 1093 877 1024 877 c 0
 954 877 954 877 905 923 c 128
 856 969 856 969 856 1034 c 0
 856 1099 856 1099 905 1145 c 128
 954 1191 954 1191 1024 1191 c 0
 1093 1191 1093 1191 1142.5 1145 c 128
 1192 1099 1192 1099 1192 1034 c 0
1161 0 m 1
 886 0 l 1
 886 780 l 1
 1161 780 l 1
 1161 0 l 1
EndSplineSet
EndChar
StartChar: planesmall
Encoding: 106 61546
Width: 1951
VWidth: 1000
Flags: HW
Fore
863.801 1371.2 m 1
 925.301 1301.5 925.301 1301.5 1007.3 1155.95 c 0
 1097.5 1000.15 1097.5 1000.15 1146.7 938.65 c 0
 1224.6 842.3 1224.6 842.3 1366.05 819.75 c 1
 1597.7 807.45 l 1
 1718.65 795.15 1718.65 795.15 1759.65 717.25 c 1
 1724.8 643.45 1724.8 643.45 1610 625 c 0
 1575.15 618.851 1575.15 618.851 1423.45 618.851 c 0
 1284.05 618.851 1284.05 618.851 1230.75 586.05 c 0
 1171.3 549.15 1171.3 549.15 1044.2 342.101 c 0
 892.5 94.0498 892.5 94.0498 863.801 59.2002 c 1
 820.75 40.75 820.75 40.75 773.601 42.7998 c 2
 699.801 44.8506 l 1
 673.15 67.4004 l 1
 695.7 135.05 695.7 135.05 826.9 315.45 c 0
 937.601 467.15 937.601 467.15 937.601 579.9 c 1
 923.25 602.45 l 1
 816.65 637.3 816.65 637.3 515.301 655.75 c 1
 484.551 641.4 l 1
 462 577.851 462 577.851 414.851 471.25 c 1
 382.051 456.9 l 1
 293.9 465.101 l 1
 259.051 491.75 l 1
 281.601 553.25 281.601 553.25 306.2 659.851 c 1
 273.4 674.2 273.4 674.2 211.9 715.2 c 1
 226.25 729.55 226.25 729.55 259.051 743.9 c 1
 226.25 729.55 226.25 729.55 259.051 743.9 c 1
 226.25 729.55 226.25 729.55 259.051 743.9 c 1
 226.25 729.55 226.25 729.55 260.075 743.9 c 128
 293.9 758.25 293.9 758.25 306.2 770.55 c 1
 304.15 803.351 304.15 803.351 283.65 859.726 c 128
 263.15 916.101 263.15 916.101 259.051 940.7 c 1
 293.9 965.3 l 1
 382.051 973.5 l 1
 416.9 957.101 l 1
 439.45 893.55 439.45 893.55 486.601 786.95 c 1
 517.351 774.65 l 1
 617.801 774.65 617.801 774.65 738.75 791.05 c 0
 904.801 813.601 904.801 813.601 937.601 850.5 c 1
 937.601 965.3 937.601 965.3 824.851 1114.95 c 0
 695.7 1289.2 695.7 1289.2 673.15 1365.05 c 1
 681.351 1379.4 l 1
 705.95 1387.6 705.95 1387.6 744.9 1387.6 c 0
 814.601 1387.6 814.601 1387.6 863.801 1371.2 c 1
EndSplineSet
Back
1329 851 m 1
 1307 820 l 1
 1191 832 1191 832 1057 851 c 0
 1055 853 l 0
 1055 857 1055 857 1088 865 c 1
 1329 851 l 1
1914 517 m 1
 1853 458 1853 458 1830 459 c 0
 1776 462 1776 462 984 491 c 1
 947 478 947 478 912 468 c 0
 829 446 829 446 767 445 c 0
 588 443 588 443 504 493 c 1
 570 492 570 492 579 519 c 0
 582 526 582 526 582 533 c 0
 582 579 582 579 517 594 c 0
 455 608 455 608 435 567 c 0
 424 545 424 545 438 530 c 1
 426 536 426 536 413 565 c 1
 407 634 407 634 642 713 c 1
 731 832 731 832 829 827 c 0
 934 821 934 821 1089 798 c 0
 1215 779 1215 779 1283 781 c 0
 1311 782 1311 782 1462 1068 c 1
 1489 1069 1489 1069 1503 1066 c 0
 1514 1063 1514 1063 1532 1058 c 1
 1485 841 l 1
 1792 810 l 1
 1788 802 1788 802 1771 793 c 1
 1731 792 1731 792 1470 802 c 1
 1446 715 l 1
 1420 690 1420 690 1343 625 c 1
 1310 600 1310 600 1246 569 c 1
 1914 517 l 1
570 697 m 1
 543 688 543 688 487 662 c 1
 465 649 465 649 429 619 c 1
 316 684 316 684 137 783 c 0
 132 786 132 786 132 789 c 0
 132 803 132 803 263 810 c 1
 570 697 l 1
551 526 m 0
 551 499 551 499 472 499 c 0
 438 499 438 499 438 520 c 0
 438 573 438 573 503 570 c 0
 551 567 551 567 551 526 c 0
1055 668 m 1
 1034 757 l 1
 957 767 l 1
 993 659 l 1
 1055 668 l 1
966 654 m 1
 935 767 l 1
 923 647 l 1
 966 654 l 1
916 772 m 1
 840 797 840 797 785 797 c 0
 763 797 763 797 748 793 c 0
 716 784 716 784 661 712 c 1
 690 711 690 711 762 702 c 1
 827 689 827 689 901 654 c 1
 916 772 l 1
EndSplineSet
EndChar
StartChar: satellite
Encoding: 107 61547
Width: 2048
Flags: H
Back
1865 1008 m 1
 1649 644 l 1
 1133 697 l 1
 1280 863 l 1
 1865 1008 l 1
1428 1243 m 1
 1235 1001 l 1
 1037 963 l 1
 1154 1165 l 1
 1428 1243 l 1
930 794 m 2
 936 783 936 783 919 773 c 0
 899 762 899 762 893 772 c 2
 731 1053 l 1
 703 1052 703 1052 689 1076 c 0
 666 1115 666 1115 706 1138 c 0
 747 1162 747 1162 770 1123 c 0
 784 1098 784 1098 768 1075 c 1
 930 794 l 2
1195 902 m 0
 1195 861 1195 861 1133 797.5 c 128
 1071 734 1071 734 974 678 c 0
 818 588 818 588 714 588 c 0
 647 588 647 588 647 632 c 0
 647 721 647 721 846 843 c 1
 890 767 l 2
 898 754 898 754 920 767 c 0
 944 781 944 781 937 794 c 2
 893 870 l 1
 1040 955 1040 955 1128 946 c 1
 1195 946 1195 946 1195 902 c 0
1433 501 m 2
 1440 489 1440 489 1440 474 c 0
 1440 426 1440 426 1379.5 360 c 128
 1319 294 1319 294 1223 239 c 0
 1081 156 1081 156 976 157 c 0
 915 157 915 157 896 190 c 2
 808 339 l 1
 922 588 l 1
 683 535 l 1
 666 588 l 1
 677 569 677 569 718 569 c 0
 823 569 823 569 983 661 c 0
 1081 718 1081 718 1144 781.5 c 128
 1207 845 1207 845 1207 883 c 0
 1207 892 1207 892 1204 898 c 2
 1232 849 l 1
 1090 685 l 1
 1343 661 l 1
 1433 501 l 2
1509 243 m 0
 1514 234 1514 234 1514 223 c 0
 1514 139 1514 139 1341 39 c 0
 1223 -29 1223 -29 1138 -29 c 0
 1092 -29 1092 -29 1078 -5 c 0
 1071 8 1071 8 1071 37 c 0
 1071 87 1071 87 1094 157 c 1
 1141 176 1141 176 1231 218 c 1
 1311 265 1311 265 1363 313 c 1
 1422 296 l 1
 1494 268 1494 268 1509 243 c 0
689 763 m 1
 571 603 l 1
 166 493 l 1
 425 735 l 1
 689 763 l 1
881 551 m 1
 664 75 l 1
 202 56 l 1
 663 503 l 1
 881 551 l 1
1119 932 m 0
 1064 932 1064 932 985 898 c 1
 1040 915 1040 915 1083 915 c 0
 1146 915 1146 915 1146 884 c 0
 1146 850 1146 850 1083 782 c 1
 1176 864 1176 864 1176 902 c 0
 1176 932 1176 932 1119 932 c 0
1417 487 m 2
 1323 650 l 1
 1290 651 l 1
 1407 443 l 1
 1428 468 1428 468 1417 487 c 2
922 793 m 1
 758 1074 l 1
 773 1098 773 1098 768 1110 c 0
 753 1141 753 1141 726 1136 c 1
 739 1132 739 1132 754 1107 c 1
 756 1095 756 1095 741 1077 c 1
 915 782 l 1
 922 793 l 1
1361 296 m 1
 1459 215 1459 215 1459 212 c 0
 1459 185 1459 185 1400 126 c 0
 1349 75 1349 75 1233 12 c 1
 1265 23 1265 23 1333 56 c 1
 1391 90 1391 90 1443.5 143.5 c 128
 1496 197 1496 197 1496 224 c 0
 1496 271 1496 271 1361 296 c 1
EndSplineSet
EndChar
StartChar: navigate
Encoding: 108 61548
Width: 1608
VWidth: 1000
Flags: HW
Fore
801.398 675.851 m 1
 1258.55 815.25 l 1
 918.25 815.25 l 1
 801.398 675.851 l 1
791.148 675.851 m 1
 791.148 1171.95 l 1
 662 827.551 l 1
 791.148 675.851 l 1
586.148 600 m 1
 762.449 663.551 l 1
 293 805 l 1
 586.148 600 l 1
813.699 651.25 m 1
 1131.45 247.4 l 1
 990 600 l 1
 813.699 651.25 l 1
791.148 651.25 m 1
 485.699 247.4 l 1
 791.148 460.601 l 1
 791.148 651.25 l 1
1043.3 587.7 m 1
 1219.6 124.4 l 1
 791.148 423.7 l 1
 381.148 124.4 l 1
 534.898 587.7 l 1
 165.898 856.25 l 1
 625.1 856.25 l 1
 791.148 1313.4 l 1
 938.75 856.25 l 1
 1397.95 856.25 l 1
 1043.3 587.7 l 1
EndSplineSet
Back
1901 611 m 1
 1196 445 l 1
 1020 -265 l 1
 854 441 l 1
 144 616 l 1
 850 782 l 1
 1025 1493 l 1
 1191 786 l 1
 1901 611 l 1
1152 778 m 1
 1030 1319 l 1
 1030 653 l 1
 1152 778 l 1
1735 609 m 1
 1070 609 l 1
 1194 486 l 1
 1735 609 l 1
976 618 m 1
 851 741 l 1
 310 618 l 1
 976 618 l 1
1016 -92 m 1
 1016 574 l 1
 893 449 l 1
 1016 -92 l 1
EndSplineSet
EndChar
StartChar: jump
Encoding: 109 61549
Width: 2048
Flags: H
Back
674 1391 m 1
 457 1391 l 1
 457 1414 l 1
 476 1416 476 1416 501 1439 c 1
 507 1463 507 1463 503 1492 c 1
 628 1492 l 1
 632 1478 632 1478 628 1453 c 0
 624 1428 624 1428 674 1412 c 1
 674 1391 l 1
651 1359 m 1
 646 1319 646 1319 619 1319 c 0
 602 1319 602 1319 587.5 1333.5 c 128
 573 1348 573 1348 567 1348 c 0
 560 1348 560 1348 548.5 1333 c 128
 537 1318 537 1318 524 1319 c 0
 500 1321 500 1321 482 1359 c 1
 513 1378 513 1378 572 1378 c 0
 635 1378 635 1378 651 1359 c 1
844 1180 m 1
 782 715 l 1
 733 731 l 1
 668 229 l 1
 473 229 l 1
 394 731 l 1
 343 715 l 1
 300 1180 l 1
 505 1238 l 1
 476 1194 l 1
 540 1014 l 1
 563 1209 l 1
 544 1238 l 1
 604 1238 l 1
 585 1209 l 1
 601 1014 l 1
 671 1194 l 1
 641 1241 l 1
 844 1180 l 1
667 182 m 1
 680 26 680 26 619 26 c 0
 581 26 581 26 575 110 c 1
 568 26 568 26 525 26 c 0
 470 26 470 26 483 183 c 1
 497 182 l 1
 489 138 489 138 525 136 c 0
 552 135 552 135 558 159 c 0
 560 169 560 169 557 183 c 1
 573 182 l 1
 574 179 574 179 575 168 c 1
 575 177 575 177 576 183 c 1
 589 182 l 1
 583 138 583 138 619 136 c 0
 646 135 646 135 651 159 c 0
 654 169 654 169 651 183 c 1
 667 182 l 1
820 -221 m 0
 820 -254 820 -254 748.5 -273.5 c 128
 677 -293 677 -293 571 -293 c 0
 465 -293 465 -293 395 -274 c 0
 322 -254 322 -254 322 -221 c 0
 322 -188 322 -188 395 -164 c 128
 468 -140 468 -140 571 -140 c 0
 674 -140 674 -140 747 -164 c 128
 820 -188 820 -188 820 -221 c 0
EndSplineSet
EndChar
StartChar: circlesolid
Encoding: 110 9679
Width: 2048
Flags: H
Fore
1024 1640 m 4
 2048 1640 2048 1640 2048 615 c 4
 2048 -410 2048 -410 1024 -410 c 4
 0 -410 0 -410 0 615 c 4
 0 1640 0 1640 1024 1640 c 4
EndSplineSet
Back
2048 613 m 0
 2048 189 2048 189 1749 -110.5 c 128
 1450 -410 1450 -410 1026 -410 c 0
 602 -410 602 -410 301 -110.5 c 128
 0 189 0 189 0 613 c 0
 0 1037 0 1037 301 1337.5 c 128
 602 1638 602 1638 1026 1638 c 0
 1450 1638 1450 1638 1749 1337.5 c 128
 2048 1037 2048 1037 2048 613 c 0
EndSplineSet
EndChar
StartChar: boat
Encoding: 111 61551
Width: 2048
Flags: H
Back
1896 213 m 1
 1831 142 1831 142 1698 0 c 1
 154 0 l 1
 154 96 l 1
 256 96 l 1
 336 186 l 1
 592 186 l 1
 592 270 l 1
 686 270 l 1
 728 303 728 303 728 341 c 0
 728 380 728 380 689 420 c 1
 688 446 l 1
 1062 446 l 1
 992 606 l 1
 1013 606 l 1
 1083 446 l 1
 1096 444 l 1
 1260 280 l 1
 1583 280 l 1
 1642 188 l 1
 1794 206 1794 206 1882 223 c 1
 1896 213 l 1
1163 340 m 1
 1106 397 l 1
 896 397 l 1
 897 340 l 1
 1163 340 l 1
EndSplineSet
EndChar
StartChar: police
Encoding: 112 61552
Width: 2048
Flags: H
Back
1757 1259 m 1
 1503 1135 l 1
 1736 1296 l 1
 1757 1259 l 1
1514 1396 m 1
 1357 1162 l 1
 1478 1417 l 1
 1514 1396 l 1
1796 1021 m 1
 1514 1041 l 1
 1796 1063 l 1
 1796 1021 l 1
1247 1439 m 1
 1227 1158 l 1
 1205 1439 l 1
 1247 1439 l 1
1761 628 m 1
 1675 572 l 1
 1633 695 l 1
 1761 695 l 1
 1761 628 l 1
944 1439 m 1
 922 1158 l 1
 902 1439 l 1
 944 1439 l 1
1479 982 m 1
 665 982 l 1
 665 1094 l 1
 1479 1094 l 1
 1479 982 l 1
792 1162 m 1
 635 1396 l 1
 671 1417 l 1
 792 1162 l 1
646 1135 m 1
 392 1259 l 1
 413 1296 l 1
 646 1135 l 1
1701 236 m 1
 1667 236 l 1
 1667 185 l 1
 1611 185 l 1
 1611 0 l 1
 1400 0 l 1
 1400 122 l 1
 1337 123 1337 123 1328 185 c 1
 816 185 l 1
 807 123 807 123 745 122 c 1
 745 0 l 1
 534 0 l 1
 534 185 l 1
 477 185 l 1
 477 236 l 1
 443 236 l 1
 443 308 l 1
 477 308 l 1
 477 494 l 2
 477 593 477 593 632 918 c 1
 808 949 808 949 1072 949 c 0
 1336 949 1336 949 1513 918 c 1
 1667 593 1667 593 1667 494 c 2
 1667 308 l 1
 1701 308 l 1
 1701 236 l 1
635 1041 m 1
 353 1021 l 1
 353 1063 l 1
 635 1041 l 1
512 695 m 1
 470 572 l 1
 384 628 l 1
 384 695 l 1
 512 695 l 1
1460 1002 m 1
 1460 1077 l 1
 1206 1077 l 1
 1206 1002 l 1
 1460 1002 l 1
1633 334 m 1
 1633 466 l 1
 1446 466 l 1
 1446 334 l 1
 1633 334 l 1
939 1002 m 1
 939 1077 l 1
 685 1077 l 1
 685 1002 l 1
 939 1002 l 1
1597 617 m 1
 1585 659 1585 659 1552 751 c 1
 1530 802 1530 802 1482 887 c 1
 1342 907 1342 907 1072 907 c 0
 803 907 803 907 663 887 c 1
 640 846 640 846 593 751 c 1
 572 704 572 704 547 617 c 1
 788 628 788 628 1072 628 c 0
 1357 628 1357 628 1597 617 c 1
1460 194 m 0
 1460 253 1460 253 1401 253 c 0
 1342 253 1342 253 1342 194 c 0
 1342 135 1342 135 1401 135 c 0
 1460 135 1460 135 1460 194 c 0
1400 422 m 1
 1400 466 l 1
 745 466 l 1
 745 422 l 1
 1400 422 l 1
1400 334 m 1
 1400 377 l 1
 745 377 l 1
 745 334 l 1
 1400 334 l 1
1688 246 m 1
 1688 293 l 1
 456 293 l 1
 456 246 l 1
 690 246 l 1
 711 269 711 269 743 269 c 0
 775 269 775 269 797 246 c 1
 1348 246 l 1
 1369 269 1369 269 1401 269 c 0
 1433 269 1433 269 1455 246 c 1
 1688 246 l 1
699 334 m 1
 699 466 l 1
 512 466 l 1
 512 334 l 1
 699 334 l 1
802 194 m 0
 802 253 802 253 743 253 c 0
 684 253 684 253 684 194 c 0
 684 135 684 135 743 135 c 0
 802 135 802 135 802 194 c 0
EndSplineSet
EndChar
StartChar: UIrefresh
Encoding: 113 61553
Width: 2048
Flags: HW
Fore
1165.78 996.825 m 1
 819.825 650.875 l 1
 819.825 834.025 l 1
 677.375 834.025 l 1
 677.375 352.225 l 1
 514.575 515.025 l 1
 351.775 352.225 l 1
 351.775 643.175 l 2
 351.775 744.375 351.775 744.375 369.101 786.45 c 128
 386.811 829.462 386.811 829.462 457.375 900.025 c 2
 632.275 1074.92 l 2
 683.426 1126.08 683.426 1126.08 717.25 1142.85 c 128
 751.075 1159.62 751.075 1159.62 803.325 1159.62 c 2
 819.825 1159.62 l 1
 821.5 1423.15 l 1
 1165.78 996.825 l 1
622.926 480.925 m 1
 622.926 834.025 l 1
 579.476 834.025 l 2
 483.226 834.025 483.226 834.025 444.45 800.75 c 128
 405.676 767.475 405.676 767.475 405.676 685.525 c 2
 405.676 480.925 l 1
 514.575 589.825 l 1
 622.926 480.925 l 1
1386.17 1025.53 m 1
 1386.17 672.425 l 1
 1429.62 672.425 l 2
 1525.88 672.425 1525.88 672.425 1564.65 705.7 c 128
 1603.42 738.976 1603.42 738.976 1603.42 820.925 c 2
 1603.42 1025.53 l 1
 1494.53 916.625 l 1
 1386.17 1025.53 l 1
843.325 509.625 m 1
 1189.28 855.575 l 1
 1189.28 672.425 l 1
 1331.73 672.425 l 1
 1331.73 1154.23 l 1
 1494.53 991.425 l 1
 1657.33 1154.23 l 1
 1657.33 863.275 l 2
 1657.33 762.075 1657.33 762.075 1640 720 c 128
 1622.29 676.988 1622.29 676.988 1551.73 606.425 c 2
 1376.83 431.525 l 2
 1325.72 380.424 1325.72 380.424 1291.85 363.601 c 128
 1258.03 346.825 1258.03 346.825 1205.78 346.825 c 2
 1189.28 346.825 l 1
 1189.28 163.675 l 1
 843.325 509.625 l 1
EndSplineSet
Back
1654 728 m 0
 1654 567 1654 567 1588 424 c 0
 1518 275 1518 275 1392 183 c 1
 1503 96 l 1
 1146 0 l 1
 1179 355 l 1
 1279 276 l 1
 1434 413 1434 413 1434 657 c 0
 1434 970 1434 970 1136 1146 c 1
 1262 1391 l 1
 1446 1302 1446 1302 1552 1116 c 0
 1654 938 1654 938 1654 728 c 0
890 245 m 1
 764 0 l 1
 581 89 581 89 475 275 c 0
 372 453 372 453 372 663 c 0
 372 824 372 824 439 967 c 0
 509 1116 509 1116 634 1208 c 1
 523 1296 l 1
 880 1391 l 1
 847 1036 l 1
 747 1115 l 1
 592 978 592 978 592 734 c 0
 592 421 592 421 890 245 c 1
EndSplineSet
EndChar
StartChar: UIclose
Encoding: 114 61554
Width: 1266
VWidth: 1000
Flags: HW
Fore
204.85 211.4 m 1
 165.9 260.6 l 1
 444.7 592.7 l 1
 258.15 949.4 258.15 949.4 258.15 1008.85 c 0
 258.15 1039.6 258.15 1039.6 293 1072.4 c 1
 313.5 1080.6 l 1
 334 1072.4 334 1072.4 350.4 1060.1 c 1
 356.549 1060.1 l 1
 389.35 1125.7 389.35 1125.7 432.4 1125.7 c 1
 637.4 820.25 l 1
 957.2 1189.25 957.2 1189.25 1012.55 1189.25 c 0
 1053.55 1189.25 1053.55 1189.25 1082.25 1148.25 c 1
 1082.25 1109.3 l 1
 1154 1084.7 1154 1084.7 1154 1037.55 c 1
 785 605 l 1
 1018.7 336.45 l 1
 1026.9 311.85 l 1
 1026.9 283.15 1026.9 283.15 1004.35 245.225 c 128
 981.8 207.3 981.8 207.3 955.15 205.25 c 1
 949 223.7 l 1
 946.95 135.55 946.95 135.55 891.6 135.55 c 1
 871.1 149.9 871.1 149.9 854.7 172.45 c 1
 803.45 117.1 l 1
 785 108.9 l 1
 748.1 115.05 748.1 115.05 586.15 348.75 c 1
 342.2 35.0996 l 1
 315.549 20.75 l 1
 290.95 41.25 290.95 41.25 280.7 84.2998 c 1
 229.45 84.2998 l 1
 192.549 123.25 192.549 123.25 176.15 172.45 c 1
 204.85 211.4 l 1
EndSplineSet
Back
1702 -96 m 1
 1510 -96 l 1
 1030 378 l 1
 556 -96 l 1
 358 -96 l 1
 358 96 l 1
 832 576 l 1
 358 1050 l 1
 358 1248 l 1
 556 1248 l 1
 1030 774 l 1
 1510 1248 l 1
 1702 1248 l 1
 1702 1050 l 1
 1228 576 l 1
 1702 102 l 1
 1702 -96 l 1
EndSplineSet
EndChar
StartChar: UIhelp
Encoding: 115 61555
Width: 2048
Flags: H
Back
1600 1094 m 0
 1600 902 1600 902 1351 751 c 0
 1216 669 1216 669 1216 535 c 2
 1216 326 l 1
 832 326 l 1
 832 518 l 2
 832 629 832 629 893.5 730.5 c 128
 955 832 955 832 1054 877 c 0
 1216 951 1216 951 1216 1094 c 0
 1216 1175 1216 1175 1160.5 1230.5 c 128
 1105 1286 1105 1286 1024 1286 c 0
 943 1286 943 1286 887.5 1230.5 c 128
 832 1175 832 1175 832 1094 c 2
 832 980 l 1
 448 980 l 1
 448 1094 l 2
 448 1277 448 1277 654 1387 c 0
 824 1478 824 1478 1024 1478 c 0
 1225 1478 1225 1478 1395 1387 c 0
 1600 1278 1600 1278 1600 1094 c 0
1216 -58 m 0
 1216 -139 1216 -139 1160.5 -194.5 c 128
 1105 -250 1105 -250 1024 -250 c 0
 943 -250 943 -250 887.5 -194.5 c 128
 832 -139 832 -139 832 -58 c 0
 832 23 832 23 887.5 78.5 c 128
 943 134 943 134 1024 134 c 0
 1105 134 1105 134 1160.5 78.5 c 128
 1216 23 1216 23 1216 -58 c 0
EndSplineSet
EndChar
StartChar: train
Encoding: 116 61556
Width: 2048
Flags: H
Back
2048 -410 m 1
 0 -410 l 1
 0 542 l 1
 297 542 l 1
 302 961 302 961 443 1108 c 0
 513 1181 513 1181 588 1183 c 1
 618 1230 618 1230 680 1224 c 0
 731 1220 731 1220 788 1179 c 1
 768 1177 768 1177 742 1156 c 1
 747 1146 l 1
 783 1176 783 1176 831 1176 c 0
 872 1176 872 1176 914 1150 c 2
 1068 1056 l 1
 1111 1070 1111 1070 1161 1070 c 0
 1257 1070 1257 1070 1326 1013 c 2
 1907 542 l 1
 2048 542 l 1
 2048 -410 l 1
1520 782 m 1
 1520 816 l 1
 1435 890 l 1
 1435 838 l 1
 1520 782 l 1
1420 846 m 1
 1420 900 l 1
 1323 985 l 1
 1286 932 l 1
 1420 846 l 1
1307 997 m 1
 1242 1055 1242 1055 1168 1055 c 0
 1143 1055 1143 1055 1098 1041 c 1
 1264 941 l 1
 1307 997 l 1
1875 533 m 1
 1527 425 l 1
 1527 364 l 1
 1875 533 l 1
1816 562 m 1
 1816 568 l 1
 1629 627 l 1
 1627 683 1627 683 1612 733 c 1
 1534 783 l 1
 1534 774 l 1
 1606 729 l 1
 1613 709 1613 709 1621 631 c 1
 974 843 l 2
 939 854 939 854 896 854 c 0
 855 854 855 854 819 845 c 1
 816 810 l 1
 855 823 855 823 901 823 c 0
 940 823 940 823 977 812 c 2
 1621 620 l 1
 1621 582 1621 582 1619 531 c 1
 964 531 l 2
 891 531 891 531 817 505 c 1
 818 468 l 1
 847 483 847 483 967 500 c 1
 1625 522 l 1
 1630 575 1630 575 1630 617 c 1
 1816 562 l 1
690 1157 m 0
 690 1212 690 1212 643 1212 c 0
 596 1212 596 1212 596 1157 c 0
 596 1102 596 1102 643 1102 c 0
 690 1102 690 1102 690 1157 c 0
1508 357 m 1
 1508 422 l 1
 1080 302 l 2
 1010 282 1010 282 979 113 c 1
 1508 357 l 1
793 937 m 0
 793 967 793 967 771 971 c 0
 709 982 709 982 610 983 c 1
 597 933 597 933 579 820 c 1
 558 598 558 598 564 424 c 0
 565 390 565 390 606 390 c 0
 719 390 719 390 751 393 c 0
 777 396 777 396 778 427 c 1
 775 512 775 512 775 718 c 0
 775 769 775 769 784 849 c 128
 793 929 793 929 793 937 c 0
524 983 m 1
 384 976 l 1
 368 928 368 928 339 818 c 1
 304 660 304 660 321 403 c 1
 357 400 357 400 429 396 c 0
 446 396 446 396 457.5 403.5 c 128
 469 411 469 411 469 424 c 0
 466 664 466 664 491 823 c 0
 501 884 501 884 524 983 c 1
947 235 m 1
 869 228 869 228 678 217 c 1
 614 215 614 215 501 222 c 1
 478 63 l 1
 606 60 606 60 695 66 c 0
 801 74 801 74 911 94 c 1
 947 235 l 1
722 270 m 1
 716 313 716 313 710 357 c 1
 694 363 694 363 622 361 c 0
 516 358 516 358 501 358 c 0
 469 359 469 359 398 366 c 0
 359 370 359 370 353 362 c 0
 345 351 345 351 346 275 c 1
 388 269 388 269 484 260 c 1
 570 256 570 256 722 270 c 1
449 226 m 1
 425 226 425 226 371 232 c 0
 351 235 351 235 315 244 c 1
 235 106 l 1
 255 95 255 95 303 76 c 1
 337 66 337 66 401 65 c 1
 449 226 l 1
825 59 m 1
 656 43 l 1
 131 -232 l 1
 131 -284 l 1
 246 -283 l 1
 825 59 l 1
301 59 m 1
 234 85 l 1
 131 53 l 1
 131 -11 l 1
 301 59 l 1
774 882 m 1
 771 861 l 1
 599 873 l 1
 602 896 l 1
 774 882 l 1
765 770 m 1
 762 749 l 1
 590 758 l 1
 593 780 l 1
 765 770 l 1
497 901 m 1
 493 877 l 1
 365 874 l 1
 369 895 l 1
 497 901 l 1
758 653 m 1
 755 632 l 1
 582 635 l 1
 585 657 l 1
 758 653 l 1
756 511 m 1
 584 511 l 1
 584 532 l 1
 756 532 l 1
 756 511 l 1
473 788 m 1
 472 765 l 1
 341 763 l 1
 342 784 l 1
 473 788 l 1
465 664 m 1
 464 642 l 1
 331 643 l 1
 332 664 l 1
 465 664 l 1
459 518 m 1
 329 523 l 1
 329 544 l 1
 459 539 l 1
 459 518 l 1
777 43 m 1
 234 -274 l 1
 176 -274 l 1
 736 40 l 1
 777 43 l 1
269 56 m 1
 141 5 l 1
 144 24 l 1
 246 65 l 1
 269 56 l 1
EndSplineSet
EndChar
StartChar: metro
Encoding: 117 61557
Width: 2048
Flags: H
Back
2048 -410 m 1
 0 -410 l 1
 0 542 l 1
 208 542 l 1
 205 577 205 577 205 612 c 0
 205 951 205 951 445 1191 c 128
 685 1431 685 1431 1024 1431 c 0
 1363 1431 1363 1431 1603 1191 c 128
 1843 951 1843 951 1843 612 c 0
 1843 577 1843 577 1840 542 c 1
 2048 542 l 1
 2048 -410 l 1
1709 612 m 0
 1709 896 1709 896 1508.5 1097 c 128
 1308 1298 1308 1298 1024 1298 c 0
 740 1298 740 1298 539 1097 c 128
 338 896 338 896 338 612 c 0
 338 328 338 328 539 127.5 c 128
 740 -73 740 -73 1024 -73 c 0
 1308 -73 1308 -73 1508.5 127.5 c 128
 1709 328 1709 328 1709 612 c 0
1620 436 m 1
 1560 243 1560 243 1396 116 c 0
 1228 -15 1228 -15 1024 -15 c 0
 820 -15 820 -15 651 116 c 0
 488 243 488 243 428 436 c 1
 788 436 l 1
 788 508 l 1
 690 508 l 1
 690 1017 l 2
 690 1096 690 1096 772 1152 c 0
 865 1216 865 1216 1024 1216 c 0
 1182 1216 1182 1216 1275 1152 c 0
 1357 1096 1357 1096 1357 1017 c 2
 1357 508 l 1
 1259 508 l 1
 1259 436 l 1
 1620 436 l 1
1322 813 m 1
 1322 1016 l 1
 1043 1016 l 1
 1043 813 l 1
 1322 813 l 1
1324 582 m 0
 1324 624 1324 624 1281 624 c 0
 1239 624 1239 624 1239 582 c 0
 1239 539 1239 539 1281 539 c 0
 1324 539 1324 539 1324 582 c 0
1005 813 m 1
 1005 1016 l 1
 725 1016 l 1
 725 813 l 1
 1005 813 l 1
1202 436 m 1
 1202 508 l 1
 845 508 l 1
 845 436 l 1
 1202 436 l 1
809 582 m 0
 809 624 809 624 766 624 c 0
 723 624 723 624 723 582 c 0
 723 539 723 539 766 539 c 0
 809 539 809 539 809 582 c 0
EndSplineSet
EndChar
StartChar: bus
Encoding: 118 61558
Width: 2048
Flags: H
Back
1601 185 m 1
 1545 185 l 1
 1545 0 l 1
 1332 0 l 1
 1332 185 l 1
 714 185 l 1
 714 0 l 1
 503 0 l 1
 503 185 l 1
 447 185 l 1
 447 1062 l 2
 447 1183 447 1183 589 1238 c 0
 727 1292 727 1292 1024 1292 c 0
 1321 1292 1321 1292 1459 1238 c 0
 1601 1183 1601 1183 1601 1062 c 2
 1601 185 l 1
1540 712 m 1
 1540 1062 l 1
 1057 1062 l 1
 1057 712 l 1
 1540 712 l 1
1543 312 m 0
 1543 343 1543 343 1521.5 364.5 c 128
 1500 386 1500 386 1469 386 c 0
 1439 386 1439 386 1417 364.5 c 128
 1395 343 1395 343 1395 312 c 0
 1395 282 1395 282 1417 260.5 c 128
 1439 239 1439 239 1469 239 c 0
 1500 239 1500 239 1521.5 260.5 c 128
 1543 282 1543 282 1543 312 c 0
991 712 m 1
 991 1062 l 1
 508 1062 l 1
 508 712 l 1
 991 712 l 1
1332 333 m 1
 1332 377 l 1
 714 377 l 1
 714 333 l 1
 1332 333 l 1
1332 244 m 1
 1332 288 l 1
 714 288 l 1
 714 244 l 1
 1332 244 l 1
653 312 m 0
 653 343 653 343 631.5 364.5 c 128
 610 386 610 386 579 386 c 0
 548 386 548 386 526.5 364.5 c 128
 505 343 505 343 505 312 c 0
 505 282 505 282 526.5 260.5 c 128
 548 239 548 239 579 239 c 0
 610 239 610 239 631.5 260.5 c 128
 653 282 653 282 653 312 c 0
EndSplineSet
EndChar
StartChar: flag
Encoding: 119 61559
Width: 2048
Flags: H
Back
1344 1270 m 1
 894 945 l 1
 1025 55 l 1
 1011 35 1011 35 994 35 c 0
 978 35 978 35 974 63 c 1
 794 1383 l 1
 789 1422 789 1422 814 1422 c 0
 827 1422 827 1422 846 1270 c 1
 1026 1267 1026 1267 1344 1270 c 1
1308 15 m 0
 1308 -49 1308 -49 1190 -82 c 0
 1106 -106 1106 -106 1019 -106 c 0
 932 -106 932 -106 848 -82 c 0
 731 -49 731 -49 731 15 c 0
 731 64 731 64 805 100 c 0
 867 129 867 129 923 129 c 0
 931 129 931 129 951.5 64.5 c 128
 972 0 972 0 1010 0 c 0
 1033 0 1033 0 1040 66.5 c 128
 1047 133 1047 133 1061 133 c 0
 1122 133 1122 133 1206 102 c 0
 1308 64 1308 64 1308 15 c 0
1248 1234 m 1
 853 1234 l 1
 888 989 l 1
 1024 1091 1024 1091 1248 1234 c 1
EndSplineSet
EndChar
StartChar: not
Encoding: 120 61560
Width: 2048
Flags: H
Back
1843 612 m 0
 1843 273 1843 273 1603 33 c 128
 1363 -207 1363 -207 1024 -207 c 0
 685 -207 685 -207 445 33 c 128
 205 273 205 273 205 612 c 0
 205 951 205 951 445 1191 c 128
 685 1431 685 1431 1024 1431 c 0
 1363 1431 1363 1431 1603 1191 c 128
 1843 951 1843 951 1843 612 c 0
1712 612 m 0
 1712 897 1712 897 1510.5 1098.5 c 128
 1309 1300 1309 1300 1024 1300 c 0
 769 1300 769 1300 576 1135 c 1
 1546 165 l 1
 1712 358 1712 358 1712 612 c 0
1449 72 m 1
 483 1038 l 1
 336 851 336 851 336 612 c 0
 336 327 336 327 537.5 125.5 c 128
 739 -76 739 -76 1024 -76 c 0
 1262 -76 1262 -76 1449 72 c 1
EndSplineSet
EndChar
StartChar: noentry
Encoding: 121 61561
Width: 2048
Flags: H
Back
1024 -207 m 0
 685 -207 685 -207 445 33 c 128
 205 273 205 273 205 612 c 0
 205 952 205 952 444.5 1191.5 c 128
 684 1431 684 1431 1024 1431 c 0
 1363 1431 1363 1431 1603 1191 c 128
 1843 951 1843 951 1843 612 c 0
 1843 273 1843 273 1603 33 c 128
 1363 -207 1363 -207 1024 -207 c 0
1710 665 m 1
 1690 919 1690 919 1510 1099 c 0
 1309 1300 1309 1300 1024 1300 c 0
 739 1300 739 1300 537 1099 c 0
 357 919 357 919 338 665 c 1
 1710 665 l 1
1707 531 m 1
 341 531 l 1
 369 295 369 295 537 126 c 0
 739 -76 739 -76 1024 -76 c 0
 1309 -76 1309 -76 1510 126 c 1
 1679 294 1679 294 1707 531 c 1
EndSplineSet
EndChar
StartChar: nosmoking
Encoding: 122 61562
Width: 2048
Flags: H
Back
1843 612 m 0
 1843 273 1843 273 1603 33 c 128
 1363 -207 1363 -207 1024 -207 c 0
 685 -207 685 -207 445 33 c 128
 205 273 205 273 205 612 c 0
 205 951 205 951 445 1191 c 128
 685 1431 685 1431 1024 1431 c 0
 1363 1431 1363 1431 1603 1191 c 128
 1843 951 1843 951 1843 612 c 0
1712 612 m 0
 1712 897 1712 897 1510.5 1098.5 c 128
 1309 1300 1309 1300 1024 1300 c 0
 769 1300 769 1300 576 1135 c 1
 909 802 l 1
 1147 821 1147 821 1167 936 c 0
 1169 949 1169 949 1169 962 c 0
 1169 1098 1169 1098 938 1117 c 1
 974 1122 974 1122 1015 1122 c 0
 1263 1122 1263 1122 1263 958 c 0
 1263 931 1263 931 1256 901 c 0
 1221 752 1221 752 993 718 c 1
 1191 520 l 1
 1550 520 l 1
 1550 367 l 1
 1344 367 l 1
 1546 165 l 1
 1712 358 1712 358 1712 612 c 0
1449 72 m 1
 1154 367 l 1
 625 367 l 1
 625 520 l 1
 1001 520 l 1
 817 704 l 1
 677 698 677 698 631 690 c 0
 546 675 546 675 526 635 c 0
 521 625 521 625 521 613 c 0
 521 589 521 589 538 561 c 1
 488 599 488 599 488 658 c 0
 488 672 488 672 492 686 c 0
 512 776 512 776 730 791 c 1
 483 1038 l 1
 336 851 336 851 336 612 c 0
 336 327 336 327 537.5 125.5 c 128
 739 -76 739 -76 1024 -76 c 0
 1262 -76 1262 -76 1449 72 c 1
600 367 m 1
 550 367 l 1
 550 520 l 1
 600 520 l 1
 600 367 l 1
527 367 m 1
 480 367 l 1
 480 520 l 1
 527 520 l 1
 527 367 l 1
EndSplineSet
EndChar
StartChar: shoutleft
Encoding: 123 61563
Width: 2048
Flags: H
Back
2045 813 m 1
 1892 593 l 1
 2040 395 l 1
 1750 330 l 1
 2008 -59 l 1
 1364 220 l 1
 1168 62 l 1
 1133 220 l 1
 886 54 l 1
 841 239 l 1
 602 70 l 1
 565 269 l 1
 213 191 l 1
 291 419 l 1
 4 387 l 1
 149 609 l 1
 4 765 l 1
 280 910 l 1
 55 1205 l 1
 388 1183 l 1
 398 1497 l 1
 715 1323 l 1
 881 1476 l 1
 1117 1296 l 1
 1249 1489 l 1
 1402 1280 l 1
 1793 1360 l 1
 1694 1071 l 1
 1989 1148 l 1
 1855 923 l 1
 2045 813 l 1
EndSplineSet
EndChar
StartChar: bar
Encoding: 124 124
Width: 2048
Flags: HW
Fore
1088 -410 m 5
 960 -410 l 5
 960 1637 l 5
 1088 1637 l 5
 1088 -410 l 5
EndSplineSet
Back
1088 -410 m 5
 960 -410 l 5
 960 1637 l 5
 1088 1637 l 5
 1088 -410 l 5
EndSplineSet
EndChar
StartChar: shoutright
Encoding: 125 61565
Width: 2048
Flags: H
Back
2045 387 m 1
 1758 419 l 1
 1836 191 l 1
 1485 269 l 1
 1447 70 l 1
 1208 239 l 1
 1163 54 l 1
 916 220 l 1
 881 62 l 1
 685 220 l 1
 42 -59 l 1
 299 330 l 1
 9 395 l 1
 157 593 l 1
 4 813 l 1
 194 923 l 1
 60 1148 l 1
 355 1071 l 1
 256 1360 l 1
 648 1280 l 1
 801 1489 l 1
 932 1296 l 1
 1168 1476 l 1
 1334 1323 l 1
 1651 1497 l 1
 1662 1183 l 1
 1994 1205 l 1
 1769 910 l 1
 2045 765 l 1
 1900 609 l 1
 2045 387 l 1
EndSplineSet
EndChar
StartChar: lightningbolt
Encoding: 126 61566
Width: 2048
Flags: HW
Fore
1886 1479 m 5
 1129 94 l 5
 920 492 l 5
 163 -230 l 5
 933 1103 l 5
 1144 757 l 5
 1886 1479 l 5
EndSplineSet
Back
1886 1479 m 5
 1129 94 l 5
 920 492 l 5
 163 -230 l 5
 933 1103 l 5
 1144 757 l 5
 1886 1479 l 5
EndSplineSet
EndChar
StartChar: man
Encoding: 128 61568
Width: 2048
Flags: H
Back
1138 1331 m 0
 1138 1273 1138 1273 1104 1227 c 128
 1070 1181 1070 1181 1023 1181 c 0
 976 1181 976 1181 942 1227 c 128
 908 1273 908 1273 908 1331 c 0
 908 1388 908 1388 941.5 1428.5 c 128
 975 1469 975 1469 1023 1469 c 0
 1070 1469 1070 1469 1104 1428.5 c 128
 1138 1388 1138 1388 1138 1331 c 0
1303 504 m 2
 1303 435 1303 435 1250 435 c 0
 1197 435 1197 435 1197 504 c 2
 1197 969 l 1
 1171 969 l 1
 1171 -151 l 2
 1171 -220 1171 -220 1106 -220 c 0
 1041 -220 1041 -220 1041 -151 c 2
 1041 512 l 1
 1007 512 l 1
 1007 -151 l 2
 1007 -220 1007 -220 942 -220 c 0
 877 -220 877 -220 877 -151 c 2
 877 969 l 1
 851 969 l 1
 851 504 l 2
 851 435 851 435 798 435 c 0
 745 435 745 435 745 504 c 2
 745 1037 l 2
 745 1167 745 1167 890 1167 c 2
 1159 1167 l 2
 1303 1167 1303 1167 1303 1037 c 2
 1303 504 l 2
EndSplineSet
EndChar
StartChar: woman
Encoding: 129 61569
Width: 2048
Flags: H
Back
1139 1317 m 0
 1139 1260 1139 1260 1105.5 1219.5 c 128
 1072 1179 1072 1179 1025 1179 c 0
 977 1179 977 1179 943.5 1219.5 c 128
 910 1260 910 1260 910 1317 c 0
 910 1374 910 1374 943.5 1414.5 c 128
 977 1455 977 1455 1025 1455 c 0
 1072 1455 1072 1455 1105.5 1414.5 c 128
 1139 1374 1139 1374 1139 1317 c 0
1305 349 m 1
 1173 349 l 1
 1173 -130 l 2
 1173 -199 1173 -199 1107 -199 c 0
 1042 -199 1042 -199 1042 -130 c 2
 1042 349 l 1
 1009 349 l 1
 1009 -130 l 2
 1009 -199 1009 -199 943 -199 c 0
 879 -199 879 -199 879 -130 c 2
 879 349 l 1
 743 349 l 1
 878 692 l 1
 878 1019 l 1
 853 1019 l 1
 853 713 l 2
 853 645 853 645 800 645 c 0
 746 645 746 645 746 713 c 2
 746 1019 l 2
 746 1166 746 1166 890 1166 c 2
 1159 1166 l 2
 1303 1166 1303 1166 1303 1019 c 2
 1303 713 l 2
 1303 645 1303 645 1252 645 c 0
 1199 645 1199 645 1199 713 c 2
 1199 1019 l 1
 1173 1019 l 1
 1173 692 l 1
 1305 349 l 1
EndSplineSet
EndChar
StartChar: boy
Encoding: 130 61570
Width: 2048
Flags: H
Back
1115 1186 m 0
 1115 1141 1115 1141 1088 1108.5 c 128
 1061 1076 1061 1076 1023 1076 c 0
 985 1076 985 1076 958 1108.5 c 128
 931 1141 931 1141 931 1186 c 0
 931 1232 931 1232 958 1264 c 128
 985 1296 985 1296 1023 1296 c 0
 1061 1296 1061 1296 1088 1264 c 128
 1115 1232 1115 1232 1115 1186 c 0
1327 841 m 2
 1336 826 1336 826 1336 810 c 0
 1336 782 1336 782 1302 735 c 2
 1201 594 l 1
 1167 682 l 1
 1251 804 l 1
 1156 929 l 1
 1156 677 l 1
 1194 565 l 1
 1178 540 l 1
 1178 407 l 1
 1160 407 l 1
 1160 0 l 2
 1160 -55 1160 -55 1107 -55 c 0
 1055 -55 1055 -55 1055 0 c 2
 1055 407 l 1
 1037 407 l 1
 1037 540 l 1
 1010 540 l 1
 1010 407 l 1
 992 407 l 1
 992 0 l 2
 992 -55 992 -55 940 -55 c 0
 888 -55 888 -55 888 0 c 2
 888 407 l 1
 869 407 l 1
 869 540 l 1
 853 565 l 1
 892 677 l 1
 892 929 l 1
 796 804 l 1
 880 682 l 1
 846 594 l 1
 745 735 l 2
 711 782 711 782 711 810 c 0
 711 826 711 826 720 841 c 2
 830 1020 l 2
 859 1066 859 1066 895 1066 c 2
 1152 1066 l 2
 1188 1066 1188 1066 1217 1020 c 2
 1327 841 l 2
EndSplineSet
EndChar
StartChar: girl
Encoding: 131 61571
Width: 2048
Flags: H
Back
1227 1086 m 1
 1201 1090 l 1
 1201 1112 l 1
 1227 1116 l 1
 1227 1086 l 1
1207 1142 m 1
 1191 1112 l 1
 1191 1090 l 1
 1206 1061 l 1
 1162 1061 l 1
 1177 1090 l 1
 1177 1112 l 1
 1161 1142 l 1
 1207 1142 l 1
1168 1090 m 1
 1123 1091 1123 1091 1110 1117 c 1
 1091 1047 1091 1047 1024 1047 c 0
 957 1047 957 1047 938 1117 c 1
 926 1091 926 1091 880 1090 c 1
 880 1112 l 1
 933 1114 933 1114 933 1167 c 0
 933 1204 933 1204 960.5 1236 c 128
 988 1268 988 1268 1024 1268 c 0
 1061 1268 1061 1268 1088 1236 c 128
 1115 1204 1115 1204 1115 1167 c 0
 1115 1114 1115 1114 1168 1112 c 1
 1168 1090 l 1
888 1142 m 1
 872 1112 l 1
 872 1090 l 1
 887 1061 l 1
 843 1061 l 1
 857 1090 l 1
 857 1112 l 1
 842 1142 l 1
 888 1142 l 1
848 1090 m 1
 822 1086 l 1
 822 1116 l 1
 848 1112 l 1
 848 1090 l 1
1249 383 m 1
 1143 383 l 1
 1143 0 l 2
 1143 -55 1143 -55 1090 -55 c 0
 1038 -55 1038 -55 1038 0 c 2
 1038 383 l 1
 1011 383 l 1
 1011 0 l 2
 1011 -55 1011 -55 959 -55 c 0
 907 -55 907 -55 907 0 c 2
 907 383 l 1
 799 383 l 1
 907 657 l 1
 907 904 l 1
 887 904 l 1
 887 675 l 2
 887 620 887 620 845 620 c 0
 802 620 802 620 802 675 c 2
 802 904 l 2
 802 1037 802 1037 946 1037 c 2
 1106 1037 l 2
 1249 1037 1249 1037 1249 904 c 2
 1249 675 l 2
 1249 620 1249 620 1206 620 c 0
 1163 620 1163 620 1163 675 c 2
 1163 904 l 1
 1143 904 l 1
 1143 657 l 1
 1249 383 l 1
EndSplineSet
EndChar
StartChar: baby
Encoding: 132 61572
Width: 2048
Flags: H
Back
1705 1095 m 0
 1720 1026 1720 1026 1720 958 c 0
 1720 718 1720 718 1549 560 c 1
 1519 488 1519 488 1488 427 c 0
 1414 280 1414 280 1345 209 c 0
 1259 119 1259 119 1061 16 c 1
 888 -215 888 -215 612 -208 c 0
 482 -205 482 -205 399 -100 c 0
 320 1 320 1 318 145 c 0
 315 377 315 377 558 464 c 1
 587 525 587 525 617 577 c 0
 688 703 688 703 747 766 c 0
 818 842 818 842 972 943 c 1
 991 1032 991 1032 1024 1101 c 0
 1102 1267 1102 1267 1232 1311 c 1
 1206 1382 l 1
 1237 1398 l 1
 1265 1318 l 1
 1264 1437 l 1
 1299 1434 l 1
 1298 1324 l 1
 1322 1327 1322 1327 1349 1327 c 0
 1467 1327 1467 1327 1567 1270 c 0
 1681 1204 1681 1204 1705 1095 c 0
1667 1086 m 0
 1640 1196 1640 1196 1514 1256 c 1
 1564 1198 1564 1198 1568 1154 c 0
 1574 1084 1574 1084 1512 970 c 0
 1470 894 1470 894 1351 795 c 1
 1379 771 1379 771 1441 713 c 1
 1477 677 1477 677 1536 611 c 1
 1682 748 1682 748 1682 956 c 0
 1682 1019 1682 1019 1667 1086 c 0
1531 1146 m 0
 1531 1179 1531 1179 1489 1226 c 0
 1434 1288 1434 1288 1353 1288 c 0
 1317 1288 1317 1288 1292 1285 c 1
 1290 1423 l 1
 1273 1424 l 1
 1270 1280 l 1
 1234 1382 l 1
 1217 1376 l 1
 1253 1274 l 1
 1130 1228 1130 1228 1103 1070 c 0
 1101 1054 1101 1054 1102 1025 c 1
 1087 1031 1087 1031 1078 1031 c 0
 1051 1031 1051 1031 1051 992 c 0
 1051 970 1051 970 1060 925 c 1
 1085 918 1085 918 1140.5 899 c 128
 1196 880 1196 880 1242 856 c 1
 1254 922 1254 922 1323 922 c 0
 1365 922 1365 922 1395 875 c 1
 1424 906 1424 906 1480 985 c 1
 1531 1075 1531 1075 1531 1146 c 0
1363 855 m 1
 1353 868 1353 868 1323 883 c 1
 1288 884 1288 884 1273 845 c 1
 1296 833 l 1
 1301 846 1301 846 1320 859 c 1
 1333 860 1333 860 1349 840 c 1
 1363 855 l 1
1511 578 m 1
 1464 630 1464 630 1419 674 c 0
 1312 778 1312 778 1233 822 c 128
 1154 866 1154 866 1000 910 c 1
 956 884 956 884 919 858 c 0
 828 797 828 797 782 750 c 0
 700 664 700 664 610 469 c 1
 670 452 670 452 720 433 c 0
 842 386 842 386 900 334 c 0
 983 260 983 260 1064 73 c 1
 1114 100 1114 100 1158 126 c 0
 1262 189 1262 189 1314 241 c 0
 1414 341 1414 341 1511 578 c 1
1027 52 m 1
 1005 104 1005 104 981 147 c 0
 924 252 924 252 871 300 c 0
 787 378 787 378 588 439 c 1
 526 408 526 408 482 368 c 0
 376 273 376 273 375 151 c 0
 374 34 374 34 450 -65 c 128
 526 -164 526 -164 618 -163 c 0
 822 -161 822 -161 1027 52 c 1
1483 1016 m 1
 1450 1010 1450 1010 1431 1010 c 0
 1413 1010 1413 1010 1381 1016 c 1
 1381 1030 l 1
 1413 1025 1413 1025 1431 1025 c 0
 1450 1025 1450 1025 1483 1030 c 1
 1483 1016 l 1
1373 936 m 1
 1340 931 1340 931 1321 931 c 0
 1303 931 1303 931 1271 936 c 1
 1271 951 l 1
 1303 946 1303 946 1321 946 c 0
 1340 946 1340 946 1373 951 c 1
 1373 936 l 1
1258 1012 m 1
 1225 1007 1225 1007 1206 1007 c 0
 1188 1007 1188 1007 1156 1012 c 1
 1156 1027 l 1
 1188 1022 1188 1022 1206 1022 c 0
 1225 1022 1225 1022 1258 1027 c 1
 1258 1012 l 1
1166 792 m 1
 1010 805 l 1
 864 749 l 1
 1004 846 l 1
 1166 792 l 1
700 329 m 1
 601 337 l 1
 493 288 l 1
 590 366 l 1
 700 329 l 1
EndSplineSet
EndChar
StartChar: scifi
Encoding: 133 61573
Width: 2048
Flags: H
Back
1639 877 m 0
 1639 596 1639 596 1524 326 c 0
 1425 94 1425 94 1273 -63 c 0
 1130 -210 1130 -210 1024 -210 c 0
 918 -210 918 -210 775 -63 c 0
 623 94 623 94 524 326 c 0
 409 596 409 596 409 877 c 0
 409 1141 409 1141 563 1303 c 0
 728 1477 728 1477 1024 1477 c 0
 1320 1477 1320 1477 1485 1303 c 0
 1639 1141 1639 1141 1639 877 c 0
1450 679 m 1
 1393 669 1393 669 1347 654 c 0
 1236 619 1236 619 1194 566 c 0
 1142 499 1142 499 1138 340 c 1
 1191 349 1191 349 1236 363 c 0
 1343 396 1343 396 1387 446 c 0
 1455 523 1455 523 1450 679 c 1
910 340 m 1
 909 386 909 386 903 426 c 0
 888 520 888 520 854 566 c 1
 792 646 792 646 598 679 c 1
 593 523 593 523 661 446 c 0
 726 372 726 372 910 340 c 1
EndSplineSet
EndChar
StartChar: health
Encoding: 134 61574
Width: 2048
Flags: H
Back
1746 1195 m 1
 1690 1195 l 1
 1690 1399 l 1
 1746 1399 l 1
 1746 1195 l 1
1679 1105 m 1
 1574 1105 l 1
 1574 1493 l 1
 1679 1493 l 1
 1679 1105 l 1
474 1105 m 1
 369 1105 l 1
 369 1493 l 1
 474 1493 l 1
 474 1105 l 1
358 1195 m 1
 303 1195 l 1
 303 1399 l 1
 358 1399 l 1
 358 1195 l 1
1563 1278 m 1
 1485 1278 l 1
 1473 1256 1473 1256 1171 735 c 1
 1171 -195 l 2
 1171 -264 1171 -264 1106 -264 c 0
 1041 -264 1041 -264 1041 -195 c 2
 1041 399 l 1
 1007 399 l 1
 1007 -195 l 2
 1007 -264 1007 -264 942 -264 c 0
 877 -264 877 -264 877 -195 c 2
 877 735 l 1
 563 1278 l 1
 485 1278 l 1
 485 1318 l 1
 549 1318 l 1
 549 1344 549 1344 577 1360 c 0
 592 1369 592 1369 606 1369 c 0
 632 1369 632 1369 657 1327 c 2
 662 1318 l 1
 1386 1318 l 1
 1391 1327 l 2
 1416 1369 1416 1369 1442 1369 c 0
 1456 1369 1456 1369 1471 1360 c 0
 1499 1344 1499 1344 1499 1318 c 1
 1563 1318 l 1
 1563 1278 l 1
1361 1278 m 1
 687 1278 l 1
 858 992 l 2
 901 921 901 921 942 921 c 2
 1106 921 l 2
 1147 921 1147 921 1190 992 c 2
 1361 1278 l 1
1138 1088 m 0
 1138 1030 1138 1030 1104 984 c 128
 1070 938 1070 938 1023 938 c 0
 976 938 976 938 942 984 c 128
 908 1030 908 1030 908 1088 c 0
 908 1145 908 1145 941.5 1185.5 c 128
 975 1226 975 1226 1023 1226 c 0
 1070 1226 1070 1226 1104 1185.5 c 128
 1138 1145 1138 1145 1138 1088 c 0
EndSplineSet
EndChar
StartChar: skier
Encoding: 135 61575
Width: 2048
Flags: H
Back
1341 570 m 0
 1341 519 1341 519 1218 349 c 1
 1202 357 l 1
 1323 519 1323 519 1323 572 c 0
 1323 592 1323 592 1315 607 c 1
 1341 595 1341 595 1341 570 c 0
1421 902 m 0
 1421 874 1421 874 1400 874 c 0
 1395 874 1395 874 1389 876 c 1
 1273 633 l 1
 1312 612 1312 612 1312 575 c 0
 1312 522 1312 522 1193 362 c 1
 1079 416 l 1
 1142 524 l 1
 1083 550 1083 550 1024 560 c 0
 883 585 883 585 883 677 c 0
 883 756 883 756 945 897 c 1
 930 905 930 905 892 922 c 0
 865 935 865 935 857 956 c 1
 341 820 l 1
 345 806 345 806 345 799 c 0
 345 780 345 780 330 780 c 0
 314 780 314 780 302 810 c 1
 280 804 l 1
 275 820 l 1
 299 827 l 1
 296 837 296 837 296 849 c 0
 296 868 296 868 310 868 c 0
 326 868 326 868 338 837 c 1
 854 973 l 1
 854 983 854 983 860 1005 c 1
 874 1033 874 1033 911 1033 c 0
 918 1033 918 1033 932 1031.5 c 128
 946 1030 946 1030 953 1030 c 0
 984 1030 984 1030 996 1033 c 2
 1041 1046 l 1
 1066 1046 1066 1046 1116 1040 c 1
 1131 1074 l 1
 1124 1076 1124 1076 1111 1076 c 0
 1100 1076 1100 1076 1052 1067 c 1
 1066 1091 1066 1091 1087 1105 c 1
 1036 1105 1036 1105 985 1079 c 1
 1002 1117 1002 1117 1048 1132 c 1
 1030 1144 1030 1144 1000 1144 c 0
 980 1144 980 1144 965 1140 c 1
 992 1179 992 1179 1009 1179 c 0
 1056 1179 1056 1179 1079 1163 c 1
 1073 1176 1073 1176 1047.5 1191.5 c 128
 1022 1207 1022 1207 1007 1207 c 0
 990 1207 990 1207 969 1194 c 1
 989 1249 989 1249 1013 1249 c 0
 1035 1249 1035 1249 1075 1227 c 1
 1040 1266 1040 1266 1033 1315 c 1
 1070 1285 1070 1285 1101 1269 c 1
 1082 1309 1082 1309 1077 1361 c 1
 1113 1279 1113 1279 1189 1220 c 1
 1260 1187 l 2
 1305 1166 1305 1166 1305 1133 c 0
 1305 1126 1305 1126 1300.5 1113 c 128
 1296 1100 1296 1100 1296 1094 c 0
 1296 1090 1296 1090 1299 1083.5 c 128
 1302 1077 1302 1077 1302 1074 c 0
 1302 1071 1302 1071 1293 1066.5 c 128
 1284 1062 1284 1062 1285 1051 c 1
 1278 1045 l 1
 1277 1037 l 1
 1268 1021 1268 1021 1260 1021 c 0
 1248 1021 1248 1021 1221 1032 c 1
 1212 1012 l 1
 1237 988 1237 988 1248.5 982.5 c 128
 1260 977 1260 977 1273 977 c 0
 1327 976 1327 976 1368 932 c 1
 1375 933 1375 933 1387 933 c 0
 1421 933 1421 933 1421 902 c 0
1208 336 m 1
 1180 292 l 1
 1165 303 l 1
 1193 345 l 1
 1208 336 l 1
1738 -124 m 1
 1717 -140 1717 -140 1695 -140 c 0
 1685 -140 1685 -140 1678 -136 c 2
 1339 66 l 1
 1288 99 1288 99 1169 167 c 0
 1162 171 1162 171 989 249 c 2
 629 412 l 1
 642 438 l 1
 945 300 l 1
 662 471 l 1
 672 485 l 1
 1011 284 l 1
 1078 400 l 1
 1180 352 l 1
 1149 310 1149 310 1149 298 c 1
 1226 228 1226 228 1226 207 c 0
 1226 198 1226 198 1218 185 c 1
 1218 180 1218 180 1322 132 c 0
 1491 54 1491 54 1653 -16 c 0
 1679 -27 1679 -27 1704 -27 c 0
 1722 -27 1722 -27 1735 -22 c 1
 1724 -59 1724 -59 1682 -59 c 0
 1659 -59 1659 -59 1574 -20 c 2
 1321 96 l 1
 1691 -121 l 2
 1701 -127 1701 -127 1716 -127 c 0
 1727 -127 1727 -127 1738 -124 c 1
1373 883 m 1
 1362 891 1362 891 1207 900 c 1
 1199 859 1199 859 1167 820 c 0
 1123 767 1123 767 1115 752.5 c 128
 1107 738 1107 738 1093 708 c 1
 1122 697 1122 697 1179 675 c 0
 1196 668 1196 668 1254 640 c 1
 1373 883 l 1
330 835 m 1
 321 857 321 857 312 857 c 0
 307 857 307 857 308 841 c 0
 308 836 308 836 310 829 c 1
 330 835 l 1
337 799 m 0
 337 804 337 804 333 818 c 1
 313 813 l 1
 321 790 321 790 331 790 c 0
 337 790 337 790 337 799 c 0
EndSplineSet
EndChar
StartChar: hobby
Encoding: 136 61576
Width: 2048
Flags: H
Back
1688 1286 m 1
 1668 1256 l 1
 1671 1235 l 1
 1642 1204 l 1
 1684 1206 l 1
 1681 1180 l 1
 1605 1165 l 1
 1576 1175 l 1
 1571 1186 1571 1186 1556 1209 c 1
 1547 1219 1547 1219 1529 1235 c 1
 1566 1277 l 1
 1613 1272 l 1
 1657 1296 l 1
 1688 1286 l 1
1827 449 m 1
 1798 412 1798 412 1765 381 c 0
 1688 307 1688 307 1607 272 c 2
 483 -217 l 2
 413 -248 413 -248 357 -248 c 0
 301 -248 301 -248 270 -219 c 0
 242 -194 242 -194 247 -165 c 0
 267 -61 267 -61 330 -11 c 0
 378 27 378 27 463 39 c 1
 603 51 l 1
 692 62 692 62 778 91 c 2
 1230 241 l 1
 1205 291 l 1
 1163 272 l 1
 1056 434 l 2
 1038 462 1038 462 1011 494 c 1
 974 476 l 1
 983 444 983 444 1047 302 c 0
 1049 294 l 0
 1049 277 1049 277 1020 260 c 1
 1075 280 1075 280 1096 263 c 0
 1109 252 1109 252 1117 221 c 1
 776 107 l 1
 780 199 780 199 758 385 c 1
 689 357 689 357 636 357 c 0
 611 357 611 357 594 364 c 0
 526 390 526 390 535 543 c 1
 485 543 l 1
 519 606 519 606 594 774 c 1
 620 839 620 839 643 908 c 1
 609 954 609 954 609 998 c 0
 609 1036 609 1036 636 1063 c 128
 663 1090 663 1090 714 1114 c 1
 644 1112 l 1
 653 1115 653 1115 683 1132 c 0
 694 1138 694 1138 713 1151 c 1
 658 1139 l 1
 672 1147 672 1147 701 1169 c 1
 716 1182 716 1182 731 1204 c 1
 695 1190 l 1
 702 1197 702 1197 720 1218 c 1
 734 1237 734 1237 740 1255 c 1
 737 1289 737 1289 740 1313 c 0
 743 1335 743 1335 745 1348 c 1
 733 1348 l 1
 727 1293 l 1
 667 1270 667 1270 633 1270 c 0
 604 1270 604 1270 604 1290 c 0
 604 1311 604 1311 629 1330 c 1
 652 1344 652 1344 674 1358 c 0
 702 1378 702 1378 746 1435 c 0
 778 1477 778 1477 807 1478 c 1
 824 1473 824 1473 851 1470 c 1
 863 1473 863 1473 880 1483 c 128
 897 1493 897 1493 910 1493 c 0
 915 1493 915 1493 921 1492 c 0
 947 1487 947 1487 989 1353 c 1
 981 1347 l 1
 990 1305 l 1
 983 1291 l 1
 989 1281 989 1281 1006 1251 c 0
 1012 1242 1012 1242 994 1230 c 1
 1000 1190 1000 1190 995 1181 c 0
 989 1171 989 1171 969 1157 c 1
 1082 1204 l 1
 1076 1150 l 1
 1143 1163 1143 1163 1286 1193 c 1
 1357 1211 1357 1211 1480 1251 c 1
 1567 1201 1567 1201 1561 1157 c 0
 1556 1126 1556 1126 1503 1091 c 1
 1452 1082 1452 1082 1336 1055 c 1
 1285 1040 1285 1040 1082 971 c 1
 1043 818 l 1
 1268 1011 1268 1011 1324 1011 c 0
 1355 1011 1355 1011 1423 861 c 1
 1513 653 l 1
 1535 608 1535 608 1583 539 c 0
 1624 479 1624 479 1628 467 c 0
 1631 456 1631 456 1622 436 c 1
 1645 448 1645 448 1659 447 c 0
 1686 444 1686 444 1688 407 c 1
 1397 309 l 1
 1388 367 1388 367 1321 570 c 1
 1307 606 1307 606 1248 716 c 1
 1219 678 1219 678 1126 592 c 1
 1152 561 1152 561 1208 491 c 0
 1247 441 1247 441 1339 342 c 1
 1318 333 l 1
 1373 291 l 1
 1719 407 l 2
 1773 425 1773 425 1808 457 c 1
 1827 449 l 1
1348 285 m 1
 1309 303 l 1
 1315 272 l 1
 1348 285 l 1
EndSplineSet
EndChar
StartChar: golfer
Encoding: 137 61577
Width: 2048
Flags: H
Back
1378 1350 m 0
 1378 1337 1378 1337 1367 1337 c 0
 1358 1337 1358 1337 1345 1347 c 1
 1355 1366 l 1
 1378 1361 1378 1361 1378 1350 c 0
1257 1379 m 1
 1199 1391 l 2
 1181 1395 1181 1395 1149 1399 c 1
 1148 1418 l 1
 1165 1417 1165 1417 1202 1411 c 2
 1253 1401 l 1
 1257 1379 l 1
1329 1299 m 1
 1336 1126 1336 1126 1311 1084 c 0
 1298 1060 1298 1060 1244 1063 c 1
 1252 1079 1252 1079 1268 1117 c 1
 1292 1190 1292 1190 1329 1299 c 1
1102 1262 m 1
 1073 1278 1073 1278 1000 1296 c 1
 987 1296 987 1296 970 1284 c 1
 961 1343 961 1343 961 1365 c 0
 963 1416 963 1416 1010 1444 c 0
 1052 1469 1052 1469 1111 1469 c 0
 1138 1469 1138 1469 1143 1414 c 0
 1146 1368 1146 1368 1136 1324.5 c 128
 1126 1281 1126 1281 1102 1262 c 1
1352 1375 m 1
 1343 1355 1343 1355 1323 1304 c 1
 1294 1219 1294 1219 1264 1133 c 0
 1231 1041 1231 1041 1204 1041 c 0
 1143 1041 1143 1041 1011 1107 c 1
 1011 1098 l 1
 1035 1085 1035 1085 1092 1060 c 1
 1114 1052 1114 1052 1155 1041 c 1
 1159 1020 1159 1020 1165 970 c 1
 1167 932 1167 932 1165 862 c 1
 1154 873 1154 873 1133 885 c 1
 1042 885 1042 885 973 816 c 1
 929 770 929 770 894 667 c 1
 868 701 868 701 868 734 c 0
 868 814 868 814 972 915 c 0
 986 928 986 928 1014 949 c 1
 1006 955 l 1
 994 946 994 946 966 922 c 0
 946 905 946 905 902 848 c 1
 893 926 893 926 894 971 c 0
 906 1287 906 1287 1000 1287 c 0
 1038 1287 1038 1287 1097.5 1253 c 128
 1157 1219 1157 1219 1204 1219 c 0
 1236 1219 1236 1219 1259 1328 c 0
 1264 1353 1264 1353 1265 1371 c 0
 1265 1391 1265 1391 1260 1399 c 1
 1270 1404 1270 1404 1293 1408 c 1
 1317 1409 1317 1409 1352 1375 c 1
983 1431 m 1
 968 1415 l 1
 895 1421 895 1421 827 1421 c 0
 694 1421 694 1421 654 1395 c 0
 642 1387 642 1387 616 1338 c 0
 592 1293 592 1293 583 1293 c 0
 552 1293 552 1293 550 1327 c 0
 546 1383 546 1383 580 1406 c 0
 624 1436 624 1436 827 1436 c 0
 899 1436 899 1436 983 1431 c 1
1197 -36 m 0
 1186 -50 1186 -50 1134 -52 c 1
 1104 -46 1104 -46 1024 -43 c 1
 1010 -44 1010 -44 985 -49 c 1
 996 13 996 13 1008 155 c 1
 1010 214 1010 214 1004 318 c 1
 1008 342 1008 342 1021 396 c 1
 1038 457 1038 457 1089 578 c 0
 1133 681 1133 681 1149 767 c 0
 1153 788 1153 788 1153 825 c 1
 1144 825 l 1
 1144 807 1144 807 1139 767 c 1
 1125 684 1125 684 1080 583 c 0
 1027 461 1027 461 1010 401 c 0
 965 240 965 240 923 -52 c 1
 901 -43 901 -43 850 -30 c 1
 825 -31 825 -31 767 -31 c 1
 688 -28 688 -28 685 -4 c 0
 683 9 683 9 731 128 c 0
 794 283 794 283 822 371 c 1
 853 492 853 492 904 670 c 1
 937 764 937 764 982 812 c 0
 1041 874 1041 874 1130 876 c 0
 1170 876 1170 876 1170 795 c 2
 1170 364 l 1
 1174 272 1174 272 1187 123 c 0
 1198 -7 1198 -7 1198 -26 c 0
 1198 -34 1198 -34 1197 -36 c 0
1172 -129 m 1
 1013 -129 l 1
 1009 -99 1009 -99 1014 -83 c 0
 1018 -70 1018 -70 1030 -49 c 1
 1140 -58 l 1
 1141 -79 l 1
 1110 -78 1110 -78 1094 -81.5 c 128
 1078 -85 1078 -85 1053 -98 c 1
 1058 -104 l 1
 1078 -95 1078 -95 1125 -85 c 1
 1156 -83 1156 -83 1163 -88 c 0
 1175 -97 1175 -97 1172 -129 c 1
891 -129 m 1
 770 -129 l 1
 700 -74 l 1
 699 -56 699 -56 702 -46 c 0
 704 -39 704 -39 709 -27 c 1
 726 -31 726 -31 766 -36 c 1
 789 -37 789 -37 828 -33 c 1
 832 -65 l 1
 806 -65 l 1
 806 -71 l 1
 869 -66 869 -66 884 -92 c 0
 891 -104 891 -104 891 -129 c 1
EndSplineSet
EndChar
StartChar: pool
Encoding: 138 61578
Width: 2048
Flags: H
Back
1243 147 m 0
 1261 147 1261 147 1284 132 c 128
 1307 117 1307 117 1310 100 c 1
 1389 108 1389 108 1578 193 c 1
 1572 161 1572 161 1572 146 c 0
 1572 100 1572 100 1628 100 c 0
 1759 100 1759 100 1859 193 c 1
 1854 178 1854 178 1854 164 c 0
 1854 111 1854 111 1933 101 c 0
 1937 100 1937 100 2048 100 c 1
 2048 0 l 1
 0 0 l 1
 0 100 l 1
 63 99 l 2
 199 98 199 98 344 193 c 1
 336 162 336 162 336 144 c 0
 336 100 336 100 393 100 c 0
 521 100 521 100 631 193 c 1
 627 176 627 176 627 162 c 0
 627 100 627 100 732 100 c 1
 759 115 759 115 795 155 c 0
 836 199 836 199 855 213 c 1
 798 327 798 327 798 453 c 0
 798 510 798 510 884 567 c 0
 902 579 902 579 1019 641 c 0
 1099 683 1099 683 1128 683 c 0
 1179 683 1179 683 1179 640 c 0
 1179 614 1179 614 1142 601 c 1
 1084 585 l 1
 1044 569 1044 569 989 524 c 1
 924 473 924 473 924 441 c 0
 924 394 924 394 971 337 c 0
 1012 288 1012 288 1060 261 c 1
 1057 250 1057 250 1057 237 c 0
 1057 192 1057 192 1089.5 162 c 128
 1122 132 1122 132 1168 132 c 0
 1182 132 1182 132 1207 139.5 c 128
 1232 147 1232 147 1243 147 c 0
1251 393 m 0
 1340 393 1340 393 1340 312 c 0
 1340 254 1340 254 1286 207.5 c 128
 1232 161 1232 161 1173 161 c 0
 1084 161 1084 161 1084 242 c 0
 1084 300 1084 300 1139 348 c 0
 1191 393 1191 393 1251 393 c 0
EndSplineSet
EndChar
StartChar: surf
Encoding: 139 61579
Width: 2048
Flags: H
Back
1833 295 m 1
 1804 287 1804 287 1770 287 c 0
 1648 287 1648 287 1573 339 c 1
 1477 298 1477 298 1355 259 c 0
 1064 167 1064 167 694 103 c 0
 421 55 421 55 215 50 c 1
 213 71 l 1
 562 188 l 1
 600 234 600 234 640 279 c 0
 736 385 736 385 827 462 c 0
 931 551 931 551 1079 643 c 1
 1054 825 l 1
 1000 821 1000 821 844 799 c 1
 730 779 730 779 562 734 c 1
 532 747 l 1
 625 790 625 790 841 880 c 1
 957 924 957 924 1125 975 c 1
 1125 1012 l 1
 1106 1008 1106 1008 1084 1008 c 0
 1071 1008 1071 1008 1065 1064 c 0
 1058 1121 1058 1121 1067.5 1148.5 c 128
 1077 1176 1077 1176 1210 1192 c 0
 1264 1199 1264 1199 1499 1215 c 1
 1323 1160 l 1
 1467 1168 l 1
 1429 1159 1429 1159 1395 1146 c 0
 1312 1116 1312 1116 1262 1076 c 0
 1223 1045 1223 1045 1218 996 c 1
 1280 1012 1280 1012 1409 1040 c 1
 1446 1046 1446 1046 1725 1089 c 1
 1710 1058 l 1
 1629 1034 1629 1034 1564 1010 c 0
 1407 953 1407 953 1349 905 c 0
 1296 861 1296 861 1282 702 c 1
 1442 715 l 1
 1373 430 l 1
 1470 413 l 1
 1731 476 l 1
 1823 450 l 1
 1717 395 l 1
 1833 295 l 1
1303 580 m 1
 1259 569 1259 569 1216 556 c 0
 1115 524 1115 524 1042 485 c 0
 824 370 824 370 722 260 c 1
 747 235 l 1
 1291 375 l 1
 1303 580 l 1
EndSplineSet
EndChar
StartChar: motorcycle
Encoding: 140 61580
Width: 2048
Flags: H
Back
1194 816 m 0
 1155 805 1155 805 1097 778 c 1
 1146 737 l 1
 997 719 997 719 916 723 c 0
 813 729 813 729 788 735 c 0
 718 753 718 753 718 812 c 0
 718 868 718 868 823 967 c 1
 928 1064 l 1
 928 1079 928 1079 839 1095 c 0
 809 1100 809 1100 754 1097 c 1
 749 1153 749 1153 750 1186 c 0
 755 1375 755 1375 916 1379 c 0
 985 1382 985 1382 1031 1345 c 0
 1081 1305 1081 1305 1081 1232 c 0
 1081 1125 1081 1125 986 1107 c 1
 995 1095 l 1
 1049 1119 l 2
 1056 1122 1056 1122 1068 1122 c 0
 1135 1122 1135 1122 1225 1026 c 0
 1310 934 1310 934 1310 876 c 0
 1310 852 1310 852 1263 834 c 1
 1229 825 1229 825 1194 816 c 0
1847 292 m 0
 1853 261 1853 261 1853 229 c 0
 1853 132 1853 132 1798.5 66 c 128
 1744 0 1744 0 1663 0 c 0
 1553 0 1553 0 1470 63 c 0
 1396 119 1396 119 1377 196 c 1
 1379 175 1379 175 1377 166 c 0
 1370 112 1370 112 1157 68 c 0
 984 32 984 32 827 48 c 1
 854 49 854 49 854 144 c 0
 854 212 854 212 839 271 c 0
 810 392 810 392 720 553 c 1
 670 560 670 560 572 579 c 1
 522 593 522 593 473 608 c 0
 407 626 407 626 335 626 c 0
 279 626 279 626 253 590 c 1
 244 619 244 619 245 636 c 0
 252 790 252 790 438 940 c 0
 512 999 512 999 612 1042 c 0
 703 1081 703 1081 756 1082 c 0
 891 1087 891 1087 891 1062 c 0
 891 1060 891 1060 793 968 c 128
 695 876 695 876 695 814 c 0
 695 702 695 702 911 700 c 0
 1058 698 1058 698 1166 717 c 1
 1192 692 1192 692 1216 660 c 0
 1274 583 1274 583 1316 488 c 0
 1348 416 1348 416 1363 329 c 1
 1362 364 1362 364 1355 400 c 0
 1340 487 1340 487 1303 564 c 0
 1222 734 1222 734 1144 776 c 1
 1259 822 1259 822 1321 822 c 0
 1335 822 1335 822 1345 820 c 0
 1368 814 1368 814 1404 727 c 0
 1437 646 1437 646 1455 561 c 1
 1468 475 1468 475 1499 283 c 0
 1509 228 1509 228 1555 188 c 128
 1601 148 1601 148 1650 148 c 0
 1735 148 1735 148 1735 251 c 0
 1735 321 1735 321 1690 375 c 0
 1643 433 1643 433 1574 433 c 0
 1515 433 1515 433 1500 380 c 1
 1493 432 1493 432 1473 551 c 1
 1454 653 1454 653 1406 765 c 1
 1506 788 1506 788 1609 788 c 0
 1741 788 1741 788 1750 729 c 0
 1753 709 1753 709 1746 673 c 1
 1605 632 l 1
 1730 651 l 2
 1758 655 1758 655 1766 615 c 0
 1773 579 1773 579 1734 573 c 2
 1502 539 l 1
 1504 522 l 1
 1580 535 l 1
 1674 536 1674 536 1746 475 c 0
 1824 409 1824 409 1847 292 c 0
825 274 m 0
 839 218 839 218 839 152 c 0
 839 62 839 62 813 62 c 0
 790 62 790 62 762 76 c 1
 712 -54 712 -54 569 -54 c 0
 450 -54 450 -54 340.5 39.5 c 128
 231 133 231 133 200 265 c 0
 189 312 189 312 189 356 c 0
 189 490 189 490 275 554 c 1
 263 575 l 1
 292 612 292 612 345 612 c 0
 413 612 413 612 476 595 c 0
 523 581 523 581 571 567 c 1
 614 557 614 557 711 543 c 1
 736 498 736 498 757 455 c 0
 806 352 806 352 825 274 c 0
976 1226 m 1
 946 1232 946 1232 867 1244 c 0
 824 1250 824 1250 774 1246 c 1
 770 1225 770 1225 766 1175 c 1
 766 1152 766 1152 772 1111 c 1
 825 1108 825 1108 878.5 1123 c 128
 932 1138 932 1138 974 1175 c 1
 976 1226 l 1
1124 850 m 0
 1124 881 1124 881 1106 901.5 c 128
 1088 922 1088 922 1064 923 c 0
 1012 924 1012 924 982 882 c 1
 1025 879 l 1
 1025 874 l 1
 1009 875 1009 875 963 879 c 0
 952 881 952 881 928 886 c 0
 908 890 908 890 895 890 c 0
 872 890 872 890 841 868.5 c 128
 810 847 810 847 810 828 c 0
 810 802 810 802 840 786 c 128
 870 770 870 770 909 770 c 0
 948 770 948 770 969 786 c 1
 978 782 978 782 996 782 c 0
 1039 782 1039 782 1077 799 c 0
 1123 819 1123 819 1124 850 c 0
654 294 m 0
 639 348 639 348 622 382 c 1
 586 274 586 274 550 274 c 0
 536 274 536 274 513 348 c 0
 483 445 483 445 457 486 c 1
 355 483 355 483 355 356 c 0
 355 265 355 265 416 190 c 0
 480 111 480 111 569 111 c 0
 662 111 662 111 662 232 c 0
 662 263 662 263 654 294 c 0
962 827 m 0
 962 805 962 805 945 805 c 0
 929 805 929 805 929 827 c 0
 929 849 929 849 945 849 c 0
 962 849 962 849 962 827 c 0
EndSplineSet
EndChar
StartChar: racecar
Encoding: 141 61581
Width: 2048
Flags: H
Back
2245 180 m 0
 2245 146 2245 146 2231 124 c 1
 2128 204 2128 204 1978 285 c 1
 2014 324 2014 324 2091 324 c 0
 2150 324 2150 324 2197.5 281 c 128
 2245 238 2245 238 2245 180 c 0
1367 412 m 0
 1367 398 1367 398 1358 364 c 1
 1290 403 1290 403 1290 419 c 0
 1290 432 1290 432 1343 450 c 1
 1367 431 1367 431 1367 412 c 0
2392 16 m 1
 2234 -10 2234 -10 2017 -14 c 1
 1640 -13 l 1
 1592 -13 l 1
 1607 8 l 1
 1315 -4 1315 -4 1192 -4 c 0
 1106 -4 1106 -4 933 5.5 c 128
 760 15 760 15 674 15 c 0
 645 15 645 15 588 6.5 c 128
 531 -2 531 -2 503 -2 c 1
 296 9 l 1
 318 18 l 1
 215 29 l 1
 306 35 l 1
 234 78 234 78 240 179 c 1
 201 183 201 183 120 185 c 1
 100 482 l 1
 143 479 143 479 197 479 c 0
 261 479 261 479 487 493 c 1
 534 469 534 469 568 418 c 128
 602 367 602 367 600 317 c 1
 686 325 l 1
 852 446 852 446 1053 446 c 0
 1085 446 1085 446 1117 443 c 1
 1151 539 1151 539 1199 539 c 0
 1216 539 1216 539 1218 507 c 0
 1219 482 1219 482 1213 464 c 1
 1234 499 1234 499 1273 499 c 0
 1338 499 1338 499 1347 461 c 1
 1279 451 1279 451 1279 423 c 1
 1281 418 1281 418 1284 410 c 1
 1319 372 1319 372 1381 344 c 1
 1378 361 1378 361 1397 361 c 0
 1416 361 1416 361 1429 319 c 1
 1510 350 l 1
 1528 347 1528 347 1545 347 c 0
 1587 347 1587 347 1629 359 c 1
 1657 349 1657 349 1820 325 c 0
 1905 312 1905 312 2032 244 c 0
 2155 178 2155 178 2220 114 c 1
 2368 139 l 1
 2387 109 l 1
 2361 40 l 1
 2131 20 l 1
 2392 16 l 1
2357 83 m 1
 2347 90 l 1
 2117 73 l 1
 2112 84 l 1
 2102 93 l 1
 2100 61 l 1
 2120 51 l 1
 2357 83 l 1
2210 107 m 1
 2115 178 2115 178 1900 299 c 1
 1877 282 l 1
 1812 286 l 1
 1987 225 1987 225 2183 84 c 1
 2210 107 l 1
1810 266 m 1
 1779 305 1779 305 1729 305 c 0
 1671 305 1671 305 1644 273 c 1
 1677 295 1677 295 1722 295 c 0
 1760 295 1760 295 1810 266 c 1
1870 20 m 1
 1863 51 l 1
 1853 34 1853 34 1824 20 c 1
 1870 20 l 1
1791 151 m 0
 1791 190 1791 190 1764.5 216 c 128
 1738 242 1738 242 1699 242 c 0
 1658 242 1658 242 1630.5 214 c 128
 1603 186 1603 186 1603 146 c 0
 1603 52 1603 52 1695 52 c 0
 1791 52 1791 52 1791 151 c 0
1369 319 m 1
 1369 332 1369 332 1367 342 c 1
 1266 391 1266 391 1266 435 c 0
 1266 446 1266 446 1292 457 c 0
 1306 462 1306 462 1319 467 c 1
 1319 482 1319 482 1275 482 c 0
 1225 482 1225 482 1204 406 c 1
 1225 400 l 1
 1230 382 l 1
 1275 357 l 1
 1287 369 l 1
 1353 341 l 1
 1346 320 l 1
 1369 319 l 1
1595 300 m 1
 1580 313 l 1
 1457 323 l 1
 1436 316 1436 316 1393 310 c 1
 1044 323 l 1
 1011 288 l 1
 1012 268 l 1
 1058 272 1058 272 1106 272 c 0
 1243 272 1243 272 1330 251 c 1
 1337 274 l 1
 1378 303 1378 303 1462 305 c 1
 1595 300 l 1
1162 428 m 1
 1141 431 l 1
 1145 413 l 1
 1145 404 1145 404 1133 396 c 1
 1048 400 l 1
 1026 373 l 1
 1050 364 l 1
 1051 350 l 1
 1067 350 l 1
 1067 327 1067 327 1091 327 c 0
 1114 327 1114 327 1144 345 c 1
 1162 428 l 1
1018 413 m 1
 950 414 l 1
 928 354 l 1
 999 353 l 1
 1018 413 l 1
1486 163 m 0
 1486 185 1486 185 1455 183 c 1
 1456 202 l 1
 1431 203 1431 203 1414 215 c 1
 1371 215 1371 215 1350 187 c 1
 1320 190 1320 190 1313 190 c 0
 1295 190 1295 190 1273 179 c 1
 1250 195 1250 195 1229 195 c 0
 1212 195 1212 195 1189 182 c 1
 1158 195 l 1
 1017 195 l 1
 1019 224 l 1
 924 224 l 1
 902 212 l 1
 896 224 l 1
 851 224 l 1
 816 66 l 1
 1087 66 l 1
 1092 79 l 1
 1113 66 1113 66 1127 66 c 0
 1136 66 1136 66 1168 73 c 1
 1192 66 1192 66 1210 66 c 0
 1222 66 1222 66 1257 73 c 1
 1293 66 1293 66 1300 66 c 2
 1436 66 l 1
 1455 147 l 1
 1460 146 l 2
 1486 146 1486 146 1486 163 c 0
765 176 m 1
 762 234 l 1
 714 238 l 1
 712 284 l 1
 644 288 l 1
 637 243 l 1
 701 239 l 1
 675 176 l 1
 765 176 l 1
752 45 m 1
 749 99 l 1
 671 104 l 1
 678 50 l 1
 752 45 l 1
474 255 m 1
 475 274 475 274 445 294 c 128
 415 314 415 314 395 314 c 0
 379 314 379 314 368 306 c 1
 386 301 386 301 421 288 c 1
 436 273 436 273 472 253 c 1
 474 255 l 1
397 330 m 1
 397 426 l 1
 275 417 l 1
 322 307 l 1
 358 331 358 331 397 330 c 1
458 163 m 0
 458 263 458 263 377 263 c 0
 339 263 339 263 312 233 c 128
 285 203 285 203 285 165 c 0
 285 127 285 127 307.5 97 c 128
 330 67 330 67 367 67 c 0
 406 67 406 67 432 95.5 c 128
 458 124 458 124 458 163 c 0
222 330 m 0
 222 371 222 371 184 367 c 1
 183 382 l 1
 192 394 l 1
 198 392 198 392 202 383 c 1
 217 383 l 1
 217 392 l 2
 217 424 217 424 190 424 c 0
 170 424 170 424 165 407 c 1
 159 421 159 421 139 421 c 0
 114 421 114 421 114 383 c 1
 118 368 l 1
 135 368 l 1
 133 387 l 1
 140 395 l 1
 149 387 l 1
 149 383 149 383 120 324 c 1
 120 279 l 1
 167 279 l 1
 166 296 l 1
 173 278 173 278 192 278 c 0
 222 278 222 278 222 330 c 0
268 255 m 1
 265 266 l 1
 155 266 l 1
 155 219 l 1
 247 215 l 1
 250 236 250 236 268 255 c 1
1782 159 m 0
 1782 132 1782 132 1768 120 c 1
 1739 133 1739 133 1739 141 c 0
 1739 159 1739 159 1770 164 c 1
 1763 180 l 1
 1733 175 1733 175 1695 155 c 1
 1702 157 1702 157 1707 157 c 0
 1723 157 1723 157 1723 138 c 0
 1723 120 1723 120 1703 120 c 0
 1682 120 1682 120 1685 142 c 1
 1684 143 l 1
 1671 132 1671 132 1644 113 c 1
 1626 116 l 1
 1634 87 l 1
 1612 112 1612 112 1612 146 c 0
 1612 181 1612 181 1637 206.5 c 128
 1662 232 1662 232 1698 232 c 0
 1731 232 1731 232 1756.5 212 c 128
 1782 192 1782 192 1782 159 c 0
1753 93 m 0
 1753 75 1753 75 1723 74 c 1
 1718 88 l 1
 1718 100 l 2
 1718 114 1718 114 1726 114 c 0
 1753 114 1753 114 1753 93 c 0
1691 97 m 0
 1691 93 1691 93 1684 72 c 1
 1652 74 1652 74 1652 91 c 0
 1652 110 1652 110 1678 110 c 0
 1691 110 1691 110 1691 97 c 0
446 167 m 0
 446 127 446 127 428 107 c 1
 419 134 l 1
 403 108 l 1
 388 107 388 107 379 107 c 0
 343 107 343 107 333 138 c 0
 331 144 331 144 325 200 c 1
 320 207 l 1
 312 199 l 1
 317 182 l 1
 310 156 310 156 325 117 c 1
 294 130 294 130 294 167 c 0
 294 195 294 195 320.5 222.5 c 128
 347 250 347 250 375 250 c 0
 406 250 406 250 426 224.5 c 128
 446 199 446 199 446 167 c 0
201 322 m 1
 193 305 l 1
 185 322 l 1
 185 330 l 1
 193 343 l 1
 201 330 l 1
 201 322 l 1
164 331 m 1
 154 331 l 1
 154 312 l 1
 136 312 l 1
 164 363 l 1
 164 331 l 1
1680 170 m 1
 1651 175 l 1
 1667 154 l 1
 1680 170 l 1
413 184 m 1
 398 194 l 1
 391 191 l 1
 394 170 l 1
 413 184 l 1
372 230 m 1
 359 233 l 1
 351 232 l 1
 344 228 344 228 333 217 c 1
 338 204 l 1
 349 212 349 212 372 230 c 1
EndSplineSet
EndChar
StartChar: auto
Encoding: 142 61582
Width: 2048
Flags: H
Back
1761 628 m 1
 1675 572 l 1
 1633 695 l 1
 1761 695 l 1
 1761 628 l 1
1701 236 m 1
 1667 236 l 1
 1667 185 l 1
 1611 185 l 1
 1611 0 l 1
 1400 0 l 1
 1400 122 l 1
 1337 123 1337 123 1328 185 c 1
 816 185 l 1
 807 123 807 123 745 122 c 1
 745 0 l 1
 534 0 l 1
 534 185 l 1
 477 185 l 1
 477 236 l 1
 443 236 l 1
 443 308 l 1
 477 308 l 1
 477 494 l 2
 477 593 477 593 632 918 c 1
 808 949 808 949 1072 949 c 0
 1336 949 1336 949 1513 918 c 1
 1667 593 1667 593 1667 494 c 2
 1667 308 l 1
 1701 308 l 1
 1701 236 l 1
512 695 m 1
 470 572 l 1
 384 628 l 1
 384 695 l 1
 512 695 l 1
1633 334 m 1
 1633 466 l 1
 1446 466 l 1
 1446 334 l 1
 1633 334 l 1
1597 617 m 1
 1585 659 1585 659 1552 751 c 1
 1530 802 1530 802 1482 887 c 1
 1342 907 1342 907 1072 907 c 0
 803 907 803 907 663 887 c 1
 640 846 640 846 593 751 c 1
 572 704 572 704 547 617 c 1
 788 628 788 628 1072 628 c 0
 1357 628 1357 628 1597 617 c 1
1460 194 m 0
 1460 253 1460 253 1401 253 c 0
 1342 253 1342 253 1342 194 c 0
 1342 135 1342 135 1401 135 c 0
 1460 135 1460 135 1460 194 c 0
1400 422 m 1
 1400 466 l 1
 745 466 l 1
 745 422 l 1
 1400 422 l 1
1400 334 m 1
 1400 377 l 1
 745 377 l 1
 745 334 l 1
 1400 334 l 1
1688 246 m 1
 1688 293 l 1
 456 293 l 1
 456 246 l 1
 690 246 l 1
 711 269 711 269 743 269 c 0
 775 269 775 269 797 246 c 1
 1348 246 l 1
 1369 269 1369 269 1401 269 c 0
 1433 269 1433 269 1455 246 c 1
 1688 246 l 1
699 334 m 1
 699 466 l 1
 512 466 l 1
 512 334 l 1
 699 334 l 1
802 194 m 0
 802 253 802 253 743 253 c 0
 684 253 684 253 684 194 c 0
 684 135 684 135 743 135 c 0
 802 135 802 135 802 194 c 0
EndSplineSet
EndChar
StartChar: finance
Encoding: 143 61583
Width: 2048
Flags: H
Back
1682 0 m 1
 366 0 l 1
 366 1156 l 1
 1682 1156 l 1
 1682 0 l 1
1642 782 m 1
 1642 1116 l 1
 1254 1116 l 1
 1254 802 l 1
 1350 893 l 1
 1479 782 l 1
 1642 782 l 1
1642 642 m 1
 1642 758 l 1
 1507 758 l 1
 1642 642 l 1
1383 782 m 1
 1352 809 l 1
 1323 782 l 1
 1383 782 l 1
1642 397 m 1
 1642 560 l 1
 1411 758 l 1
 1298 758 l 1
 1254 717 l 1
 1254 397 l 1
 1642 397 l 1
1230 782 m 1
 1230 1116 l 1
 816 1116 l 1
 816 782 l 1
 1230 782 l 1
1642 40 m 1
 1642 373 l 1
 1254 373 l 1
 1254 40 l 1
 1642 40 l 1
1208 758 m 1
 816 758 l 1
 816 585 l 1
 927 493 l 1
 1208 758 l 1
1230 397 m 1
 1230 694 l 1
 929 409 l 1
 816 503 l 1
 816 397 l 1
 1230 397 l 1
792 782 m 1
 792 1116 l 1
 406 1116 l 1
 406 782 l 1
 792 782 l 1
1230 40 m 1
 1230 373 l 1
 816 373 l 1
 816 40 l 1
 1230 40 l 1
792 605 m 1
 792 758 l 1
 406 758 l 1
 406 429 l 1
 704 678 l 1
 792 605 l 1
792 397 m 1
 792 523 l 1
 704 596 l 1
 466 397 l 1
 792 397 l 1
792 40 m 1
 792 373 l 1
 437 373 l 1
 406 347 l 1
 406 40 l 1
 792 40 l 1
EndSplineSet
EndChar
StartChar: commodities
Encoding: 144 61584
Width: 2048
Flags: H
Back
1438 1311 m 0
 1438 1254 1438 1254 1302 1213.5 c 128
 1166 1173 1166 1173 974 1173 c 0
 782 1173 782 1173 646 1213.5 c 128
 510 1254 510 1254 510 1311 c 0
 510 1368 510 1368 646 1408.5 c 128
 782 1449 782 1449 974 1449 c 0
 1166 1449 1166 1449 1302 1408.5 c 128
 1438 1368 1438 1368 1438 1311 c 0
1438 891 m 2
 1438 831 1438 831 1302 779 c 0
 1159 725 1159 725 974 725 c 0
 788 725 788 725 646 779 c 0
 510 831 510 831 510 891 c 2
 510 1281 l 2
 510 1224 510 1224 646 1183.5 c 128
 782 1143 782 1143 974 1143 c 0
 1166 1143 1166 1143 1302 1183.5 c 128
 1438 1224 1438 1224 1438 1281 c 2
 1438 891 l 2
1438 454 m 2
 1438 390 1438 390 1302 325 c 0
 1154 254 1154 254 974 254 c 0
 794 254 794 254 646 325 c 0
 510 390 510 390 510 454 c 2
 510 856 l 2
 510 797 510 797 646 747 c 0
 788 695 788 695 974 695 c 0
 1160 695 1160 695 1302 747 c 0
 1438 797 1438 797 1438 856 c 2
 1438 454 l 2
1438 -1 m 2
 1438 -77 1438 -77 1302 -143 c 0
 1159 -214 1159 -214 974 -214 c 0
 789 -214 789 -214 646 -143 c 0
 510 -77 510 -77 510 -1 c 2
 510 417 l 2
 510 355 510 355 646 293 c 0
 793 226 793 226 974 226 c 0
 1155 226 1155 226 1302 293 c 0
 1438 355 1438 355 1438 417 c 2
 1438 -1 l 2
1371 1311 m 0
 1371 1354 1371 1354 1229 1354 c 0
 1087 1354 1087 1354 1087 1311 c 0
 1087 1268 1087 1268 1229 1268 c 0
 1371 1268 1371 1268 1371 1311 c 0
EndSplineSet
EndChar
StartChar: money
Encoding: 145 61585
Width: 2048
Flags: H
Back
1401 1271 m 0
 1401 1220 1401 1220 1336 1133 c 0
 1260 1030 1260 1030 1248 998 c 1
 1121 1041 1121 1041 1006 1041 c 0
 933 1041 933 1041 855 1032 c 1
 761 1214 761 1214 761 1285 c 0
 761 1324 761 1324 827 1338 c 0
 884 1350 884 1350 944 1350 c 1
 928 1198 l 1
 948 1194 l 1
 1004 1374 l 1
 1045 1386 1045 1386 1164 1386 c 0
 1233 1386 1233 1386 1306 1360 c 0
 1401 1326 1401 1326 1401 1271 c 0
1493 271 m 0
 1493 132 1493 132 1447 30 c 0
 1373 -133 1373 -133 992 -133 c 0
 684 -133 684 -133 552 9 c 0
 495 70 495 70 495 221 c 0
 495 446 495 446 579 652 c 0
 677 895 677 895 851 982 c 1
 929 991 929 991 1002 991 c 0
 1117 991 1117 991 1247 947 c 1
 1360 841 1360 841 1430 634 c 0
 1493 446 1493 446 1493 271 c 0
1125 613 m 1
 1101 726 1101 726 1008 746 c 1
 1013 788 l 1
 969 794 l 1
 964 750 l 1
 896 748 896 748 853 710 c 0
 808 669 808 669 808 602 c 0
 808 518 808 518 927 452 c 1
 901 233 l 1
 827 252 827 252 816 349 c 1
 738 334 l 1
 759 188 759 188 892 163 c 1
 884 95 l 1
 927 89 l 1
 936 159 l 1
 1015 159 1015 159 1068 206.5 c 128
 1121 254 1121 254 1121 333 c 0
 1121 430 1121 430 979 512 c 1
 999 675 l 1
 1046 661 1046 661 1056 599 c 1
 1125 613 l 1
955 680 m 1
 938 537 l 1
 889 570 889 570 889 606 c 0
 889 674 889 674 955 680 c 1
1041 330 m 0
 1041 239 1041 239 944 229 c 1
 969 429 l 1
 1041 385 1041 385 1041 330 c 0
EndSplineSet
EndChar
StartChar: price
Encoding: 146 61586
Width: 2048
Flags: H
Back
1892 0 m 1
 801 0 l 1
 558 154 l 1
 494 73 494 73 362 39 c 1
 460 -57 460 -57 599 -84 c 1
 594 -116 l 1
 427 -84 427 -84 316 30 c 1
 262 16 262 16 151 0 c 1
 150 31 l 1
 204 34 204 34 297 55 c 1
 156 211 156 211 156 401 c 0
 156 518 156 518 194 603 c 0
 244 716 244 716 346 716 c 0
 438 716 438 716 510 658 c 1
 801 841 l 1
 1892 841 l 1
 1892 0 l 1
1864 29 m 1
 1864 812 l 1
 809 812 l 1
 533 638 l 1
 587 586 587 586 613 525 c 1
 628 531 628 531 651 531 c 0
 696 531 696 531 728 499 c 128
 760 467 760 467 760 423 c 0
 760 379 760 379 727.5 347 c 128
 695 315 695 315 650 315 c 0
 610 315 610 315 576.5 349 c 128
 543 383 543 383 543 423 c 0
 543 473 543 473 588 511 c 1
 560 575 560 575 507 625 c 1
 470 600 l 1
 470 243 l 1
 599 164 599 164 809 29 c 1
 1864 29 l 1
527 175 m 1
 442 228 l 1
 442 615 l 1
 485 643 l 1
 417 680 417 680 349 680 c 0
 193 680 193 680 193 397 c 0
 193 220 193 220 332 68 c 1
 411 86 411 86 441 101 c 0
 485 123 485 123 527 175 c 1
EndSplineSet
EndChar
StartChar: creditcard
Encoding: 147 61587
Width: 2048
Flags: H
Back
1858 51 m 2
 1858 0 1858 0 1807 0 c 2
 242 0 l 2
 191 0 191 0 191 51 c 2
 191 1125 l 2
 191 1176 191 1176 242 1176 c 2
 1807 1176 l 2
 1858 1176 1858 1176 1858 1125 c 2
 1858 51 l 2
1828 1068 m 1
 1828 1125 l 2
 1828 1146 1828 1146 1807 1146 c 2
 242 1146 l 2
 221 1146 221 1146 221 1125 c 2
 221 1068 l 1
 1828 1068 l 1
1828 51 m 2
 1828 894 l 1
 221 894 l 1
 221 51 l 2
 221 30 221 30 242 30 c 2
 1807 30 l 2
 1828 30 1828 30 1828 51 c 2
1794 538 m 1
 249 538 l 1
 249 815 l 1
 1794 815 l 1
 1794 538 l 1
1359 422 m 1
 667 422 l 1
 667 468 l 1
 1359 468 l 1
 1359 422 l 1
1289 282 m 1
 667 282 l 1
 667 328 l 1
 1289 328 l 1
 1289 282 l 1
1109 352 m 1
 667 352 l 1
 667 398 l 1
 1109 398 l 1
 1109 352 l 1
1359 212 m 1
 667 212 l 1
 667 258 l 1
 1359 258 l 1
 1359 212 l 1
481 244 m 1
 264 244 l 1
 264 395 l 1
 481 395 l 1
 481 244 l 1
481 62 m 1
 264 62 l 1
 264 213 l 1
 481 213 l 1
 481 62 l 1
1774 558 m 1
 1774 795 l 1
 269 795 l 1
 269 558 l 1
 1774 558 l 1
465 302 m 1
 465 344 l 1
 280 344 l 1
 280 302 l 1
 465 302 l 1
400 85 m 1
 400 193 l 1
 338 193 l 1
 338 85 l 1
 400 85 l 1
1663 679 m 1
 1614 651 1614 651 1595.5 646 c 128
 1577 641 1577 641 1522 641 c 0
 1488 641 1488 641 1488 670 c 1
 1417 660 l 1
 1435 700 l 1
 1325 642 1325 642 1199 642 c 0
 1162 642 1162 642 1134 647 c 1
 1144 635 1144 635 1144 627 c 0
 1144 596 1144 596 1070 596 c 0
 996 596 996 596 975 637 c 1
 988 664 988 664 1072 665 c 1
 1039 693 1039 693 1034 726 c 1
 1066 760 1066 760 1138 760 c 0
 1165 760 1165 760 1165 725 c 1
 1164 718 l 1
 1142 706 l 1
 1146 721 1146 721 1145 728 c 1
 1144 739 l 1
 1129 744 1129 744 1128 744 c 0
 1094 744 1094 744 1053 727 c 1
 1051 702 1051 702 1114 664 c 1
 1124 663 1124 663 1135 661 c 0
 1155 659 1155 659 1180 659 c 0
 1322 659 1322 659 1485 753 c 1
 1453 674 l 1
 1507 688 l 1
 1507 658 l 1
 1532 657 l 2
 1590 655 1590 655 1663 679 c 1
967 676 m 1
 935 657 l 1
 839 653 l 1
 808 649 808 649 809 662 c 1
 749 636 749 636 667 636 c 0
 647 636 647 636 641 658 c 1
 674 685 l 1
 635 675 635 675 541 654 c 1
 569 646 l 1
 547 633 l 1
 518 641 l 1
 467 576 467 576 388 576 c 0
 373 576 373 576 355 586 c 1
 360 603 l 1
 417 651 417 651 471 654 c 1
 445 662 445 662 433 668 c 0
 413 679 413 679 407 697 c 1
 407 723 407 723 427 746.5 c 128
 447 770 447 770 473 770 c 0
 495 770 495 770 528 758 c 0
 567 744 567 744 567 726 c 0
 567 712 567 712 536 667 c 1
 591 677 591 677 698 705 c 1
 660 659 l 1
 702 654 702 654 788 682 c 0
 866 707 866 707 908 734 c 1
 921 723 l 1
 887 707 887 707 829 670 c 1
 849 668 849 668 898 672 c 0
 955 676 955 676 967 676 c 1
1113 624 m 1
 1116 638 1116 638 1096 651 c 1
 1022 652 1022 652 995 645 c 1
 994 631 994 631 1026 621 c 0
 1053 612 1053 612 1070 612 c 0
 1079 612 1079 612 1113 624 c 1
550 727 m 1
 523 755 523 755 450 752 c 1
 423 729 423 729 426 695 c 1
 441 680 441 680 512 661 c 1
 515 662 l 1
 531 684 531 684 550 727 c 1
502 645 m 1
 467 639 467 639 431 633 c 1
 393 624 393 624 371 595 c 1
 378 592 378 592 393 592 c 0
 436 592 436 592 455.5 601 c 128
 475 610 475 610 502 645 c 1
EndSplineSet
EndChar
StartChar: ratingfamily
Encoding: 148 61588
Width: 2048
Flags: H
Back
1730 950 m 0
 1730 913 1730 913 1708 887 c 128
 1686 861 1686 861 1655 861 c 0
 1624 861 1624 861 1602.5 887 c 128
 1581 913 1581 913 1581 950 c 0
 1581 987 1581 987 1602.5 1013 c 128
 1624 1039 1624 1039 1655 1039 c 0
 1686 1039 1686 1039 1708 1013 c 128
 1730 987 1730 987 1730 950 c 0
1311 1172 m 0
 1311 1126 1311 1126 1284 1093 c 128
 1257 1060 1257 1060 1218 1060 c 0
 1180 1060 1180 1060 1152.5 1093 c 128
 1125 1126 1125 1126 1125 1172 c 0
 1125 1218 1125 1218 1152.5 1250.5 c 128
 1180 1283 1180 1283 1218 1283 c 0
 1257 1283 1257 1283 1284 1250.5 c 128
 1311 1218 1311 1218 1311 1172 c 0
824 1201 m 0
 824 1154 824 1154 796.5 1117 c 128
 769 1080 769 1080 731 1080 c 0
 693 1080 693 1080 665.5 1117 c 128
 638 1154 638 1154 638 1201 c 0
 638 1247 638 1247 665 1280 c 128
 692 1313 692 1313 731 1313 c 0
 769 1313 769 1313 796.5 1280 c 128
 824 1247 824 1247 824 1201 c 0
1901 670 m 2
 1909 658 1909 658 1909 645 c 0
 1909 623 1909 623 1881 584 c 2
 1799 470 l 1
 1772 541 l 1
 1840 640 l 1
 1763 742 l 1
 1763 537 l 1
 1794 446 l 1
 1781 426 l 1
 1781 319 l 1
 1766 319 l 1
 1766 -11 l 2
 1766 -56 1766 -56 1723 -56 c 0
 1681 -56 1681 -56 1681 -11 c 2
 1681 319 l 1
 1667 319 l 1
 1667 426 l 1
 1645 426 l 1
 1645 319 l 1
 1630 319 l 1
 1630 -11 l 2
 1630 -56 1630 -56 1588 -56 c 0
 1545 -56 1545 -56 1545 -11 c 2
 1545 319 l 1
 1522 319 l 1
 1549 537 l 1
 1549 742 l 1
 1507 534 l 1
 1502 505 1502 505 1469 506 c 0
 1436 506 1436 506 1426 561 c 2
 1359 931 l 1
 1339 931 l 1
 1339 666 l 1
 1446 388 l 1
 1339 388 l 1
 1339 0 l 2
 1339 -56 1339 -56 1285 -56 c 0
 1233 -56 1233 -56 1233 0 c 2
 1233 388 l 1
 1205 388 l 1
 1205 0 l 2
 1205 -56 1205 -56 1153 -56 c 0
 1100 -56 1100 -56 1100 0 c 2
 1100 388 l 1
 990 388 l 1
 1100 666 l 1
 1100 931 l 1
 1079 931 l 1
 1026 559 l 1
 1019 506 1019 506 976 506 c 0
 934 506 934 506 925 563 c 1
 872 907 l 1
 851 907 l 1
 851 0 l 2
 851 -56 851 -56 798 -56 c 0
 745 -56 745 -56 745 0 c 2
 745 537 l 1
 718 537 l 1
 718 0 l 2
 718 -56 718 -56 665 -56 c 0
 612 -56 612 -56 612 0 c 2
 612 907 l 1
 592 907 l 1
 557 561 l 1
 551 505 551 505 514 505 c 0
 484 505 484 505 472 550 c 1
 425 721 l 1
 415 721 l 1
 415 521 l 1
 501 299 l 1
 415 299 l 1
 415 -11 l 2
 415 -56 415 -56 373 -56 c 0
 331 -56 331 -56 331 -11 c 2
 331 299 l 1
 309 299 l 1
 309 -11 l 2
 309 -56 309 -56 266 -56 c 0
 224 -56 224 -56 224 -11 c 2
 224 299 l 1
 137 299 l 1
 224 521 l 1
 224 721 l 1
 208 721 l 1
 208 550 l 2
 208 506 208 506 174 506 c 0
 139 506 139 506 139 550 c 2
 139 721 l 2
 139 829 139 829 256 829 c 2
 385 829 l 2
 481 829 481 829 497 720 c 1
 506 661 l 1
 506 963 l 2
 506 1068 506 1068 623 1068 c 2
 841 1068 l 2
 940 1068 940 1068 950 963 c 1
 978 661 l 1
 992 931 l 1
 999 1050 999 1050 1109 1050 c 2
 1327 1050 l 2
 1432 1050 1432 1050 1444 931 c 2
 1471 661 l 1
 1499 815 l 1
 1506 852 1506 852 1551 852 c 2
 1760 852 l 2
 1789 852 1789 852 1812 815 c 2
 1901 670 l 2
483 869 m 1
 462 872 l 1
 462 889 l 1
 483 893 l 1
 483 869 l 1
467 914 m 1
 454 889 l 1
 454 872 l 1
 466 848 l 1
 431 848 l 1
 442 872 l 1
 442 889 l 1
 430 914 l 1
 467 914 l 1
436 872 m 1
 399 872 399 872 389 894 c 1
 373 837 373 837 319 837 c 0
 265 837 265 837 250 894 c 1
 239 872 239 872 202 872 c 1
 202 889 l 1
 245 891 245 891 245 934 c 0
 245 964 245 964 267 990 c 128
 289 1016 289 1016 319 1016 c 0
 349 1016 349 1016 371 990 c 128
 393 964 393 964 393 934 c 0
 393 891 393 891 436 889 c 1
 436 872 l 1
209 914 m 1
 196 889 l 1
 196 872 l 1
 208 848 l 1
 172 848 l 1
 184 872 l 1
 184 889 l 1
 171 914 l 1
 209 914 l 1
176 872 m 1
 155 869 l 1
 155 893 l 1
 176 889 l 1
 176 872 l 1
EndSplineSet
EndChar
StartChar: ratingviolence
Encoding: 149 61589
Width: 2048
Flags: H
Back
790 1395 m 0
 796 1378 796 1378 796 1360 c 0
 796 1282 796 1282 722 1257 c 0
 705 1251 705 1251 687 1251 c 0
 609 1251 609 1251 583 1325 c 0
 578 1342 578 1342 578 1360 c 0
 578 1437 578 1437 651 1462 c 0
 669 1468 669 1468 687 1468 c 0
 765 1468 765 1468 790 1395 c 0
839 1407 m 0
 848 1381 848 1381 848 1353 c 0
 848 1287 848 1287 801 1239 c 1
 779 1257 779 1257 749 1256 c 1
 810 1291 810 1291 810 1361 c 0
 810 1381 810 1381 804 1400 c 0
 775 1483 775 1483 687 1483 c 0
 666 1483 666 1483 647 1476 c 0
 563 1447 563 1447 563 1360 c 0
 563 1339 563 1339 569 1320 c 0
 600 1229 600 1229 696 1238 c 1
 662 1217 662 1217 661 1189 c 1
 562 1199 562 1199 527 1300 c 0
 518 1326 518 1326 518 1354 c 0
 518 1471 518 1471 629 1509 c 0
 659 1520 659 1520 688 1520 c 0
 800 1520 800 1520 839 1407 c 0
1266 926 m 1
 1274 890 1274 890 1261 882 c 1
 1237 887 1237 887 1201 885 c 1
 1176 862 1176 862 1113 827 c 1
 667 673 l 2
 644 665 644 665 605 665 c 2
 562 665 l 2
 555 664 555 664 539 645.5 c 128
 523 627 523 627 516 626 c 0
 507 624 507 624 493 637 c 1
 480 647 480 647 478 655 c 0
 475 664 475 664 493 686 c 0
 516 714 516 714 556 730 c 0
 578 739 578 739 599 739 c 0
 632 739 632 739 655 719 c 1
 743 755 743 755 831 793 c 1
 831 799 831 799 819 806 c 0
 804 814 804 814 802 817 c 1
 785 811 l 1
 720 942 720 942 704 988 c 0
 680 1052 680 1052 665 1159 c 1
 673 1199 673 1199 683 1212 c 0
 691 1221 691 1221 721 1235 c 1
 772 1250 772 1250 814 1210 c 1
 886 1098 886 1098 901 1047 c 1
 917 955 917 955 934 862 c 1
 920 858 l 1
 920 853 920 853 914.5 841.5 c 128
 909 830 909 830 909 825 c 0
 909 819 909 819 916 817 c 0
 947 809 947 809 1095 870 c 1
 1098 885 1098 885 1106 898 c 0
 1125 928 1125 928 1165 940 c 0
 1189 947 1189 947 1210 947 c 0
 1259 947 1259 947 1266 926 c 1
1324 -132 m 0
 1312 -220 1312 -220 1270 -329 c 1
 1212 -290 1212 -290 1120 -205 c 1
 1053 -118 1053 -118 793 605 c 1
 805 611 805 611 824 638 c 1
 833 665 833 665 814 708 c 1
 984 770 l 1
 996 738 996 738 1025 705 c 1
 1042 702 1042 702 1082 704 c 1
 1335 -52 1335 -52 1324 -132 c 0
1251 -285 m 1
 942 601 l 1
 889 601 l 1
 860 561 l 1
 996 208 996 208 1148 -160 c 1
 1162 -173 1162 -173 1251 -285 c 1
EndSplineSet
EndChar
StartChar: ratingsex
Encoding: 150 61590
Width: 2048
Flags: H
Back
1800 706 m 1
 1711 555 1711 555 1600 448 c 0
 1333 190 1333 190 999 190 c 0
 703 190 703 190 444 454 c 0
 336 564 336 564 245 718 c 1
 345 718 345 718 450 785 c 1
 532 848 532 848 615 911 c 0
 704 978 704 978 766 978 c 0
 833 978 833 978 903 955 c 1
 951 936 951 936 999 916 c 1
 1132 974 1132 974 1241 974 c 0
 1325 974 1325 974 1503.5 840 c 128
 1682 706 1682 706 1800 706 c 1
1535 673 m 1
 1399 670 1399 670 1154 659 c 1
 1119 656 1119 656 1067 643 c 0
 1021 632 1021 632 999 632 c 0
 979 632 979 632 935 647 c 0
 886 663 886 663 844 666 c 0
 709 678 709 678 498 673 c 1
 600 617 600 617 703 561 c 1
 870 479 870 479 999 479 c 0
 1204 479 1204 479 1535 673 c 1
EndSplineSet
EndChar
StartChar: ratinglanguage
Encoding: 151 61591
Width: 2048
Flags: H
Back
1842 1109 m 1
 1531 814 l 1
 1510 833 l 1
 1785 1160 l 1
 1842 1109 l 1
1872 688 m 1
 1556 708 l 1
 1556 741 l 1
 1872 779 l 1
 1872 688 l 1
1842 358 m 1
 1785 307 l 1
 1510 634 l 1
 1531 652 l 1
 1842 358 l 1
1466 433 m 0
 1466 348 1466 348 1214 290 c 0
 1185 283 1185 283 1178 251 c 0
 1176 241 1176 241 1176 189 c 0
 1176 151 1176 151 1192 88.5 c 128
 1208 26 1208 26 1208 0 c 1
 524 0 l 1
 524 32 524 32 526 92 c 0
 528 158 528 158 528 186 c 0
 528 394 528 394 409 483 c 0
 278 581 278 581 225 702 c 0
 175 816 175 816 175 1000 c 0
 175 1193 175 1193 372 1343 c 0
 555 1483 555 1483 754 1483 c 2
 793 1483 l 2
 1123 1483 1123 1483 1175 1343 c 1
 1188 1288 1188 1288 1208 1222 c 1
 1227 1197 1227 1197 1228 1193.5 c 128
 1229 1190 1229 1190 1229 1159 c 0
 1229 1092 1229 1092 1263 1063 c 0
 1279 1049 1279 1049 1345 1025 c 0
 1408 1003 1408 1003 1444 967 c 0
 1451 960 1451 960 1451 952 c 0
 1451 937 1451 937 1397.5 902 c 128
 1344 867 1344 867 1344 837 c 0
 1344 814 1344 814 1362 802 c 0
 1383 786 1383 786 1384 784 c 1
 1357 764 1357 764 1308 716 c 1
 1284 688 1284 688 1254 646 c 1
 1339 619 1339 619 1427 619 c 0
 1436 619 1436 619 1436 606 c 0
 1436 582 1436 582 1422 555.5 c 128
 1408 529 1408 529 1408 522 c 0
 1408 507 1408 507 1437 485 c 128
 1466 463 1466 463 1466 433 c 0
EndSplineSet
EndChar
StartChar: ratingquality
Encoding: 152 61592
Width: 1869
VWidth: 1000
Flags: HW
Fore
1038.95 717.301 m 1
 1496.1 856.699 l 1
 1155.8 856.699 l 1
 1038.95 717.301 l 1
1028.7 717.301 m 1
 1028.7 1213.4 l 1
 899.55 869 l 1
 1028.7 717.301 l 1
823.698 641.449 m 1
 1000 705 l 1
 530.55 846.449 l 1
 823.698 641.449 l 1
1051.25 692.699 m 1
 1369 288.85 l 1
 1227.55 641.449 l 1
 1051.25 692.699 l 1
1028.7 692.699 m 1
 723.25 288.85 l 1
 1028.7 502.051 l 1
 1028.7 692.699 l 1
1280.85 629.149 m 1
 1457.15 165.85 l 1
 1028.7 465.149 l 1
 618.698 165.85 l 1
 772.448 629.149 l 1
 403.448 897.699 l 1
 862.649 897.699 l 1
 1028.7 1354.85 l 1
 1176.3 897.699 l 1
 1635.5 897.699 l 1
 1280.85 629.149 l 1
EndSplineSet
Back
1837 953 m 1
 1335 589 l 1
 1527 -2 l 1
 1025 363 l 1
 522 -2 l 1
 714 589 l 1
 213 953 l 1
 833 953 l 1
 1025 1544 l 1
 1216 953 l 1
 1837 953 l 1
1674 902 m 1
 1214 902 l 1
 1023 723 l 1
 1674 902 l 1
1023 722 m 1
 1023 1408 l 1
 884 953 l 1
 1023 722 l 1
1406 162 m 1
 1263 593 l 1
 1023 719 l 1
 1406 162 l 1
1023 722 m 1
 349 911 l 1
 748 618 l 1
 1023 722 l 1
1023 422 m 1
 1023 719 l 1
 655 167 l 1
 1023 422 l 1
EndSplineSet
EndChar
StartChar: email
Encoding: 153 61593
Width: 2086
VWidth: 1000
Flags: HW
Fore
1845 -47.3008 m 1
 180.4 -47.3008 l 1
 180.4 990 l 1
 1845 990 l 1
 1845 -47.3008 l 1
1791.7 71.5996 m 1
 1791.7 875.199 l 1
 1266.9 491.85 l 1
 1791.7 71.5996 l 1
758.5 491.85 m 1
 233.7 875.199 l 1
 233.7 71.5996 l 1
 758.5 491.85 l 1
1783.5 6 m 1
 1219.75 457 l 1
 1012.7 307.35 l 1
 807.7 454.949 l 1
 241.9 6 l 1
 1783.5 6 l 1
383.351 926.449 m 1
 383.351 856.75 l 1
 1646.15 856.75 l 1
 1646.15 924.399 l 1
 383.351 926.449 l 1
EndSplineSet
Back
1856 -133 m 1
 1268 446 l 1
 1856 1073 l 1
 1856 -133 l 1
1856 1141 m 1
 1240 500 l 1
 1139 386 1139 386 1023 386 c 0
 907 386 907 386 808 500 c 1
 698 616 l 1
 894 759 l 1
 1007 430 l 1
 1703 1394 l 1
 1058 825 l 1
 913 1107 l 1
 615 703 l 1
 192 1141 l 1
 1382 1141 l 1
 1805 1510 l 1
 1561 1141 l 1
 1856 1141 l 1
1856 -205 m 1
 192 -205 l 1
 820 405 l 1
 915 340 915 340 1023 340 c 0
 1131 340 1131 340 1228 405 c 1
 1856 -205 l 1
780 446 m 1
 192 -133 l 1
 192 1073 l 1
 581 660 l 1
 236 198 l 1
 654 578 l 1
 780 446 l 1
EndSplineSet
EndChar
StartChar: send
Encoding: 154 61594
Width: 2023
VWidth: 1000
Flags: HW
Fore
1850 -110 m 5
 222.301 -110 l 5
 222.301 1005.2 l 5
 1850 1005.2 l 5
 1850 -110 l 5
1794.65 -56.7002 m 5
 1794.65 953.949 l 5
 275.601 953.949 l 5
 275.601 -56.7002 l 5
 1794.65 -56.7002 l 5
1645 593.149 m 5
 1442.05 593.149 l 5
 1442.05 828.899 l 5
 1645 828.899 l 5
 1645 593.149 l 5
1499.45 765.35 m 5
 1499.45 658.75 l 5
 1593.75 658.75 l 5
 1593.75 765.35 l 5
 1499.45 765.35 l 5
1060.75 70.3994 m 5
 1009.5 70.3994 l 5
 1009.5 826.85 l 5
 1060.75 826.85 l 5
 1060.75 70.3994 l 5
1665.5 351.25 m 5
 1183.75 351.25 l 5
 1183.75 402.5 l 5
 1665.5 402.5 l 5
 1665.5 351.25 l 5
1665.5 164.699 m 5
 1183.75 164.699 l 5
 1183.75 215.949 l 5
 1665.5 215.949 l 5
 1665.5 164.699 l 5
1673.7 265.149 m 5
 1191.95 265.149 l 5
 1191.95 316.399 l 5
 1673.7 316.399 l 5
 1673.7 265.149 l 5
EndSplineSet
Back
284 187 m 1
 484 187 l 1
 459 94 l 1
 259 94 l 1
 188 -171 l 1
 1648 -171 l 1
 1991 1112 l 1
 532 1112 l 1
 479 914 l 1
 664 914 l 1
 639 821 l 1
 454 821 l 1
 414 672 l 1
 594 672 l 1
 569 578 l 1
 389 578 l 1
 349 429 l 1
 544 429 l 1
 519 336 l 1
 324 336 l 1
 284 187 l 1
27 187 m 1
 242 187 l 1
 282 336 l 1
 2 336 l 1
 27 429 l 1
 307 429 l 1
 347 578 l 1
 2 578 l 1
 27 672 l 1
 372 672 l 1
 412 821 l 1
 2 821 l 1
 27 914 l 1
 437 914 l 1
 499 1146 l 1
 2042 1146 l 1
 1680 -204 l 1
 137 -204 l 1
 217 94 l 1
 2 94 l 1
 27 187 l 1
1807 752 m 1
 1458 752 l 1
 1533 1032 l 1
 1882 1032 l 1
 1807 752 l 1
1338 303 m 1
 753 303 l 1
 773 378 l 1
 1358 378 l 1
 1338 303 l 1
1293 135 m 1
 811 135 l 1
 831 210 l 1
 1313 210 l 1
 1293 135 l 1
1383 470 m 1
 679 470 l 1
 699 545 l 1
 1403 545 l 1
 1383 470 l 1
EndSplineSet
EndChar
StartChar: mail
Encoding: 155 61595
Width: 2023
VWidth: 1000
Flags: HW
Fore
1850 -110 m 5
 222.301 -110 l 5
 222.301 1005.2 l 5
 1850 1005.2 l 5
 1850 -110 l 5
1794.65 -56.7002 m 5
 1794.65 953.949 l 5
 275.601 953.949 l 5
 275.601 -56.7002 l 5
 1794.65 -56.7002 l 5
1645 593.149 m 5
 1442.05 593.149 l 5
 1442.05 828.899 l 5
 1645 828.899 l 5
 1645 593.149 l 5
1499.45 765.35 m 5
 1499.45 658.75 l 5
 1593.75 658.75 l 5
 1593.75 765.35 l 5
 1499.45 765.35 l 5
1060.75 70.3994 m 5
 1009.5 70.3994 l 5
 1009.5 826.85 l 5
 1060.75 826.85 l 5
 1060.75 70.3994 l 5
1665.5 351.25 m 5
 1183.75 351.25 l 5
 1183.75 402.5 l 5
 1665.5 402.5 l 5
 1665.5 351.25 l 5
1665.5 164.699 m 5
 1183.75 164.699 l 5
 1183.75 215.949 l 5
 1665.5 215.949 l 5
 1665.5 164.699 l 5
1673.7 265.149 m 5
 1191.95 265.149 l 5
 1191.95 316.399 l 5
 1673.7 316.399 l 5
 1673.7 265.149 l 5
EndSplineSet
Back
1854 -204 m 1
 191 -204 l 1
 191 1146 l 1
 1854 1146 l 1
 1854 -204 l 1
1813 -171 m 1
 1813 1112 l 1
 232 1112 l 1
 232 -171 l 1
 1813 -171 l 1
1725 752 m 1
 1376 752 l 1
 1376 1032 l 1
 1725 1032 l 1
 1725 752 l 1
1376 470 m 1
 551 470 l 1
 551 545 l 1
 1376 545 l 1
 1376 470 l 1
1376 303 m 1
 670 303 l 1
 670 378 l 1
 1376 378 l 1
 1376 303 l 1
1376 135 m 1
 773 135 l 1
 773 210 l 1
 1376 210 l 1
 1376 135 l 1
EndSplineSet
EndChar
StartChar: write
Encoding: 156 61596
Width: 2023
VWidth: 1000
Flags: HW
Fore
1850 -110 m 5
 222.301 -110 l 5
 222.301 1005.2 l 5
 1850 1005.2 l 5
 1850 -110 l 5
1794.65 -56.7002 m 5
 1794.65 953.949 l 5
 275.601 953.949 l 5
 275.601 -56.7002 l 5
 1794.65 -56.7002 l 5
1645 593.149 m 5
 1442.05 593.149 l 5
 1442.05 828.899 l 5
 1645 828.899 l 5
 1645 593.149 l 5
1499.45 765.35 m 5
 1499.45 658.75 l 5
 1593.75 658.75 l 5
 1593.75 765.35 l 5
 1499.45 765.35 l 5
1060.75 70.3994 m 5
 1009.5 70.3994 l 5
 1009.5 826.85 l 5
 1060.75 826.85 l 5
 1060.75 70.3994 l 5
1665.5 351.25 m 5
 1183.75 351.25 l 5
 1183.75 402.5 l 5
 1665.5 402.5 l 5
 1665.5 351.25 l 5
1665.5 164.699 m 5
 1183.75 164.699 l 5
 1183.75 215.949 l 5
 1665.5 215.949 l 5
 1665.5 164.699 l 5
1673.7 265.149 m 5
 1191.95 265.149 l 5
 1191.95 316.399 l 5
 1673.7 316.399 l 5
 1673.7 265.149 l 5
EndSplineSet
Back
1909 1284 m 1
 1856 1249 1856 1249 1698 1146 c 1
 1857 1146 l 1
 1857 -204 l 1
 194 -204 l 1
 194 1146 l 1
 1033 1146 l 1
 1306 1268 1306 1268 1420 1307 c 0
 1527 1342 1527 1342 1838 1437 c 1
 1909 1284 l 1
1864 1323 m 1
 1833 1382 l 1
 1279 1130 l 1
 1310 1062 l 1
 1864 1323 l 1
1816 -170 m 1
 1816 1112 l 1
 1643 1112 l 1
 1590 1080 1590 1080 1511 1032 c 1
 1728 1032 l 1
 1728 752 l 1
 1380 752 l 1
 1380 960 l 1
 1250 891 1250 891 1085 814 c 1
 948 1112 l 1
 235 1112 l 1
 235 -170 l 1
 1816 -170 l 1
1058 801 m 1
 1007 776 1007 776 793 700 c 1
 688 667 688 667 511 633 c 1
 440 785 l 1
 506 840 506 840 672 958 c 1
 806 1044 806 1044 921 1096 c 1
 1058 801 l 1
1379 471 m 1
 554 471 l 1
 554 545 l 1
 1379 545 l 1
 1379 471 l 1
1379 303 m 1
 673 303 l 1
 673 378 l 1
 1379 378 l 1
 1379 303 l 1
1379 135 m 1
 776 135 l 1
 776 210 l 1
 1379 210 l 1
 1379 135 l 1
490 645 m 1
 387 597 l 1
 378 603 378 603 356 612 c 1
 331 619 331 619 283 603 c 1
 279 611 l 1
 422 678 l 1
 418 688 l 1
 275 621 l 1
 271 630 l 1
 292 642 292 642 324 680 c 1
 330 691 330 691 333 713 c 1
 436 761 l 1
 490 645 l 1
EndSplineSet
EndChar
StartChar: textdoc
Encoding: 157 61597
Width: 1794
Flags: HW
Fore
1482 -195 m 1
 233 -195 l 1
 233 1425 l 1
 1201 1425 l 1
 1482 1127 l 1
 1482 -195 l 1
1446 -154 m 1
 1446 1127 l 1
 1201 1127 l 1
 1201 1395 l 1
 270 1395 l 1
 270 -154 l 1
 1446 -154 l 1
1107 1079 m 1
 442 1079 l 1
 442 1156 l 1
 1107 1156 l 1
 1107 1079 l 1
1292 875 m 1
 442 875 l 1
 442 952 l 1
 1292 952 l 1
 1292 875 l 1
1290 671 m 1
 442 671 l 1
 442 748 l 1
 1290 748 l 1
 1290 671 l 1
1292 467 m 1
 442 467 l 1
 442 544 l 1
 1292 544 l 1
 1292 467 l 1
1292 263 m 1
 442 263 l 1
 442 340 l 1
 1292 340 l 1
 1292 263 l 1
1292 59 m 1
 442 59 l 1
 442 136 l 1
 1292 136 l 1
 1292 59 l 1
EndSplineSet
Back
1636 -191 m 5
 387 -191 l 5
 387 1429 l 5
 1355 1429 l 5
 1636 1131 l 5
 1636 -191 l 5
1600 -150 m 5
 1600 1131 l 5
 1355 1131 l 5
 1355 1399 l 5
 424 1399 l 5
 424 -150 l 5
 1600 -150 l 5
1261 1083 m 5
 545 1083 l 5
 545 1160 l 5
 1261 1160 l 5
 1261 1083 l 5
1501 879 m 5
 545 879 l 5
 545 956 l 5
 1501 956 l 5
 1501 879 l 5
921 675 m 5
 545 675 l 5
 545 752 l 5
 921 752 l 5
 921 675 l 5
1501 471 m 5
 545 471 l 5
 545 548 l 5
 1501 548 l 5
 1501 471 l 5
1501 267 m 5
 545 267 l 5
 545 344 l 5
 1501 344 l 5
 1501 267 l 5
1501 63 m 5
 545 63 l 5
 545 140 l 5
 1501 140 l 5
 1501 63 l 5
EndSplineSet
EndChar
StartChar: textgraphicdoc
Encoding: 158 61598
Width: 2048
Flags: H
Back
1636 -191 m 1
 387 -191 l 1
 387 1429 l 1
 1355 1429 l 1
 1636 1131 l 1
 1636 -191 l 1
1600 -150 m 1
 1600 1131 l 1
 1355 1131 l 1
 1355 1399 l 1
 424 1399 l 1
 424 -150 l 1
 1600 -150 l 1
1289 673 m 1
 691 673 l 1
 691 1343 l 1
 1289 1343 l 1
 1289 673 l 1
1501 444 m 1
 545 444 l 1
 545 521 l 1
 1501 521 l 1
 1501 444 l 1
1501 217 m 1
 545 217 l 1
 545 294 l 1
 1501 294 l 1
 1501 217 l 1
1501 -10 m 1
 545 -10 l 1
 545 67 l 1
 1501 67 l 1
 1501 -10 l 1
1257 715 m 1
 1257 1305 l 1
 727 1305 l 1
 727 715 l 1
 1257 715 l 1
1245 1076 m 1
 1114 1076 l 1
 1112 1090 1112 1090 1112 1108 c 0
 1112 1170 1112 1170 1144 1170 c 0
 1186 1170 1186 1170 1188 1139 c 1
 1188 1181 1188 1181 1245 1200 c 1
 1245 1076 l 1
1237 758 m 0
 1237 745 1237 745 1236 734 c 1
 754 734 l 1
 780 790 780 790 835 872 c 1
 825 908 825 908 825 947 c 0
 825 1019 825 1019 882 1084 c 1
 875 1118 875 1118 875 1163 c 0
 875 1206 875 1206 901.5 1236.5 c 128
 928 1267 928 1267 971 1267 c 0
 1042 1267 1042 1267 1082 1112 c 0
 1094 1065 1094 1065 1137 1064 c 1
 1157 1039 1157 1039 1188 986 c 1
 1197 966 1197 966 1217 872 c 128
 1237 778 1237 778 1237 758 c 0
861 1076 m 1
 740 1076 l 1
 740 1184 l 1
 749 1196 749 1196 764 1196 c 0
 781 1196 781 1196 791 1183 c 128
 801 1170 801 1170 796 1154 c 1
 811 1173 811 1173 826 1173 c 0
 856 1173 856 1173 861 1076 c 1
1059 1013 m 1
 999 1076 999 1076 999 1115 c 0
 999 1124 999 1124 1003 1142 c 128
 1007 1160 1007 1160 1007 1170 c 0
 1007 1189 1007 1189 996 1209 c 0
 982 1231 982 1231 965 1231 c 0
 946 1231 946 1231 928 1227 c 1
 908 1191 908 1191 908 1163 c 0
 908 1149 908 1149 918 1128 c 128
 928 1107 928 1107 939 1105 c 1
 949 1092 949 1092 954 1092 c 1
 952 1065 l 1
 949 1065 l 2
 904 1066 904 1066 879 988 c 1
 1004 962 l 1
 1023 1000 1023 1000 1059 1013 c 1
1070 802 m 2
 1070 824 1070 824 1024 846 c 1
 958 872 l 1
 922 864 922 864 922 849 c 0
 922 837 922 837 937 819 c 1
 957 819 l 1
 962 784 962 784 1013 780 c 1
 1004 791 l 1
 1014 794 l 1
 1024 780 l 1
 1037 783 l 1
 1025 799 l 1
 1033 802 l 1
 1048 786 l 1
 1062 791 l 1
 1040 811 l 1
 1044 814 l 1
 1055 807 1055 807 1070 799 c 1
 1070 802 l 2
976 781 m 1
 953 803 l 1
 916 791 l 1
 916 764 l 1
 938 747 l 1
 950 758 950 758 976 781 c 1
995 1191 m 1
 985 1178 985 1178 967 1175 c 1
 962 1169 962 1169 960 1158 c 1
 958 1177 958 1177 958 1179 c 0
 958 1188 958 1188 967 1188 c 0
 970 1188 970 1188 977 1187 c 128
 984 1186 984 1186 987 1186 c 0
 988 1186 988 1186 991 1187 c 1
 995 1191 l 1
942 1175 m 1
 939 1175 939 1175 914 1169 c 1
 914 1180 l 1
 919 1183 919 1183 926 1183 c 0
 932 1183 932 1183 942 1175 c 1
966 1138 m 1
 962 1132 962 1132 954 1132 c 0
 943 1132 943 1132 941 1141 c 1
 944 1138 944 1138 950 1136 c 1
 954 1138 954 1138 959 1141 c 1
 966 1138 l 1
981 1132 m 1
 977 1125 977 1125 958 1117 c 1
 954 1117 954 1117 942 1120 c 1
 952 1120 952 1120 981 1132 c 1
971 1179 m 1
 967 1180 967 1180 968 1185 c 1
 962 1177 l 1
 971 1179 l 1
925 1173 m 1
 922 1180 l 1
 917 1173 l 1
 925 1173 l 1
EndSplineSet
EndChar
StartChar: graphicdoc
Encoding: 159 61599
Width: 2048
Flags: H
Back
1636 -191 m 1
 387 -191 l 1
 387 1429 l 1
 1416 1429 l 1
 1636 1198 l 1
 1636 -191 l 1
1626 1169 m 1
 1397 1412 l 1
 1398 1169 l 1
 1626 1169 l 1
1540 -69 m 1
 1540 1110 l 1
 479 1110 l 1
 479 -69 l 1
 1540 -69 l 1
1516 651 m 1
 1253 651 l 1
 1249 680 1249 680 1249 715 c 0
 1249 840 1249 840 1313 840 c 0
 1396 840 1396 840 1402 778 c 1
 1400 862 1400 862 1516 900 c 1
 1516 651 l 1
1499 15 m 0
 1499 -10 1499 -10 1497 -32 c 1
 534 -32 l 1
 571 41 571 41 607 115 c 1
 659 213 659 213 695 245 c 1
 675 315 675 315 675 395 c 0
 675 538 675 538 789 667 c 1
 775 737 775 737 775 825 c 0
 775 912 775 912 828.5 973.5 c 128
 882 1035 882 1035 967 1035 c 0
 1110 1035 1110 1035 1190 725 c 0
 1214 631 1214 631 1299 627 c 1
 1339 577 1339 577 1402 472 c 1
 1419 431 1419 431 1459 244 c 128
 1499 57 1499 57 1499 15 c 0
746 651 m 1
 506 651 l 1
 506 869 l 1
 523 893 523 893 554 893 c 0
 620 893 620 893 620 827 c 0
 620 817 620 817 618 809 c 1
 647 846 647 846 678 846 c 0
 738 846 738 846 746 651 c 1
1144 527 m 1
 1023 652 1023 652 1023 730 c 0
 1023 748 1023 748 1031.5 784.5 c 128
 1040 821 1040 821 1040 840 c 0
 1040 878 1040 878 1017 917 c 0
 990 962 990 962 955 962 c 0
 918 962 918 962 880 954 c 1
 842 883 842 883 842 826 c 0
 842 798 842 798 860 759 c 0
 881 715 881 715 904 709 c 1
 909 700 909 700 914 691.5 c 128
 919 683 919 683 934 685 c 1
 929 630 l 1
 924 630 l 2
 877 632 877 632 834 575 c 0
 801 531 801 531 783 475 c 1
 1032 424 l 1
 1071 500 1071 500 1144 527 c 1
1166 104 m 1
 1166 148 1166 148 1074 192 c 1
 1008 218 1008 218 942 245 c 1
 868 227 868 227 868 198 c 0
 868 174 868 174 899 139 c 1
 939 139 l 1
 944 107 944 107 982 84 c 0
 1016 63 1016 63 1051 60 c 1
 1034 82 l 1
 1052 89 l 1
 1074 60 l 1
 1100 67 l 1
 1075 99 l 1
 1091 104 l 1
 1120 73 l 1
 1148 82 l 1
 1105 122 l 1
 1114 129 l 1
 1134 114 1134 114 1165 98 c 1
 1166 104 l 1
978 63 m 1
 932 106 l 1
 857 83 l 1
 857 28 l 1
 900 -6 l 1
 926 17 926 17 978 63 c 1
1015 883 m 1
 996 856 996 856 958 849 c 1
 949 839 949 839 945 817 c 1
 941 855 941 855 941 858 c 0
 941 877 941 877 959 877 c 0
 965 877 965 877 978.5 874.5 c 128
 992 872 992 872 999 872 c 2
 1007 874 l 1
 1015 883 l 1
910 850 m 1
 904 849 904 849 853 838 c 1
 853 860 l 1
 864 867 864 867 878 867 c 0
 890 867 890 867 910 850 c 1
957 775 m 1
 950 764 950 764 933 764 c 0
 911 764 911 764 908 781 c 1
 914 777 914 777 926 772 c 1
 933 776 933 776 943 782 c 1
 957 775 l 1
986 765 m 1
 976 739 976 739 943 735 c 2
 940 734 l 2
 934 734 934 734 910 739 c 1
 944 743 944 743 951 745.5 c 128
 958 748 958 748 986 765 c 1
967 857 m 1
 958 861 958 861 961 870 c 1
 950 854 l 1
 967 857 l 1
876 847 m 1
 870 861 l 1
 860 845 l 1
 876 847 l 1
EndSplineSet
EndChar
StartChar: investigate
Encoding: 160 61600
Width: 2048
Flags: H
Back
1807 0 m 1
 242 0 l 1
 311 214 311 214 457 300 c 0
 596 383 596 383 722 394 c 1
 545 722 l 1
 836 618 l 1
 770 724 770 724 770 796 c 2
 770 838 l 1
 563 838 l 1
 770 953 l 1
 847 1300 l 1
 1025 1237 l 1
 1203 1300 l 1
 1276 953 l 1
 1487 838 l 1
 1276 838 l 1
 1276 807 l 2
 1276 699 1276 699 1214 618 c 1
 1504 722 l 1
 1328 394 l 1
 1453 383 1453 383 1593 300 c 0
 1738 214 1738 214 1807 0 c 1
951 618 m 1
 887 618 l 1
 787 494 l 1
 830 467 l 1
 951 618 l 1
EndSplineSet
EndChar
StartChar: clock
Encoding: 161 61601
Width: 2048
Flags: H
Back
1915 0 m 1
 133 0 l 1
 133 246 l 1
 237 255 237 255 319 300 c 0
 516 407 516 407 573 674 c 0
 604 818 604 818 725 917 c 0
 853 1023 853 1023 1024 1023 c 0
 1195 1023 1195 1023 1323 917 c 0
 1443 818 1443 818 1474 674 c 0
 1532 407 1532 407 1729 300 c 0
 1811 255 1811 255 1915 246 c 1
 1915 0 l 1
1346 605 m 0
 1346 735 1346 735 1251.5 826.5 c 128
 1157 918 1157 918 1024 918 c 0
 891 918 891 918 797 826.5 c 128
 703 735 703 735 703 605 c 0
 703 475 703 475 797 383 c 128
 891 291 891 291 1024 291 c 0
 1157 291 1157 291 1251.5 383 c 128
 1346 475 1346 475 1346 605 c 0
1332 593 m 1
 1202 593 l 1
 1202 619 l 1
 1332 619 l 1
 1332 593 l 1
1036 774 m 1
 1010 774 l 1
 1010 904 l 1
 1036 904 l 1
 1036 774 l 1
1246 798 m 1
 1201 739 l 1
 1194 746 l 1
 1059 622 l 1
 1047 634 l 1
 1186 753 l 1
 1177 761 l 1
 1246 798 l 1
1008 637 m 1
 989 621 l 1
 933 700 l 1
 921 692 l 1
 892 763 l 1
 961 720 l 1
 947 709 l 1
 1008 637 l 1
1055 605 m 0
 1055 574 1055 574 1024 574 c 0
 993 574 993 574 993 605 c 0
 993 635 993 635 1024 635 c 0
 1055 635 1055 635 1055 605 c 0
1036 303 m 1
 1010 303 l 1
 1010 433 l 1
 1036 433 l 1
 1036 303 l 1
847 593 m 1
 717 593 l 1
 717 619 l 1
 847 619 l 1
 847 593 l 1
EndSplineSet
EndChar
StartChar: frames
Encoding: 162 61602
Width: 2048
Flags: H
Back
1823 -222 m 1
 1669 -222 l 1
 1638 -184 1638 -184 1550 -163 c 0
 1480 -145 1480 -145 1412 -145 c 0
 1246 -145 1246 -145 1125 -222 c 1
 922 -222 l 1
 801 -145 801 -145 634 -145 c 0
 566 -145 566 -145 496 -163 c 0
 408 -184 408 -184 377 -222 c 1
 223 -222 l 1
 223 -34 l 1
 311 42 311 42 311 232 c 0
 311 345 311 345 297 395 c 0
 284 442 284 442 223 547 c 1
 223 670 l 1
 311 827 311 827 311 985 c 0
 311 1175 311 1175 223 1251 c 1
 223 1439 l 1
 377 1439 l 1
 408 1401 408 1401 496 1379 c 0
 566 1362 566 1362 634 1362 c 0
 801 1362 801 1362 922 1439 c 1
 1125 1439 l 1
 1246 1362 1246 1362 1412 1362 c 0
 1480 1362 1480 1362 1550 1379 c 0
 1638 1401 1638 1401 1669 1439 c 1
 1823 1439 l 1
 1823 1251 l 1
 1735 1175 1735 1175 1735 985 c 0
 1735 871 1735 871 1748.5 823 c 128
 1762 775 1762 775 1823 670 c 1
 1823 545 l 1
 1762 440 1762 440 1749 394 c 0
 1735 345 1735 345 1735 232 c 0
 1735 42 1735 42 1823 -34 c 1
 1823 -222 l 1
1564 1208 m 1
 1117 1208 l 1
 1117 424 l 1
 1564 424 l 1
 1564 1208 l 1
1092 696 m 1
 1092 1208 l 1
 502 1208 l 1
 502 696 l 1
 1092 696 l 1
1564 29 m 1
 1564 399 l 1
 1117 399 l 1
 1117 29 l 1
 1564 29 l 1
1092 29 m 1
 1092 671 l 1
 809 671 l 1
 809 29 l 1
 1092 29 l 1
784 29 m 1
 784 671 l 1
 502 671 l 1
 502 29 l 1
 784 29 l 1
EndSplineSet
EndChar
StartChar: noframes
Encoding: 163 61603
Width: 2048
Flags: H
Back
1823 -222 m 1
 1669 -222 l 1
 1638 -184 1638 -184 1550 -163 c 0
 1480 -145 1480 -145 1412 -145 c 0
 1246 -145 1246 -145 1125 -222 c 1
 922 -222 l 1
 801 -145 801 -145 634 -145 c 0
 566 -145 566 -145 496 -163 c 0
 408 -184 408 -184 377 -222 c 1
 223 -222 l 1
 223 -34 l 1
 311 42 311 42 311 232 c 0
 311 345 311 345 297 395 c 0
 284 442 284 442 223 547 c 1
 223 670 l 1
 311 827 311 827 311 985 c 0
 311 1175 311 1175 223 1251 c 1
 223 1439 l 1
 377 1439 l 1
 408 1401 408 1401 496 1379 c 0
 566 1362 566 1362 634 1362 c 0
 801 1362 801 1362 922 1439 c 1
 1125 1439 l 1
 1246 1362 1246 1362 1412 1362 c 0
 1480 1362 1480 1362 1550 1379 c 0
 1638 1401 1638 1401 1669 1439 c 1
 1823 1439 l 1
 1823 1251 l 1
 1735 1175 1735 1175 1735 985 c 0
 1735 871 1735 871 1748.5 823 c 128
 1762 775 1762 775 1823 670 c 1
 1823 545 l 1
 1762 440 1762 440 1749 394 c 0
 1735 345 1735 345 1735 232 c 0
 1735 42 1735 42 1823 -34 c 1
 1823 -222 l 1
1564 29 m 1
 1564 1208 l 1
 502 1208 l 1
 502 29 l 1
 1564 29 l 1
1426 200 m 1
 1358 142 l 1
 1025 538 l 1
 693 142 l 1
 624 200 l 1
 966 608 l 1
 624 1016 l 1
 693 1074 l 1
 1025 678 l 1
 1358 1074 l 1
 1426 1016 l 1
 1084 608 l 1
 1426 200 l 1
EndSplineSet
EndChar
StartChar: clipboard
Encoding: 164 61604
Width: 2048
Flags: H
Back
1491 1023 m 1
 1444 917 l 1
 852 992 l 1
 905 1088 l 1
 1016 1078 l 1
 1085 1214 1085 1214 1125 1264 c 0
 1205 1363 1205 1363 1305 1361 c 0
 1357 1360 1357 1360 1389 1330.5 c 128
 1421 1301 1421 1301 1421 1256 c 0
 1421 1232 1421 1232 1411 1206 c 0
 1387 1148 1387 1148 1342 1040 c 1
 1491 1023 l 1
1873 772 m 1
 1234 -168 l 1
 190 124 l 1
 172 173 l 1
 818 1181 l 1
 1052 1163 l 1
 1042 1145 l 1
 835 1165 l 1
 230 182 l 1
 1191 -61 l 1
 1664 1082 l 1
 1405 1108 l 1
 1362 1056 l 1
 1390 1126 l 1
 1437 1123 l 1
 1449 1144 1449 1144 1444 1155 c 0
 1439 1168 1439 1168 1409 1170 c 1
 1418 1193 l 1
 1433 1192 1433 1192 1445 1188 c 0
 1474 1179 1474 1179 1479 1158 c 0
 1483 1142 1483 1142 1472 1118 c 1
 1699 1097 l 1
 1708 1063 l 1
 1607 799 l 1
 1873 772 l 1
1355 1206 m 1
 1365 1232 1365 1232 1365 1256 c 0
 1365 1319 1365 1319 1292 1319 c 0
 1197 1319 1197 1319 1146 1222 c 1
 1355 1206 l 1
1442 963 m 1
 884 1024 l 1
 878 1013 l 1
 1435 947 l 1
 1442 963 l 1
EndSplineSet
EndChar
StartChar: note
Encoding: 165 61605
Width: 2048
Flags: H
Back
1726 -230 m 1
 410 -230 l 1
 410 -150 l 1
 326 -150 l 1
 326 1380 l 1
 540 1380 l 1
 543 1423 543 1423 566 1452 c 128
 589 1481 589 1481 620 1481 c 0
 691 1481 691 1481 699 1380 c 1
 887 1380 l 1
 890 1423 890 1423 913 1452 c 128
 936 1481 936 1481 967 1481 c 0
 1038 1481 1038 1481 1046 1380 c 1
 1243 1380 l 1
 1246 1423 1246 1423 1269 1452 c 128
 1292 1481 1292 1481 1323 1481 c 0
 1394 1481 1394 1481 1402 1380 c 1
 1642 1380 l 1
 1642 1300 l 1
 1726 1300 l 1
 1726 -230 l 1
1686 -190 m 1
 1686 1260 l 1
 1642 1260 l 1
 1642 -150 l 1
 450 -150 l 1
 450 -190 l 1
 1686 -190 l 1
1602 -110 m 1
 1602 1340 l 1
 1324 1340 l 1
 1327 1317 1327 1317 1342.5 1305 c 128
 1358 1293 1358 1293 1358 1283 c 0
 1358 1253 1358 1253 1323 1253 c 0
 1259 1253 1259 1253 1244 1340 c 1
 968 1340 l 1
 971 1317 971 1317 986.5 1305 c 128
 1002 1293 1002 1293 1002 1283 c 0
 1002 1253 1002 1253 967 1253 c 0
 903 1253 903 1253 888 1340 c 1
 621 1340 l 1
 624 1317 624 1317 639.5 1305 c 128
 655 1293 655 1293 655 1283 c 0
 655 1253 655 1253 620 1253 c 0
 556 1253 556 1253 541 1340 c 1
 366 1340 l 1
 366 -110 l 1
 1602 -110 l 1
EndSplineSet
EndChar
StartChar: calender
Encoding: 166 61606
Width: 2048
Flags: H
Back
1726 -230 m 1
 410 -230 l 1
 410 -150 l 1
 326 -150 l 1
 326 1380 l 1
 540 1380 l 1
 543 1423 543 1423 566 1452 c 128
 589 1481 589 1481 620 1481 c 0
 691 1481 691 1481 699 1380 c 1
 887 1380 l 1
 890 1423 890 1423 913 1452 c 128
 936 1481 936 1481 967 1481 c 0
 1038 1481 1038 1481 1046 1380 c 1
 1243 1380 l 1
 1246 1423 1246 1423 1269 1452 c 128
 1292 1481 1292 1481 1323 1481 c 0
 1394 1481 1394 1481 1402 1380 c 1
 1642 1380 l 1
 1642 1300 l 1
 1726 1300 l 1
 1726 -230 l 1
1686 -190 m 1
 1686 1260 l 1
 1642 1260 l 1
 1642 -150 l 1
 450 -150 l 1
 450 -190 l 1
 1686 -190 l 1
1602 -110 m 1
 1602 1340 l 1
 1324 1340 l 1
 1327 1317 1327 1317 1342.5 1305 c 128
 1358 1293 1358 1293 1358 1283 c 0
 1358 1253 1358 1253 1323 1253 c 0
 1259 1253 1259 1253 1244 1340 c 1
 968 1340 l 1
 971 1317 971 1317 986.5 1305 c 128
 1002 1293 1002 1293 1002 1283 c 0
 1002 1253 1002 1253 967 1253 c 0
 903 1253 903 1253 888 1340 c 1
 621 1340 l 1
 624 1317 624 1317 639.5 1305 c 128
 655 1293 655 1293 655 1283 c 0
 655 1253 655 1253 620 1253 c 0
 556 1253 556 1253 541 1340 c 1
 366 1340 l 1
 366 -110 l 1
 1602 -110 l 1
1236 190 m 1
 712 190 l 1
 712 316 l 1
 896 316 l 1
 896 807 l 1
 752 724 l 1
 688 832 l 1
 928 972 l 1
 1052 972 l 1
 1052 316 l 1
 1236 316 l 1
 1236 190 l 1
EndSplineSet
EndChar
StartChar: book
Encoding: 167 61607
Width: 2048
Flags: H
Back
1899 0 m 1
 1192 0 l 1
 1106 -31 1106 -31 1024 -31 c 0
 942 -31 942 -31 855 0 c 1
 149 0 l 1
 149 43 l 1
 204 120 l 1
 204 457 l 1
 460 692 l 1
 520 678 520 678 587 678 c 0
 631 678 631 678 707 707.5 c 128
 783 737 783 737 855 737 c 0
 978 737 978 737 1024 644 c 1
 1068 737 1068 737 1192 737 c 0
 1264 737 1264 737 1340 707.5 c 128
 1416 678 1416 678 1460 678 c 0
 1527 678 1527 678 1588 692 c 1
 1843 457 l 1
 1843 120 l 1
 1899 43 l 1
 1899 0 l 1
1806 454 m 1
 1575 672 l 1
 1526 662 1526 662 1463 662 c 0
 1401 662 1401 662 1328 691 c 128
 1255 720 1255 720 1192 720 c 0
 1080 720 1080 720 1035 640 c 1
 1044 424 l 1
 1093 501 1093 501 1207 501 c 0
 1304 501 1304 501 1412.5 465 c 128
 1521 429 1521 429 1588 429 c 0
 1678 429 1678 429 1806 454 c 1
1806 94 m 1
 1806 430 l 1
 1756 420 1756 420 1590 408 c 1
 1521 407 1521 407 1409.5 442 c 128
 1298 477 1298 477 1207 477 c 0
 1083 477 1083 477 1024 367 c 1
 965 477 965 477 841 477 c 0
 750 477 750 477 638.5 442 c 128
 527 407 527 407 458 408 c 0
 349 409 349 409 241 430 c 1
 241 94 l 1
 871 94 l 1
 920 162 920 162 1024 162 c 0
 1128 162 1128 162 1176 94 c 1
 1806 94 l 1
1013 640 m 1
 967 720 967 720 855 720 c 0
 792 720 792 720 719.5 691 c 128
 647 662 647 662 585 662 c 0
 522 662 522 662 473 672 c 1
 241 454 l 1
 370 429 370 429 460 429 c 0
 527 429 527 429 635.5 465 c 128
 744 501 744 501 841 501 c 0
 955 501 955 501 1004 424 c 1
 1013 640 l 1
EndSplineSet
EndChar
